<svg width="35" height="29" viewBox="0 0 35 29" fill="none" xmlns="http://www.w3.org/2000/svg">
<path d="M31.5 28.8H3.5C2.57174 28.8 1.6815 28.4312 1.02513 27.7749C0.368749 27.1185 0 26.2282 0 25.3V4.14774C0.0392571 3.24612 0.425266 2.39452 1.07744 1.77071C1.72961 1.14691 2.59753 0.799135 3.5 0.799989H31.5C32.4283 0.799989 33.3185 1.16874 33.9749 1.82512C34.6312 2.48149 35 3.37173 35 4.29999V25.3C35 26.2282 34.6312 27.1185 33.9749 27.7749C33.3185 28.4312 32.4283 28.8 31.5 28.8ZM3.5 7.56899V25.3H31.5V7.56899L17.5 16.9L3.5 7.56899ZM4.9 4.29999L17.5 12.7L30.1 4.29999H4.9Z" fill="white"/>
</svg>
