<svg width="32" height="22" viewBox="0 0 32 22" fill="none" xmlns="http://www.w3.org/2000/svg">
<path fill-rule="evenodd" clip-rule="evenodd" d="M3.3306 21.2324C2.76182 21.0641 2.24284 20.7647 1.81748 20.3595C1.39211 19.9544 1.07282 19.4552 0.886561 18.9043C-0.177777 16.0567 -0.493137 4.16605 1.5567 1.81871C2.23892 1.0551 3.20213 0.584967 4.23726 0.510351C9.73634 -0.0668646 26.7263 0.0100982 28.6776 0.702757C29.2264 0.876568 29.7279 1.16937 30.1443 1.55923C30.5607 1.94908 30.8814 2.42588 31.0822 2.9539C32.2451 5.8977 32.2845 16.5954 30.9245 19.4238C30.5638 20.16 29.9598 20.7564 29.2098 21.1169C27.1599 22.1174 6.05057 22.0982 3.3306 21.2324ZM12.0621 15.6526L21.9171 10.6501L12.0621 5.60909V15.6526Z" fill="white"/>
</svg>
