<?xml version="1.0" encoding="utf-8"?>
<!-- Generator: Adobe Illustrator 26.5.0, SVG Export Plug-In . SVG Version: 6.00 Build 0)  -->
<svg version="1.1" id="Calque_1" xmlns="http://www.w3.org/2000/svg" xmlns:xlink="http://www.w3.org/1999/xlink" x="0px" y="0px"
	 viewBox="0 0 725.45 725.45" style="enable-background:new 0 0 725.45 725.45;" xml:space="preserve">
<style type="text/css">
	.st0{fill:#FFFFFF;}
	.st1{fill:#C10230;}
	.st2{fill:#002F87;}
</style>
<rect y="0" class="st0" width="725.45" height="725.45"/>
<g id="serpent">
	<path class="st1" d="M464.83,448C464.83,448,464.83,448,464.83,448c-0.04-0.17-0.07-0.32-0.11-0.49c-0.05-0.22-0.1-0.44-0.15-0.65
		c-0.04-0.15-0.07-0.31-0.11-0.46c-0.08-0.31-0.16-0.61-0.24-0.9c-0.03-0.12-0.07-0.24-0.1-0.36c-0.07-0.24-0.14-0.48-0.21-0.71
		c-0.02-0.07-0.05-0.15-0.07-0.22c-0.09-0.29-0.18-0.56-0.27-0.82c-0.02-0.07-0.05-0.14-0.07-0.2c-0.09-0.26-0.19-0.52-0.28-0.74
		c-0.49,0.71,0.12,2.33,0.71,3.88c0.11,0.34,0.22,0.68,0.32,1c0.34,1.15,0.5,2.11-0.12,2.35c-0.09-0.82-0.28-1.82-0.49-2.87
		c-0.22-1.05-0.54-2.13-0.78-3.13c-0.54-1.99-1.01-3.62-0.71-3.89c-0.21,0.16-0.71-1.38-1.25-3.04c-0.6-1.63-1.24-3.38-1.69-3.63
		c1.33,2.86,0.18,1.29,0.26,1.93c-0.17-0.64-1.19-3.92-1.56-4.11c0.27-0.39,0.82-0.13,1.26,0.13c-0.43-1.28-0.96-1.96-1.51-2.76
		c-0.28-0.4-0.57-0.82-0.89-1.34c-0.34-0.52-0.7-1.15-1.1-1.97c0.87,0.98,0.45-0.14-0.18-1.53c-0.67-1.36-1.53-2.99-1.4-3.07
		c-1.42-1.38-0.71,1.34-3-2.28c0.93,0.92,2.19,2.19,0.21-1.26c0.55-0.35,1.93,1.67,3.16,3.7c0.45,0.77,0.88,1.54,1.26,2.17
		c0.12,0.21,0.24,0.4,0.35,0.57c0.42,0.71,0.73,1.11,0.83,0.88c-0.07-0.16-0.16-0.36-0.26-0.56c-0.02-0.04-0.04-0.09-0.07-0.13
		c-0.1-0.2-0.22-0.41-0.34-0.63c-0.04-0.06-0.07-0.13-0.11-0.2c-0.1-0.17-0.2-0.35-0.3-0.53c-0.18-0.32-0.37-0.64-0.55-0.95
		c-0.15-0.26-0.3-0.52-0.43-0.76c-0.72-1.24-1.18-2.09-0.42-1.52l-1.83-2.1c-1.44-4.08-4.36-7.21-8.15-12.04
		c-2.94-3.24-3.68-2.34-0.98,0.81c-3.31-3.27-1.78-1.18-5.1-4.84c0.55,0.34-0.29-0.83-0.65-1.38c-2.9-3.21-1.17-0.19-3.02-2.19
		c-0.55-0.56,0.22-0.23-1.08-1.64c-0.7-0.34-1.43-0.64-2.15-0.95c-0.95-1.21-0.65-1.25,0.13-0.81c0.39,0.22,0.91,0.56,1.45,0.93
		c0.52,0.4,1.07,0.82,1.55,1.18c-2.81-3.13-5.44-4.24-7.24-6.08c0.78,0.27,2.01,1.61,1.99,1.09c-1.44-1.22-2.52-2-3.39-2.55
		c-0.86-0.56-1.49-0.93-2.12-1.22c-1.26-0.58-2.35-1.13-5.03-2.71c0.89,0.95,1.96,1.57,3.11,2.28c0.58,0.35,1.2,0.7,1.84,1.11
		c0.63,0.42,1.28,0.9,1.94,1.47l0.65,1.77c-0.81-0.76-2.26-2.53-3.04-2.28l1.64,1.77c-0.91-0.63-1.92-1.66-3.11-2.64
		c-0.59-0.5-1.21-1.02-1.87-1.48c-0.67-0.45-1.37-0.86-2.1-1.19c-0.87-0.97-1.8-1.87-2.71-2.8c0.48-0.17,1.53,0.41,2.72,1.18
		c1.17,0.8,2.54,1.69,3.66,2.18c-2.79-2.48,6.07,3.41,1.37-0.55c-2.75-1.97-5.23-3.81-7.39-4.63l1.81,1.36
		c-1.5-0.95-2.87-1.77-4.22-2.45c-0.67-0.34-1.32-0.67-1.95-1c-0.65-0.3-1.28-0.58-1.91-0.87c-1.25-0.58-2.5-1.1-3.78-1.65
		c-1.28-0.56-2.6-1.13-4.02-1.75c-2.22-0.52,1.89,1.62,2.4,2.04c1.04,0.57,2.76,1.22,4.14,1.9c1.38,0.67,2.46,1.26,2.31,1.54
		c-4.42-2.25-10.3-5.35-12.88-5.89c0.02-0.04-0.04-0.11-0.37-0.28c-0.75-0.23-1.51-0.44-2.28-0.63l0.65,0.06
		c-1.41-0.6-3.36-1.41-5.13-2l-1.25,36.21c0.38,0.13,0.78,0.28,1.2,0.43c0.93,0.35,1.93,0.72,2.79,1.02
		c0.86,0.31,1.56,0.59,1.94,0.67c1.73,1.13,1.17,1.39,5.55,3.78c2.99,1.54,0.83-0.29,1.06-0.28c0.9,0.87,2.14,1.66,3.45,2.61
		c0.66,0.46,1.37,0.92,2.08,1.38c0.7,0.5,1.41,1,2.12,1.51c0.35,0.25,0.71,0.51,1.06,0.76c0.34,0.27,0.67,0.55,1,0.81
		c0.66,0.54,1.29,1.08,1.88,1.62c1.13,1.13,2.08,2.23,2.65,3.26c-1.29-2.02,2.08,1.67,3.62,3.49c-0.65-0.32,0.62,1.68,1.17,3.02
		c0.28,0.67,0.43,1.13,0.17,1c-0.28-0.12-0.88-0.91-2.34-2.51c0.04-0.27-0.32-0.98,0.67-0.05c-1.47-2-3.4-3.58-3.8-3.69
		c0.68,0.96,1.39,1.87,1.98,2.82c0.59,0.95,1.13,1.86,1.61,2.69c0.86,1.75,1.54,3.13,1.73,4c-0.81-1.14-1.29-1.92-1.6-2.72
		c-0.32-0.8-0.58-1.52-1.12-2.4c-1.11-1.37-1.65-1.89-1.84-1.94c-0.19-0.05,0.02,0.32,0.28,0.87c0.53,1.09,1.41,2.7,0.74,2.2
		c0.45,0.68,0.98,1.59,1.56,2.54c0.29,0.48,0.58,0.96,0.87,1.44c0.26,0.5,0.52,0.99,0.76,1.46c1,1.83,1.5,3.37,1.15,3.14
		c0.67,0.98,1.23,1.76,1.65,2.36c0.44,0.6,0.8,0.98,1.09,1.16c0.56,0.36,0.79-0.12,0.62-1.4c1.42,2.38,2.92,6.07,3.84,9.69
		c0.99,3.61,1.17,7.12,1.27,8.77c-0.03,0.29-0.07,0.6-0.1,0.93c-0.05,0.32-0.11,0.66-0.17,1c-0.1,0.69-0.21,1.42-0.32,2.17
		c-0.25,1.49-0.63,3.04-0.96,4.46c-0.44,1.39-0.86,2.66-1.25,3.61c-0.45,0.91-0.83,1.52-1.09,1.63c0.24-0.65,0.48-1.28,0.69-1.91
		c0.17-0.65,0.33-1.28,0.5-1.93c0.15-0.65,0.33-1.29,0.45-1.97c0.1-0.68,0.21-1.39,0.31-2.13c-0.63,2.09-1.38,4.55-2.06,6.82
		c-0.38,1.11-0.69,2.23-1.02,3.18c-0.35,0.95-0.65,1.79-0.89,2.45c-0.25,0.31-0.49,0.58-0.73,0.85c-0.26,0.25-0.52,0.51-0.79,0.83
		c-0.56,0.62-1.14,1.52-2.04,3c0.55-0.08,0.29,0.67-0.56,2.08c-0.82,1.44-2.37,3.35-4.33,5.58c-0.91,0.94-1.71,1.72-2.42,2.37
		c-0.68,0.65-1.45,1.18-2.03,1.62c-1.21,0.91-2.11,1.31-2.92,1.75c-0.81,0.44-1.55,0.78-2.46,1.32c-0.46,0.27-0.96,0.61-1.54,1.01
		c-0.58,0.38-1.25,0.83-2.03,1.4l1.72-0.41c-4.45,2.5-6.47,3.25-8.57,4.13c-1.05,0.4-2.13,0.78-3.56,1.29
		c-1.42,0.45-3.2,1.08-5.63,1.79l-1.1,1.1c-3.17,0.41-5.37,2.05-8.92,2.84c1.08-0.55,0.98-0.87,2.06-1.43
		c-1.74,0.6-3.48,1.13-5.22,1.7c1.08-0.57,1.36-1.33-2.41-0.3c2.04-0.89,6.95-3.5,2.23-2.02c0.78,0.26-2.9,1.62-5.85,2.41
		c3.46-1.44-2.29-0.02-4.18,0.23c-2.5,1.04,1.05-0.04,1.97,0.05l-5.47,1.81c2.17-1.02-3.51,0.61-4.07,0.47
		c-1.83,0.99-5.62,3.13-2.03,2.86l1.28-1.13l4.62-0.33c-9.18,3.01-16.83,3.63-28.31,6.55c-3.34,0.4,0.96-1.58-6.35,0.79
		c-1.07,0.5-2.55,1.47,0.58,0.91c-3.6,0.72-7.32,0.38-11.45,2.24c-1.5,0.21-2.23-0.53,0.33-1.25c-0.82,0.18-3.46,0.6-4.95,0.82
		c-7.57,2.53-5.7,3.04-13.75,5.56c1.81-0.27-1.66,1.35,2.93-0.04l3.62-1.76c2.49-0.3-3.95,1.78,0.13,1.08
		c-2.58,0.56-5.07,1.26-6.81,1.88c0.5-0.44-1.89-0.18-1.71-0.42c-2.97,0.99-0.73,0.98-4.46,1.73c-0.99-0.38,3.31-1.51,5.27-1.95
		c0.98-1.32-6.12,0.9-8.49,1.14c-0.58,0.83,0.87,1.01-2.44,2.55c-1.22-0.52-7.31,1.99-9.66,2.29c-1.56,0.95-3.01,1.79-0.45,1.14
		c-1.78,0.85-4.23,1.34-4,0.99c-1.15,0.65-3.41,1.41-5.57,2.14c-2.16,0.75-4.18,1.54-4.86,2.19c0.26-0.68-3.38,0.89-5.26,1.39
		c-1.22,1.45-4.24,2.66-7.23,3.88c-1.51,0.59-3.01,1.17-4.3,1.75c-1.29,0.57-2.38,1.09-3.02,1.59c0.14-0.38,2.04-1.33,2.21-1.7
		c-0.08-0.14-0.93,0.16-1.97,0.63c-1.03,0.48-2.23,1.16-3.05,1.71l0.41-0.28c-1.02,0.41-2.05,0.78-3.05,1.22l-1.11,1.33
		c-3.65,1.5,1.97-3.41-4.01-0.32c-6.2,4-1.52,2.47-4.32,5.01c-1.28,0.61-2.6,1.19-3.85,1.86c0.25,0.48-1.44,1.65-2.96,2.7
		c-1.48,1.09-2.79,2.03-1.84,1.94c-2.17,1.66-2.78,1.94-3.25,1.99c-0.47,0.06-0.77-0.05-2.2,1.03c-0.77,0.97-1.72,1.77-2.87,2.61
		c-0.57,0.43-1.18,0.87-1.8,1.39c-0.6,0.53-1.23,1.13-1.85,1.82c0.32-0.38,0.95-1.12,0.98-1.32c-3.01,2.59-4.58,4.9-6.11,6.9
		c-0.74,1.03-1.46,1.98-2.34,2.9c-0.89,0.91-1.83,1.86-3.14,2.79c0.27-0.81,2.1-2.67,1.59-2.66c-0.9,1.34-2.47,3.05-3.51,4.52
		c-1.05,1.46-1.73,2.57-1.09,2.52c-1.12,0.98-0.89,0.37-0.83,0.09c0.08-0.27-0.12-0.26-1.85,2.18c0.21-0.72,0.58-1.55,1.04-2.34
		c0.46-0.79,0.96-1.59,1.33-2.33c-0.25,0.01-1.07,0.94-1.82,1.87c-0.39,0.46-0.71,0.94-0.97,1.3c-0.25,0.36-0.41,0.6-0.41,0.6
		c0.46-0.9,1.18-2.21,0.92-2.36c-1.23,1.75-1.87,3.31-2.8,5.05c-0.4,1.27,1.24-0.58,1.97-1.48c-0.67,1.3-1.48,1.37-2.07,2.93
		l0.79,0.29c-2.12,3.63-2.21,1.53-4.46,6.8c0.37-0.9,0.12-0.85,0.28-1.52c-1.34,1.61-2.62,4.65-3.73,7.47
		c-1.02,2.86-1.92,5.47-2.53,6.39c0.72-4.63-1.98,4.02-1.8,1.12c-0.1,0.67-0.24,1.31-0.42,1.93c-0.16,0.63-0.32,1.25-0.52,1.84
		c-0.39,1.2-0.86,2.33-1.32,3.41c-0.82,2.18-1.53,4.15-1.38,5.89c-0.52,2.85-1.18,4.15-1.82,5.39c-0.62,1.24-1.14,2.43-1.41,5.01
		c-0.16,0.51-0.3,0.97-0.43,1.4c-0.29,2.1-0.54,4.23-0.74,6.41c0.65-1.75,1.32-3.47,2.02-5.15c0.18-0.74,0.48-1.72,0.84-2.76
		c0.51-1.52,1.16-3.12,1.79-4.12c-0.2,0.38-0.53,1.05-0.79,1.63c-0.23,0.59-0.39,1.07-0.27,1.03c0.64-1.27,1.35-2.5,2.06-3.73
		c0.2-0.41,0.4-0.84,0.61-1.25c-0.46,0.47-0.44,0-0.16-0.92c0.37-1.06,1.13-2.71,1.85-4.15c0.48,0,0.33,0.78,0.25,1.41
		c2.1-3.84,4.35-7.49,6.74-10.93c0.28-0.65,0.78-1.61,1.28-2.59c1.16-2.29,2.49-4.55,0.6-3.11c-3.2,4.21-0.29,2.52-2.87,5.25
		l1.27-3.87c-0.19,0.23-0.34,0.41-0.45,0.57l0.71-1.22c-0.39,0.45-1.09,1.04-1.87,1.88c-0.77,0.84-1.65,1.92-2.22,3.39
		c0.4-2.44,4.87-6.21,6.07-8.95c0.74,0.13,2.75-1.96,4.43-3.45c0.99-1.13,2.01-2.24,3.01-3.36c1.01-1.11,2.09-2.16,3.14-3.24
		c0.5,0.24-1.65,1.95-2.87,3.15c-0.43,1.43,2.38-0.56,5.92-3.91c-1.81,1.06,2.88-3.83,1.01-2.38c1.13-1.54,2.34-2.49,3.66-3.56
		c1.36-1.02,2.87-2.13,4.77-3.85c-3.26,1.62,1.73-1.96,0.27-1.64c1.79-1.35,4.81-2.69,5.18-3.67c1.08,0.07,1.74,0.48,1.38,1.45
		c4.54-2.31-0.06-1.34,5.19-3.82c-0.89,0.27-1.75,0.59-2.62,0.9c1.5-0.97,2.28-1.72,3.33-2.63c0.53-0.45,1.12-0.94,1.92-1.49
		c0.81-0.52,1.82-1.11,3.17-1.78c-0.16-0.28-1.51,0.11,0.22-1.03c-1.13,1.12,3.63-0.88,7.8-2.4c3.74-2.89,6.4-4.14,10.19-5.23
		c-1.95,0.64-4.93,1.92-4.8,2.23c4.03-1.56,8.1-3.04,12.21-4.33c-1.41,0.63-3.48,0.89-3.95,1.6c1.02,0.3,3.94-1.6,5.08-1.42
		c-1.06,0.6-4.87,1.98-2.68,1.57c3.68-0.8,9.94-2.78,14.08-4.26c-1.23,1.15-0.43,0.96-1.64,2.13c2.12-1.11,8.01-1.84,8.11-2.75
		c-1.65,0.36-3.28,0.75-4.92,1.16c0.74-0.5,0.22-1.11,3.16-1.87c-3.63,0.71-8.78,1.77-10.82,2.55c-0.19,0.08-0.36,0.15-0.52,0.22
		c0.14-0.07,0.32-0.14,0.52-0.22c1.5-0.63,3.93-1.53,5.45-1.64c1.86-0.87,0.08-0.64-1.5-0.38c-1.58,0.26-2.99,0.48-0.38-0.57
		c5.1-1.43,8.71-0.99,14.42-3.27c-0.54,0.63,0.22,0.92,1.8,1.06c3.72-1.15,12.24-2.48,18.19-3.48c-3.32,1.15-3.51,2.01-5.23,2.93
		c0.63-0.12,1.27-0.25,1.9-0.37c0.57-0.15,1.13-0.31,1.7-0.45c-0.15,0.07-0.29,0.15-0.43,0.22c12.85-2.38,25.82-4.2,38.55-5.87
		c0.23-0.08,0.44-0.15,0.63-0.23c-1.86,0-2.74-0.23-1.96-0.63c-2.83,0.22-9.13,1.28-10.19,0.88c7.8-1.1,3.15-1.62,9.25-2.83
		c-0.4-0.34-2.91-0.08-5.55,0.33c-1.29,0.52-0.22,0.92-3.16,1.62c-5.51-0.41-11.01,2.46-17.78,2.73c-0.8-0.67,3.92-1.04,3.82-1.66
		c6.98-1.14,12.2-2.61,16.62-3.66c5.63,1.37,14.02-1.63,23.84-1.39c7.26-1.24-3.91-0.18,2.17-1.37c-0.06,0.77,3.71,1.1,9.77-0.13
		l-5.24,1.13c-0.34-0.03-0.19-0.17-0.53-0.2c-3.18,0.2-4.9,1.14-4.85,1.45c2.11-0.59,6.08-1.19,8.76-1.29
		c0.2,0.17-1.62,0.49-1.57,0.8c2.98-0.37,6.99-0.69,7.88-1.56l-0.7-0.05l4.44-0.77c-1.07-0.38-2.81-0.81,1.25-1.62
		c7.25-1.09,11.12-2.13,17.85-3.82l-2.52,0.87c1.49-0.13,2.65-0.22,4.89-0.82c-0.95-0.49-1.6-1.24,3.76-2.76
		c4.09-0.44,12.72-2.99,18.35-5.25c0.71,0.53-0.75,1.55-2.4,2.47c-1.63,0.96-3.42,1.84-3.17,2.37c2.39-0.38,3.24-0.54,4.3-0.74
		c1.06-0.21,2.3-0.54,5.38-1.5c1.55-0.96,6.36-2.66,4.99-2.88c-2.91,1.02-4.22,2.16-7.01,3.14c-0.09-0.71,5.65-2.21,5.8-3.08
		c-1.01,0.24-2.02,0.48-3.05,0.67c2.13-1.01,2.18-1.47,2.41-1.85c0.21-0.42,0.61-0.72,3.15-1.84c1.56-0.41,3.1-0.96,4.66-1.47
		c1.59-0.96,1.8-1.4,1.54-1.49c-0.27-0.1-1.03,0.1-1.51,0.21c1.71-0.72,3.31-1.78,4.6-2.69c1.26-0.95,2.22-1.73,2.68-1.9
		c-2.05,1.2-2.26,1.77-2.1,2.04c1.23-0.6,2.23-1.22,3.11-1.89c0.86-0.69,1.62-1.39,2.4-2.08c0.8-0.68,1.55-1.44,2.51-2.14
		c0.97-0.69,2.04-1.45,3.43-2.2c-0.63,0.48-1.29,0.98-1.93,1.47c-0.66,0.48-1.34,0.93-1.95,1.39c-1.21,0.93-2.27,1.76-2.8,2.54
		c-0.91,1.22,5.4-2.69,0.49,0.97c1.75-0.88,3.41-1.9,5.11-2.89c0.76-0.87,3.12-3.31,0-1.02c2.68-2.31,6.32-5.69,6.13-6.55
		c0.07,0.41,0.83-0.06,1.95-0.99c0.55-0.47,1.15-1.09,1.8-1.74c0.32-0.33,0.66-0.68,1.01-1.03c0.32-0.37,0.65-0.74,0.98-1.12
		c1.07-1.41,1.62-3.58-0.74-0.41c1.08-1.56,2.03-3.2,2.99-4.82l-0.73,0.82c0.54-0.67,1.04-1.37,1.52-2.08
		c0.48-0.71,1.01-1.4,1.45-2.13c-0.03,0.53-1.04,1.93-1.82,3.16c-0.82,1.19-1.51,2.15-0.88,1.83c0.31-0.36,0.63-0.79,0.94-1.21
		c0.3-0.43,0.57-0.88,0.81-1.25c0.48-0.74,0.83-1.22,0.85-0.92c0.7-1.16,1.29-2.64,1.68-3.68c0.35-1.06,0.4-1.73-0.03-1.35
		c-0.79,1.16-1.2,2.37-1.64,2.64c1.06-2.7,1.59-3.48,2.35-4.31c0.38-0.41,0.75-0.87,1.18-1.61c0.44-0.74,0.97-1.75,1.46-3.35
		l-0.13,0.45c0.14,0.56,1.17-1.55,1.59-2.57c0.66-2.75-0.87,1.35-0.77,0.06c0.32-0.95,0.75-1.91,1.08-2.89
		c0.31-0.98,0.62-1.94,0.78-2.86c-0.8,2.04-0.89,1.85-1.66,2.57c0.4-1.68,0.82-2.94,1.16-4c0.37-1.06,0.76-1.9,1.1-2.72
		c0.72-1.63,1.41-3.15,1.71-6.04c-0.03-1.97,0.04-5.12-0.05-8.45c-0.11-3.33-0.35-6.83-0.57-9.5c0.47,2.4,0.52,3.97,0.6,5.64
		c0.03,1.66,0.07,3.42,0.13,6.22c0.65-1.25,0.78,4.92,1.26-1.24c-0.32-3.57-0.66-7.95-1.3-11.97
		C465.38,450.7,465.12,449.3,464.83,448z"/>
	<path class="st1" d="M537.79,278.11c0.69-0.92,1.48-1.9,1.87-2.87c-0.72,0.99-0.76,0.87-1.34,1.11c0.45-0.8,0.94-1.65,0.99-1.61
		c0.15-0.15,0.34-0.28,0.55-0.44c0.39-0.31,0.9-0.79,0.96-1.56c-0.08-0.09-0.01-0.31-0.35-0.28c-0.65-0.05-1.33-0.11-1.97-0.18
		c-1.53-0.18-3.08-0.35-4.3-0.49c1.52,0.01,2.46,0.13,3.45,0.27c0.63,0.09,0.67,0.11,0.93,0.15c0.23,0.03,0.49,0.07,0.85,0.09
		c-0.01-0.22,0.4-0.29,0.7-0.36c0.28-0.07,0.43-0.17-0.51-0.46c-0.3,0-0.62,0-0.96,0c-0.17,0-0.33-0.01-0.5-0.01
		c-0.3-0.02-0.6-0.05-0.91-0.07c-1.26-0.08-2.55-0.16-3.79-0.24c-2.54-0.14-4.98-0.31-6.46-0.31c0.32,0.5,1.49,0.47,2.57,0.43
		c1.08-0.04,2.06-0.08,2.13,0.48c-1.05-0.17-2.65-0.24-4.03-0.38c-1.38-0.14-2.53-0.34-2.6-0.59c0.03,0.19-1.05,0-2.22-0.23
		c-0.58-0.13-1.19-0.26-1.67-0.35c-0.46-0.08-0.82-0.12-0.97-0.05c0.99,0.17,1.19,0.26,1.18,0.34c-0.02,0.08-0.25,0.14-0.05,0.23
		c-0.44-0.11-2.51-0.85-2.77-0.73c-0.1-0.3,0.26-0.48,0.57-0.62c-1.66-0.53-2.2-0.09-4.56-0.86c0.89,0.05,0.14-0.27-0.82-0.65
		c-0.96-0.39-2.12-0.87-2.08-0.98c-1.33-0.23,0.17,1.07-2.6-0.16c0.91,0.19,2.09,0.49-0.34-0.81c0.2-0.38,1.7,0.32,3.2,0.9
		c1.5,0.57,2.95,1.04,2.83,0.72c-0.6-0.23-1.8-0.61-2.69-0.96c-0.88-0.38-1.46-0.67-0.82-0.65c-0.61-0.13-1.19-0.32-1.79-0.49
		c-0.57-0.44-1.11-0.88-1.71-1.26c-0.3-0.2-0.59-0.39-0.9-0.59c-0.37-0.23-0.75-0.47-1.13-0.71c-1.71-1.12-3.67-2.41-5.67-4.08
		c-1.51-1.14-2.51-1.71-2.79-1.69c-0.3,0.02,0.18,0.68,1.72,1.92c-3.75-2.73-2.11-1.19-5.74-4.28c0.65,0.41-0.19-0.47-0.46-0.83
		c-2.83-2.61-1.63-0.75-3.46-2.47c-0.55-0.5,0.44,0.1-0.79-1.07l-1.4-0.88l-0.72-0.46l-0.36-0.23c-0.06-0.03-0.09-0.04-0.13-0.06
		c0.6,0.13,1.03,0.27,1.2,0.36l0.06,0.03c0.03,0.02,0.06,0.04,0.09,0.07c0.27,0.2,0.57,0.42,0.87,0.64c0.57,0.43,1.17,0.89,1.7,1.29
		c-0.62-0.61-1.27-1.18-1.94-1.74c0.05-0.05,0.18-0.02,0.19-0.05l0.02-0.02c0.02,0.01-0.07-0.09-0.1-0.13
		c-0.08-0.11-0.16-0.21-0.23-0.31c-0.06-0.1-0.11-0.19-0.13-0.27c-0.04-0.09,0.06-0.08-0.15-0.38c0.15,0.11,0.29,0.22,0.41,0.33
		c0.06,0.05,0.1,0.09,0.14,0.14c0.07,0.09,0.11,0.16,0.15,0.23c0.08,0.14,0.17,0.25,0.56,0.34c-0.01-0.09-0.03-0.17-0.05-0.25
		l-0.03-0.12c-0.03-0.05,0.02-0.03-0.11-0.18c-0.36-0.43-0.71-0.83-1.05-1.19c-0.34-0.36-0.67-0.7-1-1.01
		c-0.25-0.23-0.49-0.45-0.71-0.66c-0.31-0.27-0.6-0.54-0.88-0.79c2.84,0.62,5.07,1.09,8.49,1.88c1,0.18,2.09,0.39,3.55,0.69
		c0.74,0.16,1.54,0.33,2.43,0.51c0.45,0.1,0.93,0.2,1.43,0.31c0.31,0.09,0.38,0.04,0.51,0.03c0.13-0.01,0.26-0.03,0.39-0.04
		l-0.51-0.01c-0.1-0.01-0.14,0.01-0.28-0.02l-0.49-0.13c-0.65-0.16-1.3-0.32-1.95-0.49c-1.29-0.31-2.56-0.6-3.82-0.88
		c-0.62-0.13-1.24-0.27-1.88-0.4c-1.05-0.26-2.13-0.52-3.22-0.79c-2.23-0.55-4.56-1.13-7.02-1.73c0.28,0.27,0.57,0.54,0.87,0.82
		l0.43,0.41l0.23,0.24c0.26,0.28,0.51,0.57,0.74,0.85c-0.5,0.1-0.86,0.28-1.08,0.55c-0.42-0.47-0.84-1.07-1.32-1.66
		c-0.24-0.3-0.51-0.59-0.84-0.9c-0.64-0.58-1.3-1.13-2.01-1.63c0.32,0.05,0.48,0.06,0.49,0.01l-1.29-0.37l0.91,0.97l0.23,0.25
		l0.11,0.12l0.04,0.06l0.17,0.23l0.74,0.97c-0.41-0.36-0.81-0.74-1.19-1.12l-0.28-0.29l-0.15-0.15l-0.31-0.29
		c-0.4-0.38-0.81-0.78-1.23-1.18c2.63,0.73,5.41,1.5,8.28,2.29c1.4,0.38,2.81,0.77,4.25,1.17c0.89,0.23,1.78,0.46,2.68,0.7
		c1.61,0.4,3.24,0.8,4.86,1.21l2.38,0.56l1.06-0.15l2.72,0.1l0.65,0.02l0.32,0.01l0.25-0.02l0.97-0.09
		c-0.08,0.16-0.39,0.32-0.84,0.47c-0.51,0.13-1.33,0.17-2.15,0.25c-0.42,0.04-0.85,0.07-1.29,0.11l-0.65,0.06
		c-0.07,0-0.08,0.03-0.19,0l-0.33-0.07l-0.65-0.14c-1.73-0.38-3.34-0.72-4.5-0.9c2.26,0.56,2.42,0.64,1.72,0.54
		c-0.37-0.06-0.92-0.15-1.55-0.25c-0.32-0.05-0.65-0.11-0.99-0.17l-0.25-0.04l-0.41-0.09c-0.3-0.07-0.59-0.13-0.88-0.2
		c-2.31-0.51-4.18-0.9-4.1-0.81c0.03,0.04,0.54,0.2,1.67,0.51c0.54,0.14,1.26,0.33,2.18,0.58c0.44,0.11,0.93,0.24,1.47,0.38
		c0.26,0.07,0.54,0.14,0.83,0.21c0.14,0.04,0.29,0.07,0.44,0.11c0.1,0.02,0.2,0.04,0.3,0.07c1.61,0.32,3.17,0.63,4.69,0.92
		c0.38,0.08,0.76,0.15,1.13,0.22c0.16,0.02,0.42,0.1,0.5,0.08l0.3-0.03c0.39-0.04,0.77-0.08,1.15-0.12
		c0.74-0.08,1.45-0.16,2.09-0.26c0.52-0.16,1-0.33,1.44-0.52l-0.97,0.18c-0.33,0.06-0.62,0.14-1.07,0.14
		c0.52-0.02,0.8-0.16,1.18-0.24c0.35-0.1,0.7-0.19,1.04-0.28c0.34-0.09,0.67-0.19,1-0.28l0.24-0.07l0.16-0.06l0.32-0.12
		c0.84-0.31,1.61-0.61,2.38-0.95c1.53-0.65,2.99-1.32,4.81-2c1.2-0.76-1.56,0.08-1.96,0.12c-1.4,0.47-4.08,1.82-4.21,1.4
		c2.76-1.05,6.71-2.3,8.18-3.12c0.01,0.03,0.07,0.04,0.29-0.02l1.36-0.67l-0.34,0.24c1.46-0.48,3.85-1.14,5.11-1.74
		c-0.54,0.07-1.07,0.15-1.59,0.24c1.67-0.57,3.52-1.23,5.36-1.74c1.54-0.38,3.07-0.35,4.33-0.08c1.23,0.3,2.07,0.72,2.61,1.12
		c1.25,0.65,1.88,0.98,2.59,1.35c0.68,0.35,1.41,0.75,2.59,1.77c0.3,1.06-1.04-0.16-3.1-1.42c-1.04-0.62-2.3-1.24-3.53-1.53
		c-1.22-0.3-2.34-0.24-2.65-0.05c2.09,0.12,3.78,0.85,5.18,1.64c1.4,0.8,2.56,1.7,3.61,2.62c1.04,0.92,1.98,1.85,2.82,2.78
		c0.42,0.47,0.82,0.93,1.2,1.39l0.28,0.35c0-0.02,0.04,0.03,0.06,0.04l0.14,0.12c-0.05-0.18,0.08-0.17,0.19-0.21
		c0.12-0.03,0.22-0.13,0.27-0.33c-0.07,0.16,0.02,0.29,0.08,0.38c0.06,0.09,0.11,0.16,0.08,0.35c-0.15-0.03-0.4-0.04-0.72-0.15
		c-0.09-0.03-0.17-0.06-0.25-0.08l-0.03-0.01c-0.02-0.01,0.01,0.04-0.03-0.01l-0.15-0.15c-0.1-0.1-0.2-0.19-0.29-0.28
		c-0.37-0.35-0.7-0.63-0.92-0.83c0.41,0.58,0.69,1.02,0.89,1.35c0.13,0.21,0.12,0.21,0.13,0.26c0.01,0.05,0.02,0.08,0.03,0.12
		c0.02,0.13-0.02,0.16-0.07,0.19c-0.09,0.06-0.17,0.06,0.44,1.16c0.2,0.3,0.2,0.04,0.25-0.13c0.05-0.18,0.13-0.29,0.39,0.13
		c-0.01-0.06-0.01-0.32-0.03-0.53c-0.03-0.22-0.07-0.39-0.26-0.42c0.01-0.43,0.24-0.25,0.41-0.17c0.19,0.09,0.31,0.07,0.33-0.47
		c0.09,0.27,0.18,0.62,0.29,1.15c0.02,0.1,0.05,0.28,0.07,0.33c0.02,0.06,0.05,0.12,0.07,0.17c0.05,0.13,0.1,0.28,0.15,0.48
		c0.07-0.61,0-0.84-0.08-1.06c-0.08-0.21-0.15-0.39-0.17-0.62c0.08-0.78,0.06-1.28-0.07-1.51c0.1,0.1,0.17,0.1,0.21,0.07l0.01-0.02
		l0.01-0.01l0.07-0.15c0.1-0.22,0.2-0.45,0.31-0.68c0.21-0.47,0.44-0.98,0.67-1.5c0.96-2.09,2.06-4.43,3.58-6.37
		c-0.54,1.3-1.06,2.41-1.67,3.58c-0.59,1.17-1.24,2.38-1.85,3.76c0.2-0.59,0.64-1.66,0.14-0.85c-0.34,0.77-0.55,1.47-0.79,2.14
		l-0.08,0.23l0,0.04c0,0.03-0.01,0.05-0.02,0.07c-0.02,0.04-0.07,0.07-0.14,0.07c0.11,0.12,0.23,0.25,0.33,0.38
		c-0.18,0.29-0.24,0-0.33-0.19c-0.08-0.2-0.19-0.32-0.27-0.2c0.01,0.32,0.36,1.46,0.29,2.3c0.24-0.14,0.3-0.55,0.56-0.92
		c-0.09-0.36-0.11-0.79-0.07-1.11c0.01-0.08,0.03-0.16,0.05-0.23c-0.02,0.03,0.1-0.25,0.16-0.39l0.23-0.51
		c0.32-0.67,0.67-1.34,1.05-1.94c-0.48,0.93-0.96,2.11-1.18,2.82c-0.04,0.12-0.02,0.1-0.02,0.13c0.01,0.02,0.01,0.05,0.01,0.06
		c0.01,0.04,0.03,0.07,0.06,0.09c0.03,0.02,0.06,0.02,0.1,0.01c0.02-0.01,0.05-0.02,0.07-0.04c0.02-0.02,0.05-0.02,0.13-0.16
		c0.87-2.16,1.78-4.31,2.9-6.52c-0.44,1.06-2.67,5.5-1.25,3.41c0.79-1.96,2.25-3.85,3.01-5.86c1.81-2.96-1.8,0.81-0.42-1.32
		c-0.05,0.12,0.06-0.04,0.45-0.5c0.09-0.11,0.2-0.23,0.31-0.36c0.14-0.15,0.32-0.33,0.5-0.5c0.09-0.09,0.19-0.18,0.29-0.27
		c0.15-0.12,0.3-0.24,0.47-0.36c0.16-0.12,0.33-0.23,0.5-0.35c0.25-0.15,0.59-0.31,0.9-0.44c0.62-0.27,1.37-0.41,2.08-0.44
		c0.33,0,0.66,0.01,0.99,0.05c0.31,0.04,0.56,0.1,0.83,0.16c0.29,0.07,0.5,0.15,0.7,0.22c0.2,0.08,0.43,0.17,0.6,0.25
		c0.34,0.18,0.6,0.29,0.95,0.53c0.07-0.01,0.11-0.03,0.15-0.08c-0.02,0.21-0.11,0.61,0.13,0.86c0.13-0.09,0.01-0.68,0.03-0.77
		c0.01,0.21,0.05,0.34,0.08,0.41c0.03,0.07,0.05,0.07,0.06,0.02c0.01-0.05,0-0.3-0.01-0.39c-0.01-0.23-0.03-0.21,0.22,0.11
		c-0.24-0.31-0.13-0.37-0.22-0.49c0.16,0.18,0.35,0.27,0.55,0.25c0.19,0.02,0.41-0.06,0.45,0.59c-0.12-0.07-0.22-0.09-0.31-0.31
		c-0.05,0.19,0.04,0.64,0.14,0.89c0.39-0.18,0.93-0.8,1.31-1.14c0.05,0.68-0.43,0.72-0.65,0.93c-0.11,0.66,0.01,0.75,0.22,0.66
		c0.21-0.08,0.49-0.42,0.57-0.11c0.11-0.17,0.21-0.44,0.31-0.73c0.05-0.15,0.09-0.3,0.14-0.46c0.05-0.14,0.08-0.32,0.14-0.6
		c0.21-0.92,0.27-1.72,0.44-1.54c-0.41-2.4-1.12-2.79-1.47-1.6c-0.26-1.28-0.71-3.08-1.22-4.66c-0.52-1.58-1.11-2.92-1.43-3.52
		c-0.16-0.95-0.67-2.23-1.18-3.22c-0.49-1.01-0.96-1.71-0.83-1.99c0.65,0.79,1.22,1.56,1.85,2.62c-0.19-0.91-0.75-1.81-1.35-2.51
		c-0.59-0.72-1.28-1.14-1.69-1.39c-0.23-0.5-0.22-0.98-1.29-1.5c-0.11,0.59-1.12-0.1-2.93-0.33c-1.66-0.17-2.46-0.31-3.15-0.42
		c-0.17-0.03-0.34-0.05-0.51-0.07c-0.09-0.01-0.17-0.02-0.28-0.02c-0.12,0.01-0.25,0.02-0.39,0.03c-0.55,0.06-1.22,0.2-2.19,0.48
		l0.92,0.2c-5.27,0.71-4.66,0.58-10.48,1.12l-0.73,0.56c-1.88-0.17-3.33,0.63-5.58,0.69c0.71-0.23,0.69-0.44,1.4-0.67
		c-1.1,0.17-2.23,0.3-3.38,0.41c0.73-0.22,1.01-0.67-1.45-0.54c1.4-0.28,4.67-1.3,1.63-1c0.22,0.14-0.27,0.3-1.05,0.45
		c-0.8,0.12-1.9,0.21-2.87,0.22c1.18-0.18,0.83-0.28,0.03-0.35c-0.8-0.1-2.04-0.17-2.63-0.28c-1.72,0.13,0.65,0.2,1.19,0.4
		c-1.23,0.09-2.46,0.03-3.7,0.03c0.77-0.1,0.2-0.16-0.58-0.3c-0.78-0.13-1.8-0.29-1.94-0.39c-1.3,0.15-4.09,0.39-1.93,1.21
		l1.04-0.34c0.93,0.34,1.9,0.63,2.86,0.95c-3.17-0.13-5.88-0.81-8.67-1.62c-2.76-0.86-5.62-1.88-9.06-3.02
		c-0.93-0.46-0.67-0.6-0.74-0.77c-0.04-0.09-0.16-0.18-0.56-0.32c-0.39-0.14-1.11-0.36-2.14-0.6c-0.67-0.06-1.68,0.02-0.04,0.71
		c-0.96-0.36-1.84-0.92-2.81-1.38c-0.98-0.41-2.04-0.8-3.3-0.85c-0.79-0.27-0.95-0.93,0.52-0.65c-0.45-0.12-1.88-0.58-2.68-0.87
		c-1.12-0.14-1.9-0.1-2.52-0.09c-0.62,0.02-1.07,0.07-1.53,0.16c-0.92,0.17-1.86,0.22-4.15,0.3c0.98,0.18-1.06,0.54,1.52,0.54
		c0.71-0.16,1.44-0.22,2.17-0.33c1.31,0.36-2.34,0.24-0.15,0.71c-1.4-0.26-2.79-0.25-3.78-0.2c0.32-0.2-0.95-0.47-0.83-0.57
		c-1.69,0.17-0.5,0.48-2.56,0.4c-0.25-0.18,0.23-0.35,0.92-0.39c0.68-0.04,1.56-0.03,2.1-0.02c0.71-0.69-3.36-0.44-4.7-0.57
		c-0.38,0.46,0.38,0.75-1.53,1.37c-0.63-0.55-4.19,0.57-5.56,0.58c-0.94,0.54-1.8,0.97-0.29,0.73c-1.06,0.43-2.52,0.58-2.38,0.37
		c-1.35,0.71-5.59,1.4-6.5,2.17c0.1-0.21-0.44-0.13-1.17,0.02c-0.36,0.08-0.77,0.17-1.16,0.25c-0.41,0.08-0.89,0.16-1.23,0.19
		c-1.09,0.88-3.51,1.16-5.81,1.12c-2.29-0.09-4.46-0.46-5.55-0.42c0.22-0.13,1.65-0.01,1.88-0.18c-0.01-0.19-2.38-0.49-3.67-0.56
		l0.33,0.02l-2.08-0.59l-1.11,0.19c-2.4-0.85,2.37-0.83-1.75-1.93c-4.53-0.99-1.79,0.48-4.21,0.29l-2.47-1.13
		c-0.3,0.68-4.95-1.6-4.17-0.67c-3.3-1.05-1.36-1.08-3.44-1.89c-0.76-0.06-1.46-0.36-2.24-0.72c-0.03-0.06-0.05-0.13-0.08-0.19
		c0.01,0.05,0.02,0.11,0.04,0.17c-0.21-0.1-0.43-0.2-0.65-0.3c-0.7-0.64-1.48-1.28-0.92-0.38c-0.39-0.15-0.8-0.3-1.26-0.42
		c0.3,0.07,0.89,0.21,1.01,0.17c-4.55-1.87-6.77-1.26-9.96-3.61c0.53-0.02,1.98,0.69,1.87,0.38c-1.92-0.54-5.27-2.11-5.01-1.33
		c-1.54-1,1.65,0.09-1.76-1.27c0.93,0,2.15,0.42,3.15,0.58c-0.1-0.32-2.72-1.28-2.72-1.28c0.6,0.14,1.48,0.34,1.53,0.14
		c-1.22-0.42-2.22-0.59-3.39-0.84c-0.82-0.04,0.51,0.68,1.15,0.98c-0.87-0.2-1.03-0.66-2.03-0.81l-0.08,0.56
		c-2.44-0.82-1.19-1.12-4.59-1.9c0.58,0.11,0.53-0.04,0.95-0.02c-2.22-1.27-7.68-1.97-8.81-2.7c2.82,0.17-2.5-1.04-0.74-1.11
		c-3.23-0.14-5.82-2.16-7.93-1.8c-1.7-0.33-2.49-0.71-3.22-1.11c-0.74-0.4-1.44-0.76-2.98-0.91c-0.31-0.09-0.59-0.19-0.85-0.28
		c-0.74-0.11-1.49-0.21-2.23-0.31c-1.95-0.31-3.81-0.48-5.59-0.23c-8.63-1.53-17.64-2.3-26.56-2.22c-2.75,0.09-5.48,0.1-8.2,0.28
		c-2.71,0.23-5.4,0.46-8.06,0.69c-2.65,0.37-5.27,0.74-7.85,1.11c-1.29,0.16-2.56,0.43-3.82,0.68c-1.26,0.25-2.51,0.5-3.75,0.75
		c0.42-0.13,0.54-0.31,0.54-0.31c-1.57,0.33-4.47,0.63-3.8,1.16c0.32,0.05,0.32,0.05,1.04-0.02c-3.83,0.8-8.88,2.83-7.59,3.38
		c-1.36-0.18-2.22,0.16-3.02,0.5c-0.8,0.36-1.55,0.75-2.75,0.63c-2.01,0.21,2.32-0.79,2.23-1.2c-1.6-0.25-3.61,0.37-5.59,1.11
		c-1,0.36-1.97,0.79-2.89,1.18c-0.92,0.38-1.79,0.7-2.56,0.86c0.27-0.58,5.55-2.51,1.24-1.94c-2.06,1.98-7.53,3.89-13.05,6.37
		c-2.8,1.15-5.54,2.59-8.01,3.9c-1.2,0.72-2.31,1.44-3.29,2.14c-0.99,0.69-1.85,1.37-2.49,2.09l-2.01,0.36
		c-0.69,0.56-1.46,1.08-2.21,1.66c-0.75,0.59-1.53,1.17-2.35,1.76c-1.67,1.12-3.29,2.46-5.05,3.73c-3.38,2.69-6.95,5.6-9.81,9.06
		c-1.34,1.16-2.46,2.51-3.71,3.77c-1.2,1.29-2.28,2.69-3.43,4.04l-0.28-1c-0.02,0.81-0.35,1.97-1.01,3.26
		c-0.68,1.28-1.46,2.83-2.35,4.44c-0.47,0.79-0.87,1.66-1.28,2.53c-0.41,0.87-0.85,1.72-1.21,2.6c-0.34,0.89-0.67,1.76-0.95,2.6
		c-0.14,0.42-0.28,0.84-0.4,1.24c-0.1,0.41-0.18,0.82-0.26,1.21c-1.3,3.66-2.37,8.45-3.32,12.81c-0.22,1.1-0.45,2.16-0.69,3.18
		c-0.19,1.03-0.39,2.01-0.61,2.91c-0.47,1.8-0.82,3.35-1.34,4.39c-0.02-1.47,0.01-2.35,0.09-2.93c0.1-0.58,0.22-0.85,0.35-1.12
		c0.27-0.53,0.54-1.02,0.8-3.76l-1.25-0.6c0.58,2.32-0.86,3.56-1.23,5.23c0.37,1.17,0.36,3.1,0.38,5.05
		c0.11,1.96,0.19,3.93,0.74,5.12c-0.09,0.28-0.26,0.13-0.33-0.3l0.43,2.53l-0.35,0.43c0.12,2.11,0.58,3.64,0.94,5.11
		c0.36,1.47,0.81,2.87,1.06,4.74l-1.39-2.69l0.45,2.37l-0.18-0.12c0.27,1.75,0.91,2.84,1.52,4.24c0.3,0.7,0.59,1.47,0.83,2.43
		c0.25,0.96,0.49,2.12,0.63,3.59l-0.42,0.07c0.22,1.01,0.45,2.02,0.72,3.02c-0.45,0.09-0.95-4.14-1.46-3.48
		c1.08,2.41,2.22,9.14,2.91,10.15c-0.7,0.1-0.14,2.43,0.49,4.43c0.68,2.09,1.6,4.25,1.14,5.05c-0.99-1.99-0.94-1.57-0.74-0.65
		c0.17,0.92,0.64,2.28,0.23,2.17c0.28,0.5,0.52,1.01,0.78,1.5c0.27,0.49,0.52,0.97,0.77,1.42c0.48,0.92,1.03,1.69,1.62,2.21
		c0.97,0.99,0.98,0.51,0.67-0.36c-0.16-0.43-0.4-0.96-0.65-1.46c-0.22-0.51-0.46-0.98-0.64-1.3c2.25,2.66,4.74,6.47,8.36,10.51
		c1.8,2.81,4.29,5.79,7.17,8.52c2.86,2.74,5.95,5.36,8.81,7.67c-0.2,0.05-0.94-0.35-1.36-0.26c1.33,1.12,2.29,1.69,3.26,2.21
		c1,0.5,2,0.95,3.4,1.88c-0.11,0.76,1.98,2.46,4.39,4.16c2.47,1.62,5.27,3.22,6.6,3.75c1.81,0.83-0.19-0.82,1.62,0.02l0.39,1.64
		c0.81,0.34,3.46,1.39,3.66,1.01l0.21,0.22c0.71,0.02,2.04,0.69,3.14,1.2c1.11,0.49,1.99,0.79,1.76,0.14
		c3.58,2.07,9.26,4.39,13.96,5.98c0.41,0.13,0.86,0.27,1.41,0.47c-0.46-0.15-0.93-0.31-1.41-0.47c-3.7-1.14-2.29,0.18-7.65-2.35
		c0.42,0.11,0.2-0.09,0.62,0.03c-2.37-1.68-1.85-0.06-3.33-0.95c3.22,2.24,7.61,3.32,11.55,5.41c2.53,0.76,5.14,1.36,7.69,2.05
		c-0.45,1.19-5.12-1.13-4.02,0.83c2.61,0.87,2.75,1.43,3.23,2.06c0.48,0.63,1.31,1.32,5.36,2.32c0.33-0.5,0.37-1.49-1.64-2.31
		c-1.24-1.24,3.77,0.17,5.48,0.5c8.56,3.57,19.6,5.05,30.32,8.01c-0.43-0.05-1.31-0.14-1.49-0.02c1.83,0.44,3.62,0.87,5.38,1.3
		l-1.12-32.46c-0.19-0.07-0.36-0.13-0.56-0.2c-0.59-0.67,0-0.97-2.59-1.86c-5.21-1.09-10.32-2.65-14.97-4.6
		c-2.55-1.01,2.2,0.21-0.15-0.9c-2.5-0.06-4.82-1.1-7.14-2.14c-2.31-1.11-4.62-2.21-7.16-2.63c-1.45-1.29-4.17-2.74-7.32-4.11
		c1.31,0.17,4.26,1.01,6.02,1.26c1.79,0.21,2.37-0.08-0.92-2.22c1.25,0.93,2.44,0.9,3.84,1.07c1.4,0.17,3.02,0.5,5.25,2.03
		l-1.48-1.56c-3.79-1.81-5.25-1.2-9.27-3.69l1.75,0.57c-1.56-0.62-4.26-3.64-6.36-3.21c-0.86,0.14-0.35,0.8-0.33,1.14
		c0.02,0.33-0.47,0.38-3.3-0.88l1.05-0.64c-1.96-1.49-3.46-1.68-4.97-2.47c1.92,0.44,8.4,3.5,5.78,0.99
		c-2.04-0.83-4.38-2.21-6.31-3.21c-1.91-1.05-3.45-1.72-3.91-1.17c2.75,1.73,0.41,0.82-0.68,0.76c0.01-0.31-0.19-0.57-1.43-1.51
		c-1.7-0.86,0.16,0.87-1.53,0.01c1.91,2.64,4.94,4.35,7.98,5.8c1.52,0.76,3.04,1.45,4.46,2.23c1.41,0.81,2.72,1.65,3.81,2.75
		l-1.34-0.77c-0.2,0.38-1.72,0.27-0.38,1.05c-1.93-0.67-3.82-1.47-5.75-2.21l0.19-0.68c-3.54-1.72-8.47-5.5-10.48-5.48
		c-0.4-0.54,1.35-0.49-2.89-3.18c0.15,0.88-2.94-0.17-6.01-3.09c-0.74-0.86-1.56-1.68-2.4-2.48c-0.85-0.78-1.72-1.54-2.54-2.33
		c-0.83-0.77-1.62-1.53-2.28-2.35c-0.66-0.81-1.24-1.59-1.58-2.45c0.9,1.09,2.79,3.09,4.6,4.56c1.79,1.51,3.48,2.48,3.79,2.03
		c-3.92-3.67-7.47-6.9-10.63-10.67c-3.14-3.74-5.89-8.15-7.3-13.86c0.04-0.61,0.12-1.24,0.18-1.84c-0.9-2.45-1.57-5.04-1.99-7.69
		c0.14-2.94,0.69-1.37,1.19-0.22c0.53,1.16,0.92,1.92,1-2.16c-0.2-1.67-0.41-2.19-0.67-2.46c-0.26-0.27-0.58-0.27-0.9-0.96
		c-0.06-1.73,0.24-4.68,1.68-9.14c-0.11,0.55-0.17,1.12-0.24,1.68c0.27,0.16,0.63-1,1.16-2.35c0.24-0.69,0.54-1.41,0.85-2.06
		c0.3-0.65,0.59-1.23,0.89-1.6c-0.01-0.49-0.48-0.15-0.99,0.52c-0.49,0.67-1.06,1.65-1.26,2.37c-0.16-2.79,1-5.43,2.64-8.07
		c1.65-2.66,3.75-5.31,5.75-8.63l0.03,0.24c2.13-3.92,4.62-5.18,6.24-8.17c0.46,0.09-0.18,0.92-1.01,1.88
		c-0.81,0.98-1.8,2.13-2.07,2.81l-0.01-0.24c-0.69,1-1.33,2.05-1.97,3.08c2.27-2.64,5.53-4.96,9.09-8.23
		c0.68-1.08,1.4-2.14,2.15-3.19c-1.49,0.86-2.11,1.53-2.57,2.22c-0.47,0.68-0.83,1.35-1.78,2.31c0.68-1.62,1.53-2.66,2.61-3.79
		c1.08-1.14,2.39-2.35,4.16-4.31c1.53-0.56,3.66-1.7,5.98-2.87c2.31-1.17,4.83-2.35,6.97-3.17c-1.23,0.39-1.7,0.33-1.47-0.03
		c0.12-0.17,0.42-0.42,0.91-0.7c0.25-0.14,0.55-0.29,0.9-0.44c0.35-0.16,0.75-0.32,1.08-0.43c1.19-0.07,1.42,0.1,1.12,0.39
		c-0.32,0.31-1.02,0.67-2.18,1.26c-2.16,1.11-4.44,2.54-3.19,2.71c0.78-0.37,1.76-0.81,2.81-1.27c0.53-0.23,1.07-0.46,1.6-0.69
		c0.46-0.2,0.91-0.4,1.34-0.59c1.65-0.77,2.88-1.54,2.61-2.03c-2.38,0.53,2.63-1.96-0.7-1.37c2.77-0.77,4.57-0.42,7.09-1.95
		c0.46,0.39,1.33,0.55-0.06,1.62c5.4-2.16,5.13-4.42,10.46-5.8l-0.52,0.4c0.79-0.35,1.6-0.67,2.42-0.96
		c0.82-0.27,1.66-0.51,2.49-0.72c1.67-0.42,3.3-0.81,4.86-1.07c3.14-0.49,5.87-0.96,7.7-1.49l0.36,1.06
		c1.24-0.25,2.8-0.47,4.03-0.71c0.46-0.14-0.2-0.23-0.52-0.27c2.47-0.53,3.55-0.51,4.48-0.5c0.94,0.04,1.75,0.18,3.72,0.22
		l-5.15,0.53c-0.52,0.35,0.46,0.53,1.42,0.44c-0.86,0.18-1.76,0.29-2.68,0.4c-0.93,0.12-1.88,0.24-2.85,0.37
		c-1.94,0.26-3.98,0.49-5.94,1.19c0.36,0.53,2.32,0.38,4.74,0.14c1.21-0.13,2.53-0.32,3.82-0.52c1.29-0.19,2.55-0.3,3.63-0.42
		c-0.64-0.62,0.38-0.65,1.8-0.67c0.71-0.01,1.52-0.03,2.29-0.12c0.76-0.07,1.48-0.2,1.99-0.5c0.5,0.32-0.15,0.79-1.38,1.23
		c-1.23,0.47-3.03,0.98-4.85,1.26c1.47-0.02,3.39-0.24,5.39-0.44c2-0.19,4.09-0.48,5.91-0.89c3.44-1,7.09-2.01,8.01-3.05
		c4.94-0.21,3.7,0.32,6.94,0.28c-0.31,0.75-2.47,0.05-5.53,0.33c-2.47,0.57,0.64,1.01,0.94,1.57c1.82-0.46,3.29-0.2,4.96,0.19
		c0.84,0.2,1.73,0.42,2.75,0.61c1.02,0.21,2.17,0.41,3.53,0.49c0.57-0.17,1.04-0.37,1.49-0.58c0.12,0.18,0.25,0.35,0.38,0.52
		c-3.06,0.19-5.49-0.08-9.29,0.23l2.11,0.7c-1.74-0.47-3.79-0.29-5.92-0.12c-2.14,0.18-4.36,0.5-6.5,0.08
		c-2.8,0.11-4.79,0.58-5.89,1.04c-1.1,0.47-1.31,0.98-0.59,1.46c1.25-0.42,2.82-0.7,4.35-0.92c1.53-0.19,3.03-0.39,4.15-0.81
		c1.39,1.03-0.42,0.93-0.23,2.03c2.68-0.5,4.23-0.11,5.61,0.28c1.39,0.36,2.6,0.61,4.69-0.17c-2.98-0.57-3.43-0.51-6.59-1.34
		c2.16-0.45,4.68-0.83,7.47-1.07c2.44-0.21,5.07-0.15,7.85,0.02c0.04,0.04,0.08,0.08,0.12,0.11c-2.12,0.07-3.96,0.11-4.49,0.64
		c1.28-0.05,3.22-0.04,5.28,0.02c1.2,0.91,2.68,1.6,4.61,1.99c3.7,0.74,5.16,1.61,7.95,1.95c-0.08,0.17-0.21,0.33-0.46,0.44
		c1.14,0.47,1.32,0.32,1.51,0.19c0.19-0.13,0.42-0.24,2.01,0.39l-1.44-0.78c2.03,0.52,2.59-0.11,5.95,0.9
		c0.02-0.08-0.08-0.19-0.13-0.28c0.2,0.03,0.4,0.06,0.61,0.1c0.37,0.25,1.4,0.67,2.58,1.12l0,0.4c0.58,0.08,1.18,0.17,1.77,0.25
		c0.01,0,0.02,0.01,0.03,0.01c0.02,0,0.03,0,0.05,0c0.39,0.06,0.78,0.11,1.17,0.17c-0.03-0.05-0.07-0.09-0.11-0.14
		c2.15,0.1,3.66,0.45,5.51,1.2c-1.13-0.41-2.99-0.86-3.04-0.65c1.85,0.55,3.69,1.13,5.54,1.71c-0.28-0.08-0.52-0.11-0.69-0.04
		c0.36,0.57,2.45,0.58,2.92,1.1c-0.72-0.06-3.04-0.69-1.85-0.12c2.03,0.93,5.77,2.06,8.31,2.68c-1.01,0.22-0.55,0.39-1.55,0.61
		c1.42,0.13,4.57,1.75,4.95,1.27c-0.94-0.35-1.88-0.72-2.82-1.05c0.54-0.03,0.5-0.55,2.21,0.05c-2.23-0.93-5.49-2.31-6.51-2.42
		c0.89,0.16,2.68,0.53,3.56,1.07c2.44,0.29-3.84-1.87-0.58-1.19c2.98,0.98,4.6,2.47,8.22,3.13c-0.49,0.17-0.21,0.6,0.52,1.21
		c1.13,0.29,2.85,1.01,4.73,1.78c1.86,0.83,3.86,1.72,5.5,2.49c-2.03-0.53-2.45-0.11-3.6-0.17c0.35,0.14,0.7,0.29,1.04,0.44
		c0.33,0.11,0.67,0.22,1,0.34c-0.09-0.01-0.18-0.02-0.27-0.03c2.18,0.94,4.3,1.93,6.33,2.96c3.14,4.43,6.81,8.34,10.83,11.82
		c0.19,0.11,0.37,0.21,0.52,0.28c-0.71-0.85-0.93-1.36-0.44-1.18c-0.59-0.59-1.61-1.49-2.51-2.32c-0.83-0.89-1.53-1.73-1.61-2.07
		c0.8,0.84,1.31,1.31,1.68,1.59c0.37,0.27,0.62,0.32,0.83,0.37c0.43,0.08,0.79,0.05,2.21,1.15c0.03-0.33-1.04-1.32-2.19-2.34
		c-0.69-0.4-0.54,0.28-1.88-0.86c-0.4-0.71-0.9-1.33-1.47-1.91c-0.28-0.29-0.59-0.58-0.9-0.86c-0.29-0.3-0.58-0.61-0.88-0.92
		c-0.6-0.62-1.22-1.26-1.82-1.96l-0.44-0.54c-0.19-0.24-0.37-0.49-0.56-0.73l-0.27-0.37c-0.1-0.11-0.15-0.28-0.31-0.33
		c-0.27-0.15-0.53-0.31-0.8-0.48c-0.05-0.17,0.1-0.19,0.37-0.12c0.13,0.03,0.3,0.09,0.49,0.16c0.19,0.07,0.4,0.13,0.52,0.32
		c0.29,0.32,0.58,0.66,0.85,0.93c0.29,0.3,0.38,0.32,0.49,0.28c0.63,0.79,1.25,1.52,1.84,2.19c0.3,0.33,0.59,0.65,0.88,0.97
		c0.3,0.3,0.62,0.56,0.92,0.83c1.23,1.03,2.32,1.94,3.31,2.77c0.61,1.57,2.15,2.93,3.9,4.49c0.93,0.73,1.95,1.45,2.96,2.29
		c0.51,0.41,1.02,0.85,1.53,1.32c0.52,0.45,1.07,0.89,1.59,1.38c3.7,2.19-1.63-1.61,1.53,0.14c-0.34,0.35,1.11,2.09,4.44,3.6
		l-2.87-1.31c-0.14-0.15-0.01-0.16-0.15-0.31c-1.48-1.14-2.63-1.33-2.75-1.16c1.18,0.53,3.17,1.8,4.47,2.68
		c0.02,0.16-0.95-0.33-1.05-0.15c1.54,0.89,3.53,2.21,4.28,2.07l-0.31-0.29c0.78,0.42,1.61,0.75,2.41,1.13
		c-0.37-0.58-1.04-1.42,1.2-0.46c0.97,0.48,1.82,0.9,2.64,1.26c0.83,0.33,1.6,0.62,2.37,0.9c1.54,0.57,3.06,1.11,5.04,1.69
		l-1.55-0.32c0.79,0.42,1.4,0.72,2.72,1.13c-0.3-0.59-0.37-1.24,2.8-0.31c1.1,0.52,2.95,1.15,4.96,1.78
		c2.04,0.55,4.23,1.13,6.05,1.54c0.32,1.15-4.35-0.02-4.47,0.73c2.65,1.17,1.87,1.03,5.56,2.2c1.1,0.03,4.04,1,3.47,0.34
		c-1.78-0.58-2.83-0.47-4.55-0.93c0.22-0.47,3.55,0.87,3.95,0.5l-1.72-0.82c2.82,0.47,0.77-0.71,4.1,0.18l2.77,1.17
		c2.25,0.29,1.08-0.39,0.53-0.65c2.17,0.69,4.69,0.65,5.24,0.9c-1.44-0.33-1.77-0.16-1.81,0.05c1.6,0.55,2.86,0.52,4.16,0.6
		c1.3,0.07,2.65,0.2,4.49,0.92c-1.95-0.38-4.14-1.02-5.28-0.76c-0.93,0.15,3.5,1.24-0.22,0.69c1.14,0.36,2.28,0.74,3.43,1.08
		c0.71-0.03,2.79,0.08,0.47-0.47c1.08,0.13,2.39,0.33,3.44,0.43c0.79,0.04,1.43-0.09,1.52-0.34c-0.1,0.22,0.31,0.38,1.03,0.33
		c0.72-0.03,1.74-0.25,2.75-0.65c0.43-0.22,0.83-0.59,0.87-0.79c0.05-0.19-0.24-0.17-1.17,0.31c0.87-0.51,1.71-1.11,2.51-1.77
		c-0.18,0.1-0.36,0.17-0.54,0.26c0.82-0.46,1.62-0.99,2.39-1.58c-0.12,0.27-0.9,0.87-1.57,1.31c-0.67,0.45-1.22,0.79-0.81,0.79
		c0.96-0.43,2.14-1.56,2.06-1.2c1.19-0.99,2.42-2.71,1.77-2.48c-0.66,0.46-1.06,1.08-1.38,1.11c1.03-1.29,1.48-1.59,2.05-1.91
		c0.56-0.31,1.23-0.66,2.34-2.25l-0.15,0.23c0.02,0.37,0.92-0.65,1.34-1.13C539.06,276.81,537.55,278.83,537.79,278.11z
		 M412.8,238.08c0.46,0.14,0.92,0.28,1.38,0.43C413.73,238.42,413.24,238.23,412.8,238.08z M477.46,234.69l0.09,0.08
		c-0.24-0.03-0.54,0.01-0.63-0.13c-0.13-0.04-0.15,0.06-0.33,0.06c-0.06-0.26,0.46-0.11,0.55-0.3c-0.35-0.03-0.7,0.04-1,0.03
		c0.09,0.05-0.12,0.06-0.02,0.16c-0.07-0.09-0.26-0.06-0.26-0.12c0.21-0.01,0.43-0.1,0.51-0.15c-0.34-0.13,0.04-0.1-0.3-0.21
		c-0.11-0.02,0.03,0.14-0.16,0.1c0.01,0.01,0.03,0.14,0.14,0.09c0.08,0.13-0.32,0.03-0.28,0.18c-0.2-0.07-0.34-0.17-0.36-0.31
		c-0.17,0.03-0.01,0.16-0.02,0.21l-0.57,0c-0.08-0.16-0.51-0.15-0.74-0.33c0.19-0.07,0.32,0.04,0.52,0.09
		c-0.04,0-0.12-0.01-0.07,0.03c0.11,0.03,0.21-0.02,0.29,0.07l0.05-0.1c0.22,0.1-0.19,0.11,0.09,0.2c0.18,0.02,0.22-0.16,0.34-0.19
		c-0.09-0.07-0.16-0.06-0.27-0.12c-0.08,0.09-0.34,0.08-0.49-0.05c0.13,0.06,0.34,0.06,0.22-0.04l-0.47-0.09
		c0.08-0.02,0.39,0.11,0.26-0.03c-0.14-0.01-0.26-0.16-0.41-0.08c-0.19,0.02,0.01,0.24-0.13,0.24c0.04-0.02-0.25-0.08-0.32-0.05
		c-0.06-0.06-0.01-0.14-0.2-0.19c-0.14,0-0.06,0.09-0.07,0.11c-0.11-0.21-0.55-0.08-0.63-0.32c0.05,0.1-0.11,0.01-0.2-0.01
		c0.08-0.06-0.24-0.32,0.1-0.26c-0.01,0.03,0.01,0.07-0.05,0.07c0.08,0.04,0.19,0.04,0.22,0c-0.13-0.13-0.25-0.3-0.27-0.39
		c0.11,0.01,0.1,0.12,0.15,0.19c0.25,0.09-0.01-0.16,0.08-0.2c-0.09-0.1-0.33-0.23-0.27-0.28c-0.21,0.01-0.31,0.12-0.27,0.25
		c-0.23,0-0.64-0.07-0.77-0.08c-0.11-0.14-0.45-0.25-0.4-0.37c0.1,0.04,0.19,0.07,0.31,0.1c-0.09-0.16-0.35-0.17-0.48-0.18
		c-0.02-0.08,0-0.15-0.14-0.21c-0.05,0.12-0.2,0.05-0.42-0.08c-0.38-0.3-0.12-0.39-0.46-0.58l-0.01,0.12
		c-0.3-0.41-0.27-0.35-0.47-0.91l-0.13-0.03c0.02-0.22-0.16-0.34-0.18-0.59c0.06,0.07,0.1,0.06,0.16,0.12
		c-0.04-0.11-0.08-0.22-0.09-0.36c0.04,0.08,0.15,0.09,0.14-0.17c0.06,0.15,0.27,0.45,0.22,0.15c-0.07,0.06-0.14-0.19-0.14-0.39
		c0.08,0.24,0.09-0.14,0.17-0.24c-0.03-0.17-0.05,0.06-0.11,0.11c0-0.12,0-0.25,0.01-0.38c0.02,0.08,0.04,0.03,0.07-0.05
		c0.02-0.06,0.04-0.11,0.07-0.11c-0.05-0.1-0.18-0.31-0.31-0.2l0.1,0.09c-0.06,0.05-0.12,0.07-0.18,0.15
		c0.02-0.42,0.28-0.63,0.43-1.12c0.11-0.11,0.17,0.12,0.2-0.21c-0.01-0.06-0.07-0.16-0.16-0.04c0.09-0.14,0.32-0.21,0.29-0.43
		c0.05-0.05,0.19-0.01,0.15,0.09c0.02-0.03,0.1-0.12,0.15-0.17c0.09-0.34-0.1-0.35,0.05-0.7c-0.08,0.06-0.07-0.14-0.17,0.06
		l0.02,0.21c-0.1,0.07-0.01-0.22-0.15-0.08c0.07-0.1,0.13-0.2,0.16-0.29c0.03,0.05,0.14-0.02,0.16,0.01
		c0.06-0.13-0.08-0.1,0.06-0.22c0.11,0.02-0.02,0.18-0.08,0.25c0.11,0.13,0.26-0.18,0.38-0.23c-0.06-0.08-0.19-0.08-0.15-0.27
		c0.14,0.03,0.27-0.26,0.4-0.31c0-0.11,0.02-0.2-0.09-0.12c0.03-0.1,0.17-0.15,0.18-0.12c0.04-0.15,0.38-0.31,0.36-0.45
		c0.03,0.07,0.2-0.06,0.3-0.09c-0.01-0.15,0.14-0.26,0.3-0.33c0.17-0.06,0.36-0.09,0.42-0.17c0,0.04-0.1,0.1-0.1,0.14
		c0.03,0.04,0.21-0.02,0.28-0.1l-0.02,0.02l0.18-0.02c0.01-0.04,0.03-0.08,0.05-0.12c0.23,0.02-0.05,0.33,0.29,0.3
		c0.34-0.11,0.06-0.24,0.23-0.38c0.08,0.01,0.16,0.02,0.23,0.05c-0.02-0.17,0.43-0.01,0.33-0.16c0.29-0.02,0.14,0.14,0.32,0.15
		c0.13-0.1,0.24,0.07,0.43,0.05c-0.02,0-0.07,0.01-0.08,0.03c0.35,0.12,0.6-0.2,0.79,0.17c-0.05,0.03-0.15-0.05-0.15,0.02
		c0.15,0.01,0.38,0.18,0.39,0.03c0.09,0.14-0.14,0.06,0.1,0.19c-0.09,0.05-0.17,0.02-0.25,0.04c0,0.06,0.18,0.14,0.18,0.14
		c-0.05,0-0.11,0-0.13,0.05c0.08,0.03,0.16,0.01,0.26,0.01c0.07-0.03-0.01-0.12-0.05-0.16c0.07,0,0.06,0.09,0.14,0.08l0.04-0.12
		c0.18,0.06,0.04,0.18,0.29,0.23c-0.04,0-0.05,0.03-0.09,0.04c0.1,0.19,0.53,0.17,0.57,0.3c-0.24,0.03,0.13,0.16-0.04,0.21
		c0.28-0.05,0.27,0.36,0.48,0.27c0.21,0.11,0.05,0.33,0.25,0.41c0.01,0.02,0.01,0.03,0.02,0.05c0.08,0.05,0.14,0.09,0.22,0.15
		c0.06,0.04,0.12,0.09,0.19,0.13c0.06,0.01,0.13,0.03,0.19,0.07c-0.02-0.01-0.03-0.01-0.04,0l0.11,0.13
		c0.02,0.01,0.03,0.02,0.05,0.04c0-0.09,0.14-0.05,0.24,0c-0.03,0.06-0.08,0.07-0.12,0.09c0.14,0.1,0.27,0.19,0.41,0.29
		c0.12-0.01,0.38,0.06,0.35-0.11c-0.16-0.12-0.18,0.12-0.26-0.03l0.23-0.07c-0.01-0.01-0.01-0.02-0.02-0.02l0.06,0.01
		c-0.03-0.04-0.03-0.2-0.18-0.19c0.16-0.08,0.21,0.22,0.37,0.18c-0.05,0.1,0.02,0.18,0.07,0.27l0.3,0.18
		c-0.04,0.07-0.1-0.02-0.15-0.07c-0.1,0.06-0.06,0.23,0.1,0.33c-0.03-0.1,0.23-0.01,0.17-0.09c0.19-0.02,0.19,0.14,0.4,0.18
		c-0.06-0.16,0.13-0.02,0.14-0.13c0.07,0.05,0.13,0.18,0.21,0.12c-0.03,0.11-0.08,0.21-0.16,0.27c0.12,0.17,0.12-0.13,0.25,0.07
		l-0.04-0.13c0.12,0.07,0.23-0.06,0.41,0.08c0.03-0.04,0.01-0.11,0.09-0.09c-0.09,0.03,0.04,0.2,0.15,0.33
		c0.24-0.05,0.35-0.01,0.44,0.11c-0.06-0.06-0.17-0.11-0.19-0.07l0.4,0.3c-0.06-0.01-0.09-0.11-0.15-0.06
		c-0.03,0.11,0.15,0.06,0.14,0.15c-0.06,0.01-0.2-0.07-0.15,0.02c0.08,0.14,0.3,0.27,0.47,0.32c-0.11,0.07-0.09,0.09-0.2,0.17
		c0.11-0.01,0.24,0.22,0.33,0.11l-0.16-0.12c0.05-0.02,0.1-0.12,0.2-0.06c-0.11-0.12-0.27-0.3-0.35-0.3
		c0.06,0.01,0.19,0.03,0.21,0.12c0.19-0.01-0.16-0.27,0.07-0.23c0.17,0.11,0.17,0.36,0.44,0.36c-0.06,0.05-0.08,0.13-0.07,0.23
		c0.15,0.04,0.4,0.27,0.6,0.4c-0.16,0-0.24,0.1-0.35,0.14c0.02,0.01,0.05,0.03,0.07,0.04l0.07,0.02l-0.03,0.01
		c0.46,0.28,0.9,0.53,1.31,0.77c0.01,0,0.03,0,0.04,0c-0.04-0.07-0.04-0.13,0.01-0.16c-0.08-0.08-0.32-0.17-0.31-0.27
		c0.27,0.15,0.21-0.09,0.45-0.03c0.02-0.06-0.06-0.12-0.15-0.16c-0.07,0.02-0.08,0.11-0.21,0.09c-0.09-0.26-0.45-0.1-0.61-0.35
		c0.04-0.12,0.17,0.03,0.22-0.06c0.24,0.13,0.48,0.14,0.67,0.17c0.02,0.2,0.09,0.26,0.29,0.37c0.19,0.11,0.44,0.23,0.56,0.43
		c0.39,0.17-0.09-0.17,0.27-0.04c-0.12,0.07-0.08,0.24,0.26,0.36l-0.32-0.1c0-0.01,0.03-0.02,0.02-0.04
		c-0.11-0.1-0.3-0.08-0.34-0.05c0.13,0.02,0.33,0.11,0.39,0.2c-0.03,0.02-0.12-0.02-0.17,0.01c0.12,0.07,0.22,0.17,0.42,0.15l0-0.03
		l0.22,0.1c0.08-0.05,0.15-0.14,0.4-0.04c0.36,0.2,0.66,0.29,1.15,0.49l-0.25-0.07c0.03,0.04,0.05,0.08,0.21,0.14
		c0.17-0.02,0.42-0.05,0.88,0.13c0.05,0.07,0.23,0.17,0.47,0.28c0.12,0.06,0.25,0.12,0.38,0.18c0.13,0.06,0.15,0.09,0.23,0.13
		c-0.34-0.03-0.57-0.09-0.75-0.14c-0.17-0.05-0.48-0.13-0.68-0.14c0,0.03-0.01,0.04-0.02,0.05c-0.05,0-0.08,0.01-0.11,0.01
		c-0.07,0.01-0.12,0.02-0.26,0.04c0.12,0.03,0.02,0.05,0.12,0.1c0,0.01,0.06,0.03,0.21,0.04c0.02,0,0.03,0,0.05,0
		c0.05-0.06-0.18-0.09-0.13-0.13c0.37,0.05-0.05,0.07,0.34,0.15c0.08-0.02,0.19-0.01,0.28-0.02c0.14,0.07,0.48,0.11,0.65,0.17
		c0.01,0.01-0.05,0.03-0.22,0.05l-0.83,0c-0.19,0.08,0.26,0.11,0.47,0.11c-0.52,0.02-0.58,0.17-0.77,0.16
		c0.27-0.03,0.18-0.08,0.05-0.11c-0.71,0.03-0.36,0.27-1.26,0.23c0.3-0.04,0.73-0.06,0.68-0.16c-0.05-0.07-0.77,0-0.35-0.11
		l-0.62,0.02c-0.01,0.04-0.17,0.13,0.18,0.09c-0.23,0.07-0.61,0.14-0.48,0.23c-0.1-0.08-0.37-0.02-0.62,0.05
		c-0.09,0.04-0.1,0.2,0.13,0.09c-0.1,0.06-0.19,0.12-0.28,0.2l0.08-0.02l-0.33,0.12c0.02-0.08,0.43-0.17,0.28-0.21
		c-0.12,0.03-0.26,0.13-0.27,0.08c-0.13,0.08-0.31,0.25-0.21,0.28c0.11-0.01,0.16-0.09,0.21-0.07c-0.26,0.28-0.38,0.02-0.62,0.2
		l0.02-0.01c0-0.06-0.1-0.03-0.15-0.03c-0.09,0.09,0.08,0.03,0.05,0.1c-0.08,0.03-0.18,0.04-0.24,0.1c0.1-0.01,0.1,0.02,0.17,0.08
		c-0.26,0.17-0.39-0.07-0.62,0.03c-0.13,0.14-0.49,0.29-0.73,0.32c0.19-0.11,0.27-0.06,0.5-0.18c-0.08-0.07,0.15-0.21-0.12-0.17
		c-0.25,0.22-0.72,0.26-0.88,0.4c0.11,0.19,0.25-0.23,0.34,0.02c-0.15,0-0.41,0.16-0.45,0.06c0.03,0.08-0.28,0.05-0.3,0.16
		c0.13-0.07,0.07,0.03,0.1,0.05c-0.03,0-0.19-0.01-0.2,0.03c-0.02-0.06-0.02-0.13-0.01-0.18c-0.12,0-0.12,0.14-0.28,0.16
		c0.09-0.13-0.22-0.04-0.23-0.09c-0.07,0.09,0.07,0.2-0.12,0.25c0.05-0.06,0.11-0.14-0.06-0.13c-0.03-0.2,0.41-0.14,0.36-0.26
		c-0.09,0-0.31,0.11-0.26-0.02l-0.1,0.1c-0.2-0.11-0.36,0.01-0.63,0.01c-0.18,0.04-0.16,0.22,0.02,0.2c-0.2,0.08-0.08,0.11-0.3,0.13
		c0.03-0.03-0.04-0.05-0.07-0.07c-0.19-0.03-0.04,0.12-0.16,0.1c-0.04,0,0-0.05-0.09-0.07l-0.1,0.12c-0.14-0.08,0.03-0.15,0.14-0.19
		c-0.18-0.05-0.3,0.08-0.42,0.04c0.03-0.05,0.11-0.01,0.1-0.07c-0.33,0.01-0.27,0.14-0.55,0.17c0.11,0.09,0.22-0.03,0.38-0.01
		l0.07,0.16c-0.05-0.01-0.15-0.09-0.17,0.02l0.11,0.06c-0.1,0.03-0.26-0.11-0.41-0.04l-0.17-0.15c0.03-0.13,0.22-0.02,0.32-0.1
		c-0.16-0.07,0.3-0.11,0.04-0.2c-0.15,0-0.28-0.04-0.38,0.02l0.1,0.04c-0.31-0.02-0.51,0.09-0.78,0.05
		c-0.11,0.06,0.09,0.12,0.12,0.15c0.1,0.03,0.33-0.05,0.33,0.05c-0.23,0.03-0.51-0.08-0.64-0.03c0-0.01,0-0.01-0.02-0.02l-0.11,0.02
		l0.03-0.02C477.72,234.71,477.56,234.66,477.46,234.69z"/>
</g>
<g id="COR">
	<path class="st1" d="M610.02,453.8l-15.84-38.44c7.34-6.33,11.81-16.12,11.81-27.93v-3.17c0-20.87-14.11-35.56-32.68-35.56h-31.38
		c-2.16,0-3.02,0.86-3.02,3.02v101.93c0,2.16,0.86,3.02,3.02,3.02h19.87c2.16,0,3.02-0.86,3.02-3.02v-27.93
		c0-2.16,0.58-2.74,2.74-2.74h4.03l12.24,31.67c0.58,1.44,1.73,2.02,3.6,2.02h21.31C610.16,456.68,610.74,455.52,610.02,453.8z
		 M580.07,385.99c0,8.35-4.46,12.52-9.79,12.52h-2.74c-2.16,0-2.74-0.58-2.74-2.74v-21.31c0-2.16,0.58-2.74,2.74-2.74h2.74
		c5.33,0,9.79,4.18,9.79,12.52V385.99z"/>
	<path class="st1" d="M205.57,458.12c23.32,0,34.12-15.84,34.12-33.26c0-1.44-0.14-2.59-1.87-2.59h-20.73
		c-1.58,0-2.45,0.72-2.59,2.3c-0.43,4.32-2.45,9.65-8.93,9.65c-8.49,0-9.5-8.78-9.5-17.85v-27.35c0-9.07,1.01-17.85,9.5-17.85
		c6.48,0,8.49,5.33,8.93,9.65c0.14,1.58,1.01,2.3,2.59,2.3h20.73c1.73,0,1.87-1.15,1.87-2.59c0-17.42-10.8-33.26-34.12-33.26
		c-24.76,0-35.42,17.13-35.42,41.75v27.35C170.15,440.98,180.8,458.12,205.57,458.12z"/>
	<path class="st1" d="M490.54,347.26c-24.76,0-35.42,17.13-35.42,41.75v11.86c0.74,0.91,1.47,1.83,2.19,2.76
		c1.66,2.55,0.13,1.45-0.12,1.63c0.88,1.16,1.61,2.02,2.28,2.74c0.65,0.74,1.23,1.34,1.83,2c0.61,0.65,1.21,1.37,1.88,2.35
		c0.67,0.97,1.44,2.19,2.27,3.88c0.75,2.85,2.72,6.42,4.46,9.98c1.77,3.54,3.18,7.14,3.22,9.49c1.1,1.52,1.82,4.52,2.53,8.05
		l-1.02-2.34c0.95,4.16,1.57,7.69,2.1,10.88c0.21,1.32,0.41,2.58,0.57,3.81c3.86,1.31,8.26,2.01,13.24,2.01
		c24.76,0,35.42-17.13,35.42-41.75v-27.35C525.96,364.39,515.3,347.26,490.54,347.26z M500.04,416.51c0,9.07-1.01,17.71-9.5,17.71
		c-8.49,0-9.5-8.64-9.5-17.71v-27.5c0-9.07,1.01-17.85,9.5-17.85c8.49,0,9.5,8.78,9.5,17.85V416.51z"/>
</g>
<g id="croix">
	<g>
		<rect x="594.17" y="317.49" class="st2" width="30.51" height="10"/>
		<rect x="535.05" y="317.49" class="st2" width="30.51" height="10"/>
		<rect x="475.93" y="317.49" class="st2" width="30.51" height="10"/>
	</g>
	<rect x="442.26" y="145.08" class="st2" width="10" height="30.51"/>
	<g>
		<g>
			<rect x="282.71" y="145.08" class="st2" width="10" height="30.51"/>
			<rect x="282.71" y="263.31" class="st2" width="10" height="30.51"/>
		</g>
		<g>
			<rect x="110.29" y="317.49" class="st2" width="30.51" height="10"/>
			<rect x="169.41" y="317.49" class="st2" width="30.51" height="10"/>
		</g>
	</g>
	<g>
		<rect x="110.29" y="477.04" class="st2" width="30.51" height="10"/>
		<rect x="169.41" y="477.04" class="st2" width="30.51" height="10"/>
		<rect x="228.53" y="477.04" class="st2" width="30.51" height="10"/>
	</g>
	<rect x="282.71" y="628.95" class="st2" width="10" height="30.51"/>
	<rect x="282.71" y="569.83" class="st2" width="10" height="30.51"/>
	<rect x="442.26" y="628.95" class="st2" width="10" height="30.51"/>
	<rect x="442.26" y="569.83" class="st2" width="10" height="30.51"/>
	<rect x="594.17" y="477.04" class="st2" width="30.51" height="10"/>
	<rect x="535.05" y="477.04" class="st2" width="30.51" height="10"/>
	<circle class="st2" cx="366.05" cy="80.07" r="43.9"/>
	<g>
		<path class="st2" d="M447.35,210.56c-0.29,0.02-0.39,0.09-0.39,0.09c0.53,0.01,1.27,0.03,1.83,0.04c0.56-0.01,0.94-0.09,0.76-0.24
			c-0.2-0.05-0.2-0.04-0.67-0.06c0.63-0.01,1.32-0.08,1.99-0.14c0.5-0.08,0.96-0.18,1.39-0.28v-5.78h-10v5.9
			C443.98,210.34,445.68,210.51,447.35,210.56z"/>
	</g>
	<g>
		<path class="st2" d="M382.82,237.45c-1.18,0.27-2.61,0.4-5.13,0.2c-0.01,0.43,1.12,0.87-0.62,1.05c1.31-0.55-2.97-1.39-6.73-1.97
			c-1.97,0.7-3.55,1.11-5.05,1.27c-1.51,0.17-2.94,0.06-4.59-0.1c1.71,0.05,4.44,0.02,4.44-0.43l-2.74-0.1l-2.73,0.01l-5.47,0.05
			c1.29-0.26,3.04,0.28,3.58-0.4c-0.76-0.84-3.59,0.35-4.49-0.25c0.98-0.43,4.46-0.58,2.55-0.96c-1.62-0.31-3.84-0.22-6.12-0.08
			c-0.28,0.02-0.55,0.05-0.83,0.07l0.03,1c0.06-0.01,0.12-0.03,0.17-0.04c-0.05,0.02-0.11,0.03-0.17,0.04l1.67,55.64l0.03,0
			l6.12,177.57h-0.03l1.12,32.6c2.01-0.55,3.92-1.13,5.56-1.74c3.33-0.95,7.23-2.13,11.07-3.31l0.63-18.29l0.03-0.01l6.62-192.11
			h-0.06l1.49-49.79C383.05,237.4,382.94,237.43,382.82,237.45z"/>
		<path class="st2" d="M345.32,116.81l1.92,64.26c0.7,0.07,1.45,0.1,2.25,0.04c-0.47,0.05-1.38,0.15-1.54,0.3
			c3.71,0.32,6.3,0.09,8.71-0.06c1.2-0.05,2.35-0.09,3.54,0.12c1.19,0.23,2.42,0.65,3.79,1.4c-0.8,0.29-3.17-0.37-2.92,0.19
			c3.04,0.07,8.5,1.55,7.93,0.2c2.56,1.32-2.52,0.49,2.93,1.75c-1.43,0.4-3.35,0.04-4.9,0.18c0.11,0.26,1.2,0.6,2.26,0.87
			c1.06,0.27,2.09,0.47,2.09,0.47c-0.92-0.02-2.29-0.06-2.33,0.36c1.91,0.32,3.44,0.22,5.27,0.27c1.25-0.25-0.86-1.14-1.89-1.45
			c1.37,0.04,1.67,0.87,3.22,0.79l0.06-1.12c3.85,0.81,1.94,1.8,7.23,2.29c-0.91-0.06-0.82,0.22-1.47,0.32
			c0.82,0.4,1.92,0.75,3.12,1.05l2.17-72.25H345.32z"/>
		<path class="st2" d="M368.54,556.44l1.49-0.37c0.09-0.47-4.41,0.36-6.14,0.23c-0.8,0.41,1.97,0.61,3.31,0.37
			c-2.18,1.08-4.65,1.38-7.45,1.59l0.31,9.05h0l3.84,121.52h4.3l3.84-121.5h0l0.39-11.38C371.33,556.09,370.05,556.25,368.54,556.44
			z"/>
	</g>
	<path class="st2" d="M450.59,267.63c-0.57-0.82-1.63-1.89-2.72-3.05c-0.36-0.42-0.73-0.85-1.1-1.27h-4.51v30.51h10v-25.07
		C451.78,268.42,451.24,268.05,450.59,267.63z"/>
	<g>
		<path class="st2" d="M443.22,525.3c-0.3,0.26-0.63,0.54-0.96,0.81v1.13C444,525.57,445.34,524.13,443.22,525.3z"/>
		<path class="st2" d="M451.23,523.73c0.25-0.35,0.62-0.83,1.03-1.37v-4.02c-0.52,0.52-1.11,1.09-1.83,1.71l1.35-1.62
			c-0.65,0.71-1.94,1.65-3.2,2.59c-0.62,0.48-1.22,0.98-1.72,1.49c-0.51,0.48-0.91,0.98-1.11,1.48c-0.74,1.6,3.42-1.42-1.79,3.36
			l0.05-1.05c-0.69,0.43-1.25,0.84-1.75,1.24v1.66c0.87-0.72,1.72-1.45,2.6-2.1c1.43-1.19,2.91-2.22,4.41-3.1
			c-0.45,0.4-0.91,0.77-1.38,1.13c0.21,0.24-0.74,1.62,0.68,0.51l-2.5,2.49l-2.6,2.38l-0.47-0.29c-0.24,0.19-0.48,0.39-0.74,0.59
			v10.42h10v-18.49C451.92,523.06,451.58,523.4,451.23,523.73z"/>
	</g>
	<g>
		<path class="st2" d="M292.71,519.63v-8.91h-10v12.61C286.39,522.03,289.91,520.79,292.71,519.63z"/>
	</g>
	<path class="st2" d="M189.74,607.05c-0.53,0.54-1.09,1.11-1.72,1.75c-0.58,0.67-1.23,1.41-1.94,2.24c0,0,1.18-1.87,0.66-1.87
		l-2.17,2.92l-2.04,3l0.53-0.64c-0.53,0.9-0.75,1.51-0.89,2.04c3.42-4.55,7.09-8.73,10.98-12.59c-0.14,0.13-0.29,0.25-0.43,0.38
		C191.73,605.11,190.8,605.99,189.74,607.05z"/>
	<path class="st2" d="M199.48,598.03c0.89-0.76,1.77-1.52,2.68-2.25l-0.23-0.19c1.86-0.89,2.5-2.25,3.61-3.27
		c-2.03,1.48-2.77,1.12-4.93,3.26C198.5,597.54,198.85,598.02,199.48,598.03z"/>
	<path class="st2" d="M479.02,227.08c0,0,0.1,0.01,0.12-0.05l-0.27-0.1l0.02,0.02c-0.05-0.01-0.08,0.01-0.12,0.02
		c0.18,0.12,0.36,0.25,0.54,0.37C479.24,227.26,479.17,227.18,479.02,227.08z"/>
	<path class="st2" d="M479.73,227.57c0.03,0.1,0.13,0.04,0.19,0.06c-0.08-0.06-0.02-0.17-0.15-0.19c-0.11-0.04-0.16,0.03-0.18,0.1
		c0.04,0.02,0.07,0.05,0.11,0.08L479.73,227.57z"/>
	<path class="st2" d="M477.38,477.04c-0.19,1.07-0.41,2.17-0.68,3.33c-0.3,0.49-0.5,0.49-0.77,1.03v5.64h30.51v-10H477.38z"/>
</g>
</svg>
