<svg width="160" height="206" viewBox="0 0 160 206" fill="none" xmlns="http://www.w3.org/2000/svg">
<g clip-path="url(#clip0_2_156)">
<path d="M103.93 98.3248L103.905 98.2095L103.866 98.0559L103.841 97.9449C103.841 97.8723 103.802 97.7997 103.785 97.7271L103.759 97.6418L103.708 97.471V97.4198C103.683 97.3515 103.661 97.2832 103.64 97.2234C103.642 97.2064 103.642 97.1892 103.64 97.1722C103.619 97.1124 103.597 97.0484 103.576 96.9971C103.456 97.1679 103.601 97.5521 103.742 97.9235C103.772 98.0046 103.798 98.0857 103.819 98.1626C103.9 98.4358 103.939 98.6663 103.789 98.7218C103.768 98.5255 103.725 98.2949 103.674 98.0345C103.623 97.7741 103.546 97.5265 103.486 97.2874C103.358 96.8136 103.247 96.4336 103.32 96.361C103.269 96.3952 103.149 96.0281 103.021 95.6353C102.938 95.3296 102.802 95.0407 102.62 94.7815C102.936 95.4645 102.658 95.0889 102.679 95.2426C102.597 94.9011 102.472 94.5712 102.308 94.2607C102.372 94.1668 102.504 94.2308 102.611 94.2906C102.526 94.0533 102.404 93.8313 102.248 93.6331C102.18 93.5392 102.112 93.4367 102.035 93.3129C101.937 93.1625 101.85 93.0056 101.774 92.8433C101.984 93.0781 101.881 92.8092 101.732 92.4805C101.597 92.2467 101.484 92.0009 101.394 91.7462C101.057 91.4175 101.224 92.0664 100.677 91.204C100.899 91.4217 101.202 91.7248 100.728 90.9009C100.861 90.8155 101.189 91.3022 101.484 91.7846C101.591 91.9682 101.693 92.1518 101.783 92.3012L101.868 92.4378C101.971 92.6085 102.043 92.7025 102.069 92.647L102.005 92.5104V92.4805C101.984 92.4335 101.954 92.3823 101.924 92.3311L101.898 92.2841C101.877 92.2414 101.851 92.1987 101.826 92.156L101.693 91.9298L101.591 91.7505C101.42 91.4516 101.309 91.251 101.493 91.3876L101.066 90.8838C100.724 89.9105 100.024 89.1762 99.1232 88.0108C98.4188 87.2381 98.2438 87.4515 98.8884 88.2029C98.4594 87.8413 98.0517 87.455 97.6675 87.046C97.7998 87.1271 97.5992 86.8496 97.5138 86.7172C96.8222 85.9488 97.2363 86.6746 96.7966 86.1964C96.6643 86.0598 96.8478 86.1409 96.5362 85.8037C96.3697 85.7226 96.1947 85.65 96.0239 85.5774C95.7934 85.2871 95.8659 85.2786 96.0538 85.381C96.1477 85.4365 96.2715 85.5176 96.3996 85.6073L96.771 85.889C96.1008 85.142 95.4903 84.8773 95.0634 84.4376C95.2512 84.5016 95.5415 84.8218 95.5372 84.698C95.282 84.477 95.0125 84.2731 94.7304 84.0875C94.5689 83.9777 94.399 83.8806 94.2224 83.7972C93.8108 83.6032 93.4103 83.3866 93.0228 83.1483C93.2456 83.362 93.4953 83.5457 93.7656 83.6948C93.9065 83.7759 94.0559 83.8612 94.1925 83.9594C94.3559 84.0647 94.5114 84.1817 94.6578 84.3095L94.8115 84.7364C94.6194 84.5571 94.2736 84.1345 94.0858 84.1942L94.4785 84.6211C94.2608 84.4717 94.0217 84.2241 93.7357 83.9893C93.5948 83.8698 93.4454 83.746 93.3088 83.635C93.1491 83.5271 92.9806 83.4329 92.805 83.3532C92.5959 83.1184 92.3781 82.9263 92.1561 82.683C92.2714 82.6446 92.5233 82.7812 92.805 82.9647C93.081 83.1636 93.3738 83.3379 93.6802 83.4856C93.0142 82.8922 95.1317 84.301 94.0046 83.3532C93.4608 82.9189 92.8693 82.548 92.2415 82.2475L92.6684 82.572C92.343 82.3597 92.0067 82.1645 91.6609 81.9871L91.1956 81.7523L90.7431 81.5431C90.4442 81.4023 90.1454 81.2785 89.838 81.1504L88.8775 80.7235C88.3481 80.5997 89.33 81.1077 89.4496 81.2059C89.7014 81.3468 90.1113 81.5005 90.44 81.6627C90.7687 81.8249 91.0291 81.9615 90.9907 82.0298C89.9362 81.4919 88.5317 80.7491 87.9127 80.621C87.9127 80.621 87.9127 80.5954 87.8273 80.5527C87.648 80.4972 87.4645 80.4503 87.2809 80.4033H87.4346C87.1016 80.2624 86.6362 80.0661 86.2136 79.9294L85.9148 88.57L86.2008 88.6767L86.8668 88.9201C87.0717 88.9927 87.2425 89.061 87.3321 89.078C87.7362 89.4306 88.1804 89.7344 88.6555 89.9831C89.3685 90.3502 88.8519 89.9105 88.9074 89.9148C89.1696 90.139 89.4463 90.3458 89.7356 90.5338C89.8935 90.6448 90.06 90.7558 90.2308 90.8668L90.7388 91.2254L90.9907 91.4089L91.2298 91.6011C91.3877 91.7334 91.5414 91.8615 91.6567 91.9895C91.9036 92.2167 92.1164 92.4784 92.2885 92.7665C91.9811 92.2841 92.788 93.1635 93.1423 93.599C92.9886 93.5221 93.2917 94.0003 93.4241 94.3204C93.4881 94.4784 93.5222 94.5937 93.4625 94.5595C93.2616 94.3743 93.0747 94.1746 92.9032 93.9618C92.9032 93.8978 92.8264 93.727 93.0654 93.9618C92.8198 93.6146 92.5114 93.3164 92.1561 93.0824C92.3184 93.3129 92.4849 93.5307 92.6257 93.7569C92.7666 93.9832 92.8947 94.1838 93.01 94.3973C93.1833 94.7013 93.3263 95.0215 93.4369 95.3535C93.2839 95.153 93.155 94.9352 93.0526 94.7046C92.9825 94.5061 92.8939 94.3146 92.788 94.1326C92.5233 93.8039 92.3952 93.6801 92.3611 93.6673C92.3269 93.6545 92.3611 93.7441 92.4251 93.8765C92.5532 94.1369 92.7666 94.5211 92.6044 94.4016C92.7111 94.5638 92.8392 94.7815 92.9758 95.0078L93.1807 95.3535L93.3643 95.6993C93.6034 96.1263 93.7229 96.5019 93.6375 96.4464L94.0345 97.0142C94.1033 97.1196 94.19 97.212 94.2907 97.2874C94.4273 97.3728 94.4828 97.2618 94.4401 96.9544C94.8491 97.6808 95.1578 98.4591 95.3579 99.2683C95.5322 99.953 95.6338 100.654 95.661 101.36L95.6354 101.582L95.597 101.821L95.5202 102.342C95.4604 102.696 95.3707 103.063 95.2896 103.405C95.2085 103.747 95.0847 104.041 94.9908 104.259C94.8969 104.477 94.7944 104.622 94.7304 104.647C94.7902 104.489 94.8456 104.34 94.8969 104.19L95.0164 103.729C95.0548 103.576 95.0975 103.422 95.1231 103.26C95.1488 103.098 95.1744 102.927 95.2 102.752C95.0506 103.251 94.8713 103.836 94.709 104.378C94.6151 104.647 94.5425 104.912 94.4614 105.142L94.2523 105.723L94.0772 105.928C94.0132 105.988 93.9534 106.048 93.8851 106.124C93.7041 106.35 93.5414 106.59 93.3984 106.842C93.5308 106.82 93.471 107 93.2661 107.337C92.962 107.811 92.6163 108.256 92.233 108.669C92.0153 108.895 91.8061 109.096 91.6567 109.237C91.503 109.375 91.3404 109.503 91.17 109.621C90.9521 109.785 90.7191 109.928 90.4741 110.048C90.282 110.154 90.1027 110.235 89.885 110.364C89.7783 110.428 89.6587 110.509 89.5179 110.603C89.377 110.697 89.219 110.803 89.0355 110.94L89.4624 110.842C88.8048 111.221 88.1198 111.551 87.4132 111.828C87.1613 111.926 86.9052 112.016 86.5594 112.135C86.2136 112.255 85.7995 112.391 85.2147 112.562L84.9542 112.827C84.1944 112.925 83.6735 113.318 82.8197 113.501C83.0759 113.373 83.0545 113.296 83.3107 113.16C82.8837 113.305 82.4782 113.433 82.0641 113.565C82.3245 113.429 82.3885 113.249 81.4878 113.497C81.9744 113.284 83.1484 112.643 82.0214 113.01C82.2092 113.074 81.3298 113.399 80.6254 113.587C81.4536 113.245 80.079 113.587 79.6307 113.642C79.0331 113.89 79.8826 113.642 80.1003 113.642L78.794 114.069C79.3148 113.826 77.9402 114.214 77.8206 114.18C77.3937 114.419 76.4802 114.927 77.334 114.863L77.6413 114.594L78.7428 114.517C76.5527 115.235 74.7256 115.371 71.9848 116.08C71.1865 116.178 72.2154 115.704 70.4693 116.272C70.2132 116.387 69.8631 116.622 70.6102 116.49C69.7564 116.66 68.8599 116.579 67.878 117.023C67.5194 117.075 67.3444 116.895 67.9591 116.724C67.7628 116.767 67.1309 116.865 66.7766 116.921C64.9665 117.523 65.4148 117.647 63.4937 118.248C63.9206 118.184 63.0967 118.569 64.1938 118.248L65.0476 117.822C65.641 117.753 64.1042 118.249 65.0775 118.082C64.5271 118.191 63.984 118.334 63.451 118.509C63.5705 118.402 63.0241 118.466 63.0454 118.411C62.3368 118.646 62.8704 118.641 61.9782 118.838C61.7434 118.748 62.7722 118.475 63.2376 118.372C63.4724 118.056 61.7733 118.586 61.2098 118.641C61.0731 118.838 61.4189 118.88 60.6292 119.252C60.3346 119.128 58.8831 119.726 58.3239 119.798C57.9482 120.024 57.6024 120.225 58.2171 120.071C57.7902 120.272 57.2054 120.387 57.2609 120.306C56.829 120.507 56.384 120.678 55.9289 120.818C55.5197 120.934 55.1299 121.11 54.772 121.339C54.8318 121.177 53.9652 121.553 53.5169 121.672C53.2223 122.018 52.5009 122.308 51.7879 122.599C51.4293 122.74 51.0707 122.876 50.7634 123.026C50.5094 123.125 50.2673 123.252 50.0419 123.406C50.076 123.316 50.5286 123.085 50.567 123C50.6054 122.915 50.345 123.038 50.0974 123.149C49.8454 123.274 49.6029 123.417 49.3717 123.576L49.4698 123.508C49.2265 123.606 48.9789 123.696 48.7398 123.803L48.4752 124.118C47.6213 124.477 48.9447 123.303 47.5189 124.042C46.0375 124.998 47.156 124.631 46.4858 125.237C46.1827 125.386 45.8668 125.523 45.5679 125.664C45.6277 125.779 45.2221 126.057 44.8635 126.308C44.5049 126.56 44.1976 126.795 44.4366 126.77C43.9158 127.167 43.7707 127.235 43.6597 127.248C43.5487 127.26 43.4761 127.248 43.1346 127.491C42.9342 127.728 42.703 127.938 42.4472 128.114C42.3149 128.217 42.1655 128.323 42.0203 128.447C41.87 128.581 41.7275 128.724 41.5934 128.874C41.6835 128.778 41.7622 128.672 41.8282 128.558C41.2793 129.048 40.7906 129.601 40.3725 130.206C40.2016 130.449 40.0147 130.68 39.8132 130.898C39.5839 131.142 39.3324 131.365 39.0619 131.564C39.1259 131.367 39.5614 130.923 39.4418 130.928C39.2241 131.248 38.8527 131.658 38.588 132.008C38.3233 132.358 38.1611 132.622 38.3276 132.61C38.0587 132.844 38.1142 132.695 38.127 132.631C38.1398 132.567 38.1013 132.567 37.7001 133.152C37.7596 132.956 37.8428 132.768 37.9477 132.593C38.0587 132.405 38.1782 132.213 38.2678 132.038C38.2081 132.038 38.0117 132.26 37.8409 132.464C37.747 132.571 37.6702 132.691 37.6061 132.776L37.5079 132.917C37.6189 132.704 37.7897 132.388 37.7299 132.353C37.48 132.739 37.2561 133.142 37.0597 133.557C36.9658 133.86 37.3543 133.421 37.5293 133.203C37.3713 133.515 37.175 133.532 37.0341 133.907L37.2219 133.976C36.7182 134.83 36.6968 134.343 36.1589 135.598C36.2443 135.384 36.1888 135.397 36.2272 135.235C35.8495 135.786 35.5493 136.387 35.335 137.02C35.1745 137.543 34.9718 138.053 34.7288 138.544C34.9038 137.438 34.2549 139.504 34.3019 138.813C34.2803 138.968 34.2475 139.122 34.2037 139.274C34.1653 139.423 34.1269 139.572 34.0799 139.701C33.986 139.987 33.875 140.255 33.764 140.512C33.5551 140.952 33.443 141.433 33.4353 141.92C33.368 142.369 33.2236 142.802 33.0084 143.201C32.817 143.573 32.7037 143.979 32.6754 144.396L32.5686 144.734C32.5003 145.233 32.4406 145.741 32.3936 146.262C32.5473 145.835 32.7095 145.434 32.876 145.033C32.9187 144.853 32.9913 144.606 33.0767 144.371C33.1858 144.03 33.3288 143.701 33.5036 143.389C33.4566 143.479 33.3755 143.641 33.3157 143.777C33.256 143.914 33.2218 144.034 33.2517 144.025C33.4054 143.722 33.5719 143.427 33.7426 143.133C33.7896 143.035 33.8366 142.932 33.8878 142.834C33.7768 142.945 33.7811 142.834 33.8494 142.616C33.9743 142.279 34.1168 141.948 34.2763 141.626C34.3915 141.626 34.3574 141.809 34.336 141.963C34.828 141.066 35.3652 140.194 35.9455 139.35C36.0138 139.197 36.1333 138.966 36.2528 138.736C36.5303 138.189 36.8462 137.647 36.398 137.993C35.6338 138.996 36.3297 138.595 35.7107 139.244L36.0138 138.322C35.9749 138.363 35.9392 138.407 35.9071 138.454L36.0735 138.164C35.9839 138.27 35.8131 138.411 35.6466 138.612C35.4189 138.845 35.2391 139.121 35.1173 139.423C35.2112 138.842 36.2785 137.942 36.5645 137.288C36.7438 137.318 37.2219 136.819 37.6232 136.465C37.858 136.191 38.1013 135.931 38.3404 135.662C38.5795 135.393 38.8399 135.145 39.0918 134.889C39.2113 134.945 38.699 135.355 38.4045 135.641C38.302 135.982 38.9722 135.508 39.8175 134.706C39.3906 134.958 40.5048 133.792 40.0608 134.138C40.3039 133.815 40.5913 133.527 40.9147 133.284C41.3099 132.996 41.6903 132.688 42.0545 132.362C41.2775 132.75 42.4814 131.897 42.1185 131.974C42.5454 131.649 43.2669 131.329 43.3566 131.094C43.6127 131.094 43.7835 131.209 43.6853 131.444C44.7696 130.889 43.6853 131.12 44.9233 130.531C44.7141 130.595 44.4964 130.671 44.3 130.744C44.5817 130.557 44.8473 130.347 45.0941 130.116C45.2401 129.991 45.3926 129.872 45.5508 129.762C45.7948 129.606 46.047 129.464 46.3065 129.335C46.2681 129.271 45.9479 129.365 46.3577 129.092C46.0887 129.357 47.2115 128.878 48.2233 128.52C48.9359 127.934 49.7656 127.508 50.6566 127.269C50.1913 127.423 49.4784 127.726 49.5083 127.803C50.4731 127.427 51.4421 127.077 52.424 126.765C52.0868 126.915 51.5958 126.979 51.4806 127.149C51.7239 127.222 52.424 126.765 52.6973 126.808C52.4411 126.953 51.5318 127.282 52.0526 127.184C53.191 126.904 54.3139 126.565 55.4166 126.168C55.1221 126.441 55.3142 126.394 55.0239 126.676C55.5276 126.411 56.9364 126.249 56.9578 126.018C56.565 126.104 56.1765 126.197 55.7838 126.296C55.9588 126.176 55.835 126.027 56.5394 125.847C55.6671 126 54.8047 126.203 53.9566 126.458L53.8328 126.509C53.8728 126.489 53.9142 126.472 53.9566 126.458C54.3705 126.268 54.8087 126.136 55.2587 126.065C55.6856 125.856 55.2587 125.911 54.9001 125.971C54.5415 126.031 54.1872 126.086 54.8104 125.835C56.0271 125.497 56.8895 125.6 58.2513 125.053C58.1232 125.207 58.3068 125.275 58.6782 125.31C59.5662 125.032 61.6025 124.716 63.0241 124.477C62.5748 124.647 62.1532 124.883 61.7733 125.177L62.2301 125.088L62.6313 124.981L62.5289 125.032C65.5983 124.464 68.6934 124.029 71.733 123.632L71.8824 123.581C71.4555 123.581 71.2292 123.525 71.4128 123.427C70.7383 123.482 69.2356 123.734 68.9794 123.64C70.845 123.376 69.7351 123.252 71.1908 122.962C70.7484 122.908 70.2999 122.935 69.8674 123.043C69.5558 123.166 69.8119 123.26 69.1118 123.427C67.7969 123.329 66.4863 124.012 64.8683 124.076C64.6762 123.918 65.8033 123.828 65.7776 123.683C67.4468 123.41 68.6934 123.06 69.7479 122.808C71.0926 123.137 73.0948 122.419 75.4428 122.475C77.176 122.18 74.5079 122.436 75.9593 122.15C75.9593 122.334 76.843 122.415 78.2902 122.121L77.0394 122.389C76.9583 122.389 76.9967 122.351 76.9113 122.343C76.1557 122.389 75.7416 122.616 75.7544 122.688C76.4404 122.52 77.1408 122.417 77.8463 122.381C77.8932 122.424 77.4578 122.5 77.4706 122.573C78.1835 122.483 79.1398 122.411 79.3532 122.202H79.1867L80.2497 122.018C79.9936 121.928 79.5752 121.826 80.5486 121.63C81.9876 121.407 83.4129 121.103 84.8176 120.72L84.2157 120.925C84.6116 120.902 85.0038 120.836 85.3854 120.729C85.1592 120.614 85.0055 120.434 86.2862 120.071C87.7495 119.809 89.1826 119.4 90.5638 118.85C90.7345 118.974 90.3845 119.218 89.9917 119.44C89.599 119.662 89.1721 119.866 89.2318 120.007C89.7996 119.913 90.0045 119.875 90.2607 119.828C90.6936 119.731 91.121 119.611 91.5414 119.469C91.9128 119.239 93.0612 118.833 92.7325 118.782C92.0409 119.025 91.7292 119.299 91.059 119.533C91.059 119.363 92.408 119.004 92.4464 118.799C92.2031 118.855 91.964 118.91 91.7164 118.957C92.2244 118.718 92.2373 118.607 92.2927 118.53C92.3482 118.453 92.4379 118.359 93.0441 118.103C93.4155 118.005 93.7827 117.873 94.1583 117.753C94.5383 117.523 94.5852 117.416 94.5255 117.395C94.4025 117.392 94.28 117.409 94.1626 117.446C94.5502 117.271 94.918 117.055 95.2597 116.801C95.4597 116.632 95.6739 116.481 95.9001 116.349C95.4092 116.639 95.3622 116.776 95.4006 116.835C95.6628 116.712 95.9117 116.561 96.1434 116.387C96.3484 116.221 96.5277 116.054 96.7155 115.888C96.9033 115.721 97.0869 115.546 97.3174 115.375C97.5778 115.183 97.8501 115.008 98.1328 114.85L97.6718 115.205L97.2064 115.533C96.9583 115.696 96.7342 115.893 96.5405 116.118C96.3227 116.409 97.8212 115.474 96.6557 116.349C97.0826 116.135 97.4711 115.896 97.8767 115.657C98.0602 115.448 98.6238 114.867 97.8767 115.414C98.517 114.859 99.3879 114.056 99.341 113.851C99.341 113.95 99.5416 113.851 99.8063 113.612C99.9386 113.501 100.08 113.352 100.233 113.185L100.472 112.938L100.707 112.673C100.959 112.336 101.091 111.819 100.528 112.575C100.788 112.199 101.014 111.811 101.245 111.422L101.07 111.619C101.198 111.456 101.318 111.29 101.433 111.119C101.548 110.948 101.672 110.786 101.779 110.611C101.668 110.88 101.525 111.134 101.352 111.367C101.155 111.653 100.989 111.879 101.138 111.794C101.211 111.708 101.288 111.606 101.364 111.508L101.557 111.209C101.672 111.03 101.753 110.919 101.757 110.987C101.915 110.714 102.049 110.428 102.159 110.133C102.24 109.877 102.252 109.706 102.159 109.809C101.971 110.086 101.873 110.372 101.766 110.436C101.882 110.059 102.074 109.709 102.329 109.407C102.436 109.289 102.53 109.16 102.611 109.023C102.759 108.772 102.876 108.504 102.961 108.225L102.927 108.331C102.961 108.464 103.209 107.96 103.307 107.717C103.465 107.064 103.102 108.037 103.123 107.717C103.2 107.49 103.303 107.264 103.379 107.029C103.458 106.806 103.52 106.578 103.567 106.346C103.375 106.833 103.354 106.773 103.17 106.961C103.264 106.56 103.367 106.257 103.448 106.005C103.529 105.753 103.627 105.552 103.708 105.356C103.936 104.905 104.081 104.416 104.135 103.913C104.135 103.443 104.135 102.692 104.135 101.894C104.135 101.095 104.05 100.263 103.999 99.6269C104.083 100.07 104.13 100.52 104.139 100.972C104.139 101.369 104.139 101.787 104.169 102.457C104.327 102.158 104.357 103.636 104.472 102.163C104.396 101.309 104.314 100.267 104.161 99.3067C104.063 98.9694 103.999 98.6365 103.93 98.3248Z" fill="#C10230"/>
<path d="M121.348 57.7646C121.525 57.5549 121.676 57.324 121.796 57.0772C121.625 57.3163 121.617 57.2864 121.476 57.3419C121.545 57.2084 121.623 57.08 121.711 56.9577C121.749 56.9236 121.796 56.8937 121.843 56.8552C121.906 56.8131 121.958 56.7582 121.998 56.6942C122.038 56.6302 122.064 56.5585 122.074 56.4838C122.074 56.4582 122.074 56.407 121.988 56.4155L121.519 56.3728L120.494 56.2576C120.77 56.2569 121.046 56.2783 121.318 56.3216L121.536 56.3558C121.604 56.3666 121.672 56.3737 121.741 56.3771C121.741 56.3259 121.839 56.3088 121.907 56.2917C121.975 56.2747 122.01 56.249 121.788 56.1807H121.442H121.224L120.319 56.121C119.713 56.0911 119.128 56.0484 118.774 56.0484C118.851 56.1679 119.132 56.1594 119.388 56.1509C119.645 56.1423 119.879 56.1295 119.896 56.2618C119.649 56.2234 119.265 56.2064 118.936 56.1722C118.607 56.1381 118.334 56.0911 118.317 56.0313C118.317 56.074 118.065 56.0313 117.788 55.9758C117.647 55.9459 117.501 55.9118 117.386 55.8947C117.31 55.8766 117.231 55.8766 117.156 55.8947C117.391 55.9331 117.442 55.9545 117.437 55.9758C117.433 55.9972 117.378 56.01 117.437 56.0313C117.222 55.9538 117.001 55.8953 116.776 55.8563C116.754 55.7837 116.84 55.741 116.912 55.7069C116.515 55.5788 116.387 55.7069 115.824 55.502C116.037 55.502 115.858 55.4379 115.627 55.3483C115.454 55.29 115.287 55.2112 115.132 55.1135C114.816 55.058 115.171 55.3653 114.513 55.0751C114.731 55.122 115.013 55.1903 114.432 54.8829C114.479 54.7933 114.838 54.9598 115.196 55.0964C115.555 55.233 115.901 55.344 115.871 55.2714C115.73 55.2159 115.444 55.1263 115.226 55.0409C115.008 54.9555 114.88 54.8829 115.03 54.8872C114.889 54.8531 114.748 54.8104 114.603 54.7677C114.458 54.725 114.338 54.5585 114.197 54.4688L113.98 54.3237L113.711 54.1572C113.241 53.8591 112.789 53.5341 112.357 53.1839C112.163 53.0071 111.937 52.8694 111.691 52.7783C111.619 52.7783 111.734 52.9405 112.118 53.2394C111.636 52.9329 111.178 52.5904 110.748 52.2148C110.906 52.313 110.705 52.1038 110.637 52.0184C109.962 51.3951 110.248 51.8391 109.813 51.425C109.681 51.3055 109.915 51.4506 109.625 51.1731L109.288 50.9597L109.117 50.853L109.032 50.7975H108.998C109.097 50.8153 109.194 50.8439 109.288 50.8828H109.309L109.518 51.0365L109.92 51.3439C109.775 51.1988 109.617 51.0621 109.459 50.917C109.459 50.917 109.501 50.917 109.506 50.917L109.48 50.8871L109.429 50.8145C109.413 50.7941 109.402 50.7709 109.395 50.7462C109.395 50.7249 109.395 50.7462 109.36 50.6566L109.459 50.7334L109.493 50.7676C109.506 50.7847 109.518 50.8033 109.527 50.8231C109.548 50.8572 109.57 50.8828 109.659 50.9042C109.661 50.8843 109.661 50.8643 109.659 50.8444V50.8188C109.659 50.8188 109.659 50.8188 109.634 50.7761C109.548 50.6694 109.463 50.5755 109.386 50.4901C109.309 50.4047 109.224 50.3236 109.147 50.251L108.976 50.0931L108.763 49.9052C109.442 50.0546 109.975 50.1656 110.791 50.3321L111.644 50.4986L112.221 50.6182L112.562 50.695C112.603 50.7057 112.645 50.7057 112.686 50.695H112.78H112.656C112.634 50.6988 112.61 50.6988 112.588 50.695L112.473 50.6651L112.007 50.5499C111.7 50.4773 111.397 50.4047 111.094 50.3407L110.645 50.2425L109.877 50.0546L108.204 49.6277L108.408 49.8198L108.511 49.918L108.566 49.9778C108.63 50.0461 108.686 50.1144 108.741 50.1784C108.644 50.1937 108.554 50.2402 108.485 50.3108C108.383 50.1955 108.285 50.0546 108.169 49.9138C108.109 49.8364 108.042 49.7649 107.969 49.7003C107.818 49.5592 107.658 49.428 107.491 49.3076C107.567 49.3076 107.606 49.3076 107.61 49.3076L107.303 49.2222L107.52 49.4527L107.576 49.5125L107.602 49.5424L107.644 49.5978L107.819 49.8284C107.721 49.7387 107.623 49.6533 107.533 49.5594L107.465 49.4911L107.431 49.457L107.358 49.3887L107.064 49.1026L109.04 49.6533L110.052 49.9308L110.692 50.0973L111.854 50.3876L112.426 50.52L112.677 50.4858H113.326H113.484H113.617L113.847 50.4645C113.794 50.5215 113.723 50.5603 113.647 50.5755C113.477 50.606 113.306 50.6259 113.134 50.6352L112.827 50.6608H112.669H112.626H112.545L112.391 50.6267C111.965 50.5328 111.593 50.4559 111.316 50.409C111.858 50.5456 111.892 50.5627 111.743 50.5413L111.375 50.4815L111.136 50.4389H111.077H110.978L110.769 50.3919C110.446 50.308 110.118 50.2439 109.787 50.1998C109.917 50.2482 110.05 50.2881 110.184 50.3193L110.705 50.4559L111.055 50.5499L111.256 50.5968L111.358 50.6267H111.431L112.549 50.8487L112.818 50.9042C112.86 50.907 112.901 50.907 112.942 50.9042H113.01L113.284 50.8743C113.463 50.8743 113.629 50.8359 113.783 50.8145C113.937 50.7932 114.022 50.7334 114.129 50.6865L113.894 50.7292C113.812 50.7509 113.727 50.7624 113.642 50.7633C113.737 50.7569 113.83 50.7383 113.92 50.7078L114.167 50.6395L114.406 50.5755H114.466H114.505L114.581 50.5456C114.782 50.4687 114.966 50.4004 115.149 50.3193C115.512 50.1656 115.862 50.0034 116.298 49.8412C116.584 49.6619 115.922 49.8412 115.828 49.8711C115.495 49.9821 114.855 50.298 114.821 50.2041C115.478 49.9565 116.421 49.6576 116.776 49.4612C116.776 49.4612 116.776 49.4612 116.844 49.4612L117.169 49.299L117.087 49.3588C117.437 49.2435 118.005 49.0856 118.308 48.9319L117.928 48.9874C118.325 48.8508 118.782 48.6928 119.209 48.5605C119.549 48.4841 119.902 48.4841 120.242 48.5605C120.464 48.6097 120.676 48.6994 120.866 48.8252L121.485 49.1496C121.709 49.2619 121.916 49.4056 122.099 49.5765C122.172 49.8284 121.852 49.5381 121.361 49.235C121.095 49.0734 120.808 48.9511 120.507 48.8721C120.299 48.8127 120.079 48.8127 119.871 48.8721C120.308 48.9051 120.732 49.0396 121.109 49.2649C121.414 49.4435 121.7 49.6523 121.963 49.8881C122.199 50.0957 122.422 50.3166 122.633 50.5499C122.731 50.6609 122.829 50.7718 122.919 50.8828L122.987 50.964L123.021 50.9896C123.021 50.9469 123.021 50.9511 123.064 50.9426C123.107 50.9341 123.115 50.9085 123.128 50.8615C123.123 50.8777 123.123 50.8948 123.126 50.9112C123.13 50.9277 123.138 50.9429 123.149 50.9554C123.156 50.9687 123.159 50.9833 123.159 50.9981C123.159 51.0129 123.156 51.0275 123.149 51.0408C123.092 51.0317 123.035 51.0189 122.979 51.0024H122.919L122.881 50.964L122.812 50.8999C122.727 50.8145 122.646 50.7505 122.59 50.6993C122.688 50.8401 122.757 50.9426 122.804 51.0237C122.851 51.1048 122.834 51.0707 122.838 51.0835C122.84 51.0934 122.84 51.1035 122.838 51.1134C122.838 51.1433 122.838 51.1518 122.838 51.1561C122.838 51.1603 122.795 51.1561 122.94 51.4335C122.987 51.5061 122.987 51.4335 123 51.4037C123.013 51.3738 123.03 51.3311 123.094 51.4335C123.094 51.4335 123.094 51.3567 123.094 51.3055C123.094 51.2542 123.094 51.2116 123.034 51.2073C123.034 51.1048 123.09 51.1475 123.132 51.1646C123.175 51.1817 123.205 51.1646 123.209 51.0536C123.238 51.1432 123.26 51.2344 123.278 51.3268C123.278 51.3482 123.278 51.3951 123.278 51.4079V51.4464L123.312 51.5616C123.333 51.4791 123.333 51.3923 123.312 51.3097C123.292 51.2618 123.28 51.2116 123.273 51.1603C123.302 51.0425 123.302 50.9196 123.273 50.8017C123.295 50.8017 123.312 50.8273 123.32 50.8017V50.7676L123.397 50.6053L123.555 50.2467C123.783 49.7089 124.069 49.1978 124.409 48.7227C124.281 49.0343 124.157 49.299 124.012 49.5765C123.867 49.854 123.717 50.1443 123.585 50.473C123.632 50.3321 123.734 50.0803 123.615 50.2724C123.495 50.4645 123.482 50.6224 123.427 50.7847V50.8401C123.422 50.8428 123.417 50.8442 123.412 50.8442C123.407 50.8442 123.402 50.8428 123.397 50.8401L123.474 50.9298C123.431 50.9981 123.418 50.9298 123.397 50.8871C123.376 50.8444 123.35 50.8103 123.333 50.8401C123.374 51.0209 123.397 51.2055 123.401 51.3909C123.461 51.3567 123.474 51.2585 123.534 51.1689C123.519 51.0813 123.519 50.9918 123.534 50.9042C123.531 50.8858 123.531 50.8671 123.534 50.8487C123.534 50.8487 123.559 50.7889 123.572 50.7548L123.628 50.6352C123.703 50.4756 123.787 50.3203 123.879 50.1699C123.767 50.3867 123.673 50.6123 123.598 50.8444C123.598 50.87 123.598 50.87 123.598 50.8743C123.598 50.8743 123.598 50.8743 123.623 50.8743C123.623 50.8743 123.623 50.8743 123.653 50.8359C123.858 50.3193 124.08 49.807 124.345 49.2777C124.238 49.5295 123.709 50.5925 124.046 50.0931C124.234 49.6235 124.584 49.1752 124.763 48.6928C125.19 47.9884 124.336 48.8892 124.661 48.3769C124.661 48.4068 124.661 48.3769 124.772 48.2616L124.844 48.172L124.964 48.0525L125.032 47.9884L125.143 47.903L125.267 47.8177C125.336 47.7785 125.407 47.7442 125.48 47.7152C125.638 47.6512 125.806 47.6151 125.976 47.6085C126.055 47.6042 126.135 47.6042 126.215 47.6085C126.287 47.6085 126.347 47.6341 126.411 47.6469C126.475 47.6597 126.531 47.6853 126.582 47.7024C126.63 47.7189 126.677 47.7389 126.723 47.7622C126.801 47.7992 126.877 47.842 126.949 47.8902C126.962 47.8873 126.975 47.8797 126.983 47.8689C126.974 47.904 126.971 47.9406 126.977 47.9765C126.982 48.0125 126.994 48.047 127.013 48.0781C127.043 48.0567 127.013 47.9116 127.013 47.8945C127.01 47.9272 127.01 47.96 127.013 47.9927C127.015 47.9614 127.015 47.93 127.013 47.8988C127.013 47.8433 127.013 47.8475 127.068 47.9244C127.013 47.8518 127.034 47.839 127.017 47.8091C127.032 47.8286 127.052 47.8442 127.074 47.8546C127.096 47.865 127.121 47.8699 127.145 47.8689C127.192 47.8689 127.243 47.8689 127.252 48.0098C127.222 48.0098 127.201 48.0098 127.179 47.9372C127.172 48.0101 127.184 48.0836 127.214 48.1506C127.327 48.0707 127.431 47.9791 127.525 47.8774C127.525 48.0396 127.423 48.0482 127.367 48.0994C127.342 48.2574 127.367 48.283 127.423 48.2574C127.478 48.2318 127.538 48.1592 127.559 48.2318C127.591 48.176 127.616 48.1174 127.636 48.0567C127.636 48.0226 127.658 47.9841 127.67 47.9457C127.683 47.9073 127.67 47.8689 127.705 47.8048C127.752 47.5829 127.769 47.3779 127.807 47.4377C127.709 46.8657 127.538 46.7717 127.457 47.0535C127.378 46.6787 127.279 46.3082 127.162 45.9435C127.07 45.6508 126.956 45.3654 126.821 45.0897C126.762 44.8221 126.667 44.5637 126.539 44.3213C126.424 44.0822 126.313 43.8944 126.343 43.8474C126.501 44.0452 126.644 44.255 126.77 44.475C126.711 44.2523 126.601 44.0463 126.449 43.873C126.336 43.7395 126.198 43.6281 126.044 43.5443C126.026 43.464 125.988 43.3893 125.935 43.3268C125.881 43.2643 125.813 43.2158 125.737 43.1857C125.711 43.3266 125.472 43.1601 125.036 43.1089C124.601 43.0577 124.452 43.032 124.285 43.0064H124.161H124.097H124.003C123.825 43.029 123.649 43.0676 123.478 43.1217L123.7 43.1686C122.419 43.3394 122.586 43.3095 121.199 43.4333L121.023 43.5699C120.597 43.5315 120.225 43.7194 119.692 43.7364C119.858 43.6809 119.854 43.6297 120.025 43.5742C119.76 43.6126 119.491 43.6468 119.218 43.6724C119.393 43.6169 119.461 43.5102 118.872 43.5443C119.205 43.476 119.986 43.2327 119.26 43.3053C119.316 43.3351 119.196 43.3778 119.008 43.412C118.782 43.4434 118.554 43.4605 118.325 43.4632C118.607 43.4205 118.522 43.3992 118.325 43.3821C118.129 43.365 117.839 43.3394 117.694 43.3138C117.267 43.3437 117.852 43.3608 117.98 43.412C117.685 43.4333 117.395 43.412 117.096 43.412C117.284 43.3864 117.143 43.3736 116.959 43.3394C116.802 43.3218 116.646 43.2904 116.494 43.2455C116.182 43.2839 115.516 43.3394 116.033 43.5358L116.281 43.4547C116.503 43.5358 116.733 43.6041 116.964 43.6809C116.26 43.6364 115.565 43.5059 114.893 43.2925C114.236 43.0875 113.553 42.8442 112.733 42.571C112.511 42.46 112.571 42.4258 112.554 42.3874C112.537 42.349 112.515 42.3447 112.421 42.3063C112.327 42.2679 112.157 42.2209 111.909 42.1654C111.747 42.1654 111.508 42.1654 111.909 42.3319C111.683 42.2465 111.482 42.1142 111.239 42.0032C110.991 41.8862 110.723 41.8181 110.449 41.8026C110.261 41.7385 110.223 41.5806 110.573 41.6446C110.466 41.619 110.125 41.508 109.932 41.4397C109.733 41.4151 109.531 41.408 109.331 41.4183C109.207 41.4206 109.084 41.4335 108.963 41.4568C108.635 41.503 108.304 41.5258 107.973 41.5251C108.208 41.5678 107.721 41.6574 108.336 41.6574C108.507 41.619 108.682 41.6019 108.857 41.5763C109.168 41.6617 108.297 41.6361 108.818 41.7428C108.521 41.6933 108.219 41.6775 107.917 41.6958C107.994 41.6489 107.691 41.5848 107.717 41.5592C107.316 41.6019 107.597 41.6745 107.106 41.6574C107.047 41.6147 107.162 41.572 107.324 41.5635C107.486 41.5549 107.7 41.5635 107.828 41.5635C107.994 41.397 107.025 41.4568 106.705 41.4269C106.615 41.5336 106.799 41.6062 106.338 41.7556C106.189 41.6233 105.339 41.8879 105.01 41.8922C104.788 42.0203 104.583 42.1227 104.942 42.0672C104.69 42.1654 104.34 42.2038 104.374 42.1526C104.054 42.3234 103.042 42.4899 102.824 42.6734C102.846 42.6222 102.718 42.6436 102.543 42.6734L102.265 42.7332C102.168 42.7541 102.07 42.7698 101.971 42.7802C101.545 43.0021 101.065 43.0956 100.588 43.0491C100.037 43.0278 99.5202 42.9381 99.2598 42.9467C99.3111 42.9168 99.6526 42.9467 99.6867 42.904C99.4088 42.8242 99.122 42.7797 98.8329 42.7716H98.914L98.4146 42.6308L98.1499 42.6734C97.5778 42.4728 98.7177 42.4771 97.723 42.2124C96.6429 41.9776 97.2961 42.3276 96.7197 42.2807L96.1306 42.0117C96.058 42.174 94.9481 41.6318 95.1359 41.8538C94.3461 41.6019 94.8115 41.5934 94.3163 41.4013C94.1286 41.3752 93.9467 41.3175 93.7784 41.2305C93.7791 41.2163 93.7791 41.202 93.7784 41.1878V41.2262L93.6204 41.1537C93.4539 41 93.2661 40.8506 93.3984 41.064C93.3014 41.0228 93.2015 40.9885 93.0996 40.9615C93.1789 40.9847 93.2605 40.999 93.3429 41.0042C92.2543 40.556 91.7249 40.7011 90.965 40.1504C91.0889 40.1504 91.4346 40.3127 91.392 40.2401C90.9352 40.112 90.1112 39.7321 90.1966 39.9199C89.8295 39.6808 90.5894 39.9412 89.7697 39.6168C90.0248 39.6442 90.2775 39.6913 90.5253 39.7577C90.321 39.629 90.1016 39.5258 89.8722 39.4503C90.0173 39.4845 90.2265 39.5314 90.2393 39.4845C89.974 39.3985 89.703 39.3315 89.4282 39.2838C89.2361 39.2838 89.552 39.446 89.7057 39.5143C89.4965 39.4674 89.4581 39.3564 89.219 39.3222V39.4546C88.6384 39.2582 88.9372 39.1856 88.1219 39.0021C88.2627 39.0277 88.2499 39.0021 88.3524 39.0021C87.823 38.7032 86.5167 38.5325 86.2477 38.3617C86.9222 38.4001 85.6501 38.1098 86.0727 38.0927C85.3 38.0586 84.681 37.5762 84.1772 37.6658C83.9073 37.6221 83.6471 37.5311 83.4088 37.3969C83.1912 37.2707 82.947 37.1976 82.6959 37.1834L82.4952 37.1151L82.0256 37.1407C81.5856 37.0549 81.1351 37.0362 80.6894 37.0852C78.5947 36.7077 76.4698 36.5234 74.3413 36.5345C73.6839 36.5345 73.0307 36.5345 72.3861 36.6028L70.4608 36.7651L68.5824 37.0297C68.275 37.0682 67.9719 37.1322 67.6731 37.192L66.7766 37.3713C66.8256 37.3606 66.8703 37.3353 66.9046 37.2987C66.529 37.3755 65.8374 37.4481 65.9953 37.5719C66.0772 37.5873 66.1611 37.5873 66.2429 37.5719C65.3294 37.764 64.1084 38.2507 64.4329 38.3788C64.1858 38.3459 63.9346 38.3875 63.7114 38.4983C63.5117 38.6119 63.2833 38.6652 63.054 38.652C62.5758 38.7032 63.6089 38.4642 63.5876 38.366C63.1272 38.3437 62.6685 38.4346 62.2514 38.6306C62.0123 38.716 61.7818 38.8185 61.5641 38.9124C61.3674 38.9986 61.163 39.0657 60.9536 39.113C61.0176 38.9764 62.277 38.5154 61.2481 38.652C60.7572 39.1259 59.4509 39.5826 58.1317 40.1718C57.4615 40.445 56.8083 40.7908 56.2192 41.1024C55.9332 41.2732 55.6685 41.4482 55.4337 41.6147C55.2176 41.7581 55.0185 41.9257 54.8403 42.1142L54.3622 42.1996C54.1957 42.3319 54.0121 42.4557 53.8328 42.5966C53.6535 42.7375 53.4656 42.8784 53.2735 43.0235C52.8722 43.2925 52.488 43.6126 52.0654 43.9157C51.2121 44.5534 50.4267 45.2773 49.7217 46.0759C49.4058 46.3534 49.1368 46.6735 48.838 46.9766C48.5392 47.2798 48.2958 47.617 48.0226 47.9415L47.9543 47.7024C47.9286 47.975 47.8472 48.2394 47.7152 48.4794C47.553 48.7867 47.3652 49.1539 47.1517 49.5424C47.0407 49.7302 46.9468 49.9394 46.8486 50.1443C46.7504 50.3492 46.6437 50.5712 46.5583 50.7633C46.4729 50.9554 46.3961 51.1902 46.3278 51.3866C46.2936 51.489 46.2638 51.5872 46.2339 51.6812C46.204 51.7751 46.1912 51.8775 46.1741 51.9715C45.8493 52.9738 45.5842 53.9944 45.3801 55.0281C45.3288 55.2928 45.2733 55.5446 45.2178 55.788C45.1623 56.0313 45.1239 56.2704 45.0727 56.4838C44.9975 56.8427 44.8903 57.1942 44.7525 57.534C44.7449 57.3004 44.7521 57.0666 44.7739 56.8339C44.7854 56.7417 44.8129 56.6521 44.855 56.5692C44.9838 56.2865 45.0494 55.9791 45.0471 55.6685L44.7482 55.5276C44.8848 56.0783 44.5433 56.3814 44.4537 56.7741C44.5336 57.1716 44.5637 57.5774 44.5433 57.9823C44.5369 58.3963 44.5975 58.8086 44.7226 59.2032C44.697 59.2673 44.6586 59.2374 44.6415 59.1307L44.744 59.7369L44.6586 59.8393C44.6938 60.2485 44.7696 60.6532 44.8848 61.0475C44.993 61.4191 45.0785 61.7968 45.141 62.1788L44.808 61.5341L44.9147 62.1019L44.872 62.072C44.9408 62.4258 45.0632 62.767 45.2349 63.0838C45.3139 63.2725 45.3795 63.4665 45.4313 63.6644C45.5039 63.9445 45.5539 64.2301 45.5807 64.5182H45.4825C45.5337 64.7573 45.5892 64.9963 45.6533 65.2397C45.5466 65.2397 45.427 64.2493 45.3075 64.3859C45.5636 64.9622 45.8368 66.5674 46.0033 66.8107C45.8368 66.832 45.9692 67.387 46.1186 67.8651C46.268 68.3433 46.4985 68.8812 46.3918 69.069C46.1528 68.5952 46.1656 68.6976 46.2125 68.9153C46.2595 69.1331 46.3662 69.4575 46.268 69.4319C46.3363 69.5514 46.3961 69.671 46.4559 69.7905L46.6394 70.132C46.7356 70.3283 46.8657 70.5061 47.0236 70.6571C47.2542 70.8962 47.2584 70.7809 47.1859 70.5717C47.1412 70.4536 47.0899 70.3382 47.0322 70.2259C46.9767 70.1021 46.9212 69.9869 46.8785 69.9143C47.4164 70.5504 48.0098 71.4597 48.8721 72.4245C49.3602 73.1661 49.9333 73.8481 50.5798 74.4566C51.2628 75.114 52.0014 75.7373 52.6844 76.288C52.6375 76.288 52.4582 76.2069 52.36 76.2282C52.5986 76.4317 52.8592 76.6078 53.1369 76.7533C53.4177 76.8847 53.6888 77.0359 53.9481 77.2058C53.9224 77.3852 54.4219 77.7907 54.9982 78.1963C55.4995 78.5352 56.0261 78.8349 56.5735 79.0928C57.0004 79.2934 56.5266 78.9007 56.9577 79.0928L57.0517 79.4855C57.2438 79.5624 57.8799 79.8142 57.9055 79.7246L57.9524 79.7758C58.2153 79.8348 58.4683 79.9311 58.7038 80.0618C58.9685 80.1814 59.1776 80.2497 59.1307 80.096C60.1991 80.6661 61.3146 81.1432 62.4648 81.5219L62.8021 81.6371L62.4648 81.5219C61.5811 81.2529 61.9184 81.5646 60.6377 80.9626C60.7401 80.9882 60.6846 80.9626 60.7871 80.9626C60.2193 80.5613 60.3602 80.9626 59.9888 80.7364C60.7572 81.27 61.8074 81.5261 62.7466 82.0171C63.3528 82.2006 63.9761 82.3415 64.5823 82.5037C64.4755 82.7898 63.3613 82.2348 63.626 82.7044C64.2493 82.9093 64.2792 83.0459 64.3944 83.1953C64.5097 83.3448 64.7103 83.5112 65.6752 83.7503C65.752 83.6265 65.7605 83.3917 65.2824 83.1953C64.9878 82.9008 66.1832 83.238 66.593 83.3149C68.6379 84.1687 71.289 84.523 73.8504 85.2274C73.7329 85.2104 73.6136 85.2104 73.4961 85.2274L74.7768 85.539L74.5078 77.7907L74.3755 77.7437C74.2346 77.5815 74.3755 77.5089 73.7565 77.3168C72.5335 77.0627 71.3371 76.694 70.1833 76.2154C69.5728 75.9764 70.7084 76.2667 70.1491 76.002C69.5511 75.9485 68.9702 75.7743 68.4415 75.4897C67.9055 75.1993 67.3304 74.9879 66.7339 74.8621C66.1996 74.4564 65.6121 74.126 64.9878 73.8802C65.2995 73.9229 66.0039 74.1236 66.4265 74.1834C66.8491 74.2431 66.99 74.162 66.2045 73.6497C66.478 73.8248 66.7977 73.914 67.1224 73.9059C67.5766 73.9533 68.01 74.1213 68.3775 74.3925L68.0231 74.0169C67.1181 73.59 66.768 73.7308 65.8118 73.1374L66.2387 73.2698C65.8673 73.1246 65.2226 72.416 64.7189 72.5056C64.5182 72.5398 64.6378 72.6977 64.642 72.7788C64.6463 72.8599 64.531 72.8685 63.8523 72.5654L64.1041 72.416C63.7337 72.1714 63.3353 71.9722 62.9173 71.8226C63.3784 71.9293 64.9238 72.6764 64.3005 72.0574C63.8096 71.861 63.2546 71.5323 62.7935 71.2932C62.3325 71.0541 61.9696 70.8663 61.8586 71.0114C62.5118 71.4383 61.9568 71.2078 61.6964 71.195C61.6964 71.1182 61.6494 71.0584 61.3506 70.8321C60.9493 70.6272 61.3933 71.0413 60.9877 70.8321C61.4993 71.4424 62.1532 71.9174 62.8917 72.2153C63.2546 72.3989 63.6175 72.5611 63.959 72.749C64.2895 72.9258 64.5952 73.1454 64.8683 73.4021L64.5481 73.2185C64.5012 73.3082 64.1212 73.2826 64.4585 73.4704C63.9974 73.3125 63.5449 73.1204 63.0838 72.9411L63.1308 72.7788C62.277 72.3519 61.1073 71.4682 60.6291 71.4725C60.5309 71.3402 60.9493 71.353 59.9375 70.7126C59.9717 70.9218 59.2374 70.6742 58.5031 69.9741C58.3235 69.7673 58.1325 69.5706 57.9311 69.3849C57.7262 69.1971 57.5042 69.0178 57.3249 68.8257C57.1278 68.6544 56.9451 68.4674 56.7784 68.2664C56.6229 68.0927 56.4961 67.8953 56.4028 67.6816C56.7358 68.0759 57.103 68.4402 57.4999 68.7702C57.9268 69.1288 58.3537 69.3636 58.4049 69.2569C57.5083 68.4541 56.6601 67.5988 55.8649 66.6954C55.0345 65.7433 54.4381 64.6103 54.1231 63.3869C54.1231 63.2418 54.153 63.0923 54.1658 62.96C53.9485 62.365 53.7898 61.7502 53.6919 61.1243C53.7261 60.4199 53.8541 60.7956 53.9737 61.0688C54.0932 61.342 54.1957 61.5256 54.2127 60.5523C54.1658 60.1552 54.1145 60.0314 54.0548 59.9674C53.995 59.9034 53.9139 59.8991 53.8413 59.7369C53.8493 58.9921 53.9851 58.2542 54.2426 57.5554C54.217 57.6877 54.1999 57.8243 54.1829 57.9567C54.2469 57.9951 54.3365 57.7176 54.4603 57.3932C54.5201 57.2309 54.5884 57.0602 54.661 56.9022C54.7188 56.7685 54.7904 56.6412 54.8744 56.5223C54.8744 56.407 54.7592 56.4881 54.6396 56.6461C54.5085 56.8161 54.4061 57.0064 54.3365 57.2096C54.3426 56.5178 54.5634 55.8451 54.9684 55.2842C55.3611 54.6481 55.8649 54.0035 56.3387 53.2265V53.282C56.8467 52.3471 57.4401 52.044 57.8286 51.3311C57.9354 51.3524 57.7859 51.5488 57.5853 51.7793C57.3974 51.9839 57.2327 52.2087 57.0944 52.4496V52.3941C56.9321 52.6332 56.7742 52.8808 56.6248 53.1284C57.1669 52.5008 57.9439 51.9458 58.7934 51.1646C58.9557 50.9042 59.1307 50.6523 59.3057 50.4004C59.0627 50.5271 58.8523 50.7083 58.691 50.9298C58.5696 51.13 58.4264 51.3161 58.2641 51.4848C58.4069 51.1432 58.6191 50.835 58.8874 50.5797C59.1435 50.3065 59.4594 50.0162 59.882 49.5509C60.2449 49.4186 60.7359 49.124 61.3079 48.8636C61.88 48.6032 62.4648 48.3043 62.9728 48.108C62.6825 48.2019 62.5673 48.1848 62.6228 48.108C62.6849 48.0399 62.7586 47.9835 62.8405 47.9415L63.054 47.8347C63.1388 47.7971 63.2258 47.7643 63.3144 47.7365C63.5961 47.7365 63.6516 47.7579 63.5833 47.8262C63.4215 47.9463 63.2468 48.048 63.0625 48.1293C62.5459 48.394 62.0038 48.7355 62.3026 48.7739L62.9728 48.4708L63.3528 48.3043L63.673 48.1635C64.07 47.9799 64.3603 47.7963 64.2962 47.6768C63.7285 47.8048 64.9238 47.2114 64.1298 47.3523C64.7915 47.1688 65.2226 47.2499 65.8374 46.887C65.9484 46.9809 66.1533 47.0193 65.8374 47.2755C67.1181 46.7589 67.0583 46.2168 68.3305 45.888L68.2067 45.9862C68.3945 45.9008 68.5909 45.824 68.783 45.7557C68.9751 45.6874 69.1801 45.6362 69.3807 45.5807C69.7777 45.4825 70.1662 45.3886 70.5419 45.3245C71.1602 45.2422 71.7731 45.1239 72.3776 44.9702L72.463 45.2221C72.7618 45.1623 73.1332 45.1111 73.4278 45.0513C73.5345 45.0172 73.3808 45.0001 73.2997 44.9873C73.6506 44.9038 74.0105 44.8636 74.3712 44.8677C74.5975 44.8677 74.7981 44.9104 75.2592 44.919L74.0297 45.047C73.9059 45.1324 74.1407 45.1751 74.3712 45.1538C74.1663 45.1965 73.9443 45.2221 73.7309 45.2477L73.0478 45.3373C72.5667 45.3805 72.0915 45.4749 71.6305 45.6191C71.7159 45.7472 72.1812 45.7087 72.7618 45.6532C73.0521 45.6234 73.368 45.5764 73.6754 45.5294C73.9827 45.4825 74.2816 45.4569 74.5292 45.427C74.3798 45.2818 74.6188 45.2733 74.9561 45.269C75.1268 45.269 75.319 45.269 75.5025 45.2391C75.6671 45.2331 75.8286 45.1924 75.9764 45.1196C76.0959 45.1965 75.9422 45.3117 75.6477 45.4142C75.2728 45.5524 74.8853 45.654 74.4908 45.7173C74.8408 45.7173 75.2976 45.6575 75.7715 45.6106C76.2463 45.5676 76.7182 45.4964 77.1845 45.3971C78.0042 45.158 78.8922 44.9147 79.0971 44.6714C79.65 44.6625 80.2029 44.6839 80.7535 44.7354C80.6809 44.9147 80.1643 44.7354 79.4343 44.8165C78.8452 44.9488 79.5837 45.0556 79.6563 45.1879C80.048 45.1023 80.4551 45.1185 80.8388 45.2349C81.0395 45.2818 81.2657 45.3373 81.4963 45.38C81.7774 45.4411 82.0629 45.4797 82.3501 45.4953C82.472 45.4604 82.5906 45.4147 82.7044 45.3587L82.7941 45.4825C82.0641 45.5252 81.4835 45.4825 80.5784 45.538L81.0822 45.7045C80.616 45.6166 80.1386 45.6065 79.6691 45.6746C79.1535 45.745 78.6308 45.745 78.1152 45.6746C77.6364 45.6772 77.1615 45.7609 76.7107 45.9222C76.446 46.0332 76.3948 46.157 76.5698 46.268C76.9087 46.1657 77.2558 46.0929 77.6072 46.0503C77.9431 46.0208 78.275 45.9565 78.5976 45.8582C78.9306 46.1015 78.4951 46.0802 78.5421 46.3406C78.9875 46.2499 79.4487 46.2734 79.8826 46.4089C80.2483 46.5301 80.6456 46.5149 81.0011 46.3662C80.2924 46.2296 80.1857 46.2424 79.4301 46.046C80.0196 45.9271 80.6153 45.8415 81.2145 45.7899C81.8385 45.7472 82.4647 45.7472 83.0886 45.7899L83.1143 45.8155C82.7513 45.7794 82.385 45.8322 82.047 45.9692C82.3501 45.9692 82.8111 45.9692 83.3277 45.9692C83.6292 46.2337 83.9868 46.4264 84.3736 46.5327C85.2573 46.7077 85.6074 46.9126 86.2734 46.998C86.2498 47.0443 86.2104 47.0806 86.1624 47.1005C86.4356 47.2114 86.4783 47.1773 86.521 47.1474C86.5636 47.1175 86.6234 47.0876 87.0034 47.2413L86.6576 47.0535C87.1442 47.1773 87.2766 47.0279 88.0792 47.2669C88.0792 47.2456 88.0792 47.22 88.0493 47.1986L88.1944 47.2243C88.3918 47.329 88.5974 47.4176 88.8092 47.4889V47.5871L89.2361 47.6469H89.2574L89.5349 47.6896C89.5349 47.6896 89.5349 47.6896 89.5093 47.6554C89.9618 47.6664 90.408 47.7635 90.8242 47.9415C90.5946 47.8429 90.3482 47.7893 90.0984 47.7835C90.5253 47.9158 90.9821 48.0567 91.4218 48.2104C91.3676 48.1939 91.3096 48.1939 91.2553 48.2104C91.3407 48.347 91.8402 48.3513 91.9555 48.4708C91.7804 48.4708 91.2297 48.3086 91.5286 48.4452C92.173 48.7087 92.8367 48.9228 93.5137 49.0856C93.2746 49.1368 93.3856 49.1752 93.1423 49.2307C93.4838 49.2606 94.2351 49.6576 94.3248 49.5338L93.6503 49.2819C93.7784 49.2819 93.7698 49.1496 94.1754 49.2819C93.6735 49.0512 93.1556 48.8572 92.6257 48.7014C92.9208 48.7468 93.2081 48.833 93.4795 48.9575C94.0601 49.0301 92.5617 48.5306 93.3386 48.6757C94.0516 48.9063 94.4401 49.2649 95.3024 49.4228C95.1871 49.4612 95.2512 49.5637 95.4262 49.7088C95.8103 49.8318 96.1879 49.9743 96.5575 50.1358C96.9844 50.3321 97.4754 50.5627 97.8681 50.7292C97.5881 50.665 97.2989 50.652 97.0143 50.6907L97.2662 50.7932L97.5052 50.8743H97.3942C97.9151 51.1006 98.4231 51.3354 98.9055 51.5787C99.6516 52.6197 100.52 53.5671 101.493 54.4005L101.616 54.4688C101.446 54.2639 101.394 54.1444 101.51 54.1871C101.369 54.0462 101.125 53.8328 100.912 53.6321C100.758 53.4891 100.628 53.3219 100.528 53.1369C100.652 53.2733 100.786 53.4003 100.929 53.5168C100.987 53.5622 101.057 53.5916 101.13 53.6022C101.232 53.6236 101.318 53.6022 101.655 53.8797C101.655 53.7986 101.411 53.5638 101.134 53.3205C100.967 53.2265 101.006 53.3888 100.707 53.1156C100.61 52.9489 100.493 52.7954 100.357 52.6588L100.139 52.4539L99.9301 52.2319C99.7892 52.0824 99.6398 51.933 99.5032 51.7623L99.3964 51.6385L99.2641 51.4592L99.2001 51.3738C99.1744 51.3439 99.1616 51.3055 99.1275 51.2927C99.0933 51.2799 98.9994 51.2201 98.9354 51.1774C98.8713 51.1347 98.961 51.1347 99.025 51.1518L99.1403 51.1902C99.19 51.1986 99.2345 51.2262 99.2641 51.2671C99.3324 51.3439 99.4007 51.425 99.469 51.489C99.5373 51.5531 99.5587 51.5659 99.5843 51.5531C99.7337 51.7452 99.8831 51.916 100.011 52.0782L100.22 52.3087C100.293 52.3813 100.37 52.4453 100.442 52.5051C100.733 52.7527 100.993 52.9704 101.232 53.1668C101.46 53.5892 101.777 53.9565 102.163 54.2426C102.385 54.4133 102.628 54.5884 102.871 54.7848C102.991 54.8872 103.115 54.9897 103.234 55.1007C103.354 55.2117 103.49 55.3141 103.614 55.4337C104.498 55.9545 103.226 55.0494 103.977 55.4678C103.896 55.5489 104.246 55.9673 105.04 56.3216L104.353 56.01C104.319 55.9716 104.353 55.9673 104.314 55.9331C103.964 55.6599 103.687 55.613 103.661 55.6556C104.031 55.8456 104.387 56.0595 104.728 56.296C104.728 56.3344 104.502 56.2192 104.477 56.2618C104.844 56.4753 105.33 56.7912 105.497 56.7571L105.424 56.6888C105.612 56.7869 105.809 56.8681 106.001 56.9577C105.915 56.8211 105.753 56.6205 106.291 56.8467C106.521 56.962 106.718 57.0644 106.919 57.1498C107.119 57.2352 107.303 57.2992 107.486 57.3633C107.853 57.4999 108.216 57.628 108.69 57.7688L108.319 57.692C108.525 57.8044 108.742 57.8946 108.968 57.9609C108.895 57.8201 108.878 57.6664 109.638 57.8884C110.023 58.0541 110.418 58.1967 110.82 58.3153C111.307 58.4433 111.832 58.5842 112.263 58.6824C112.34 58.9599 111.226 58.6824 111.196 58.8574C111.621 59.0739 112.066 59.2498 112.524 59.3825C112.788 59.3825 113.489 59.6216 113.352 59.4636C112.925 59.327 112.677 59.3527 112.268 59.2417C112.319 59.1307 113.121 59.4508 113.207 59.3612L112.78 59.1691C113.454 59.2801 112.963 58.9983 113.758 59.2118L114.419 59.4893C114.957 59.5618 114.68 59.3996 114.547 59.3356C114.96 59.43 115.378 59.5013 115.798 59.549C115.452 59.4722 115.371 59.5106 115.371 59.549C115.693 59.6486 116.029 59.6976 116.366 59.6942C116.733 59.7042 117.096 59.7778 117.437 59.9119C117.029 59.7896 116.604 59.7291 116.178 59.7326C115.956 59.7667 117.011 60.0272 116.123 59.8948C116.396 59.9802 116.669 60.0741 116.942 60.1552C117.113 60.1552 117.613 60.1552 117.058 60.0442C117.314 60.0741 117.63 60.1211 117.877 60.1467C118.125 60.1723 118.219 60.1253 118.24 60.0656C118.219 60.1168 118.317 60.1552 118.488 60.1424C118.714 60.1264 118.935 60.0745 119.145 59.9887C119.233 59.9494 119.306 59.8838 119.354 59.8009C119.354 59.7539 119.299 59.7625 119.073 59.8735C119.284 59.747 119.485 59.6043 119.674 59.4466L119.542 59.5063C119.741 59.3932 119.933 59.2662 120.114 59.1264C120.01 59.2532 119.885 59.3602 119.743 59.4423C119.581 59.549 119.452 59.6301 119.546 59.6301C119.777 59.5277 120.059 59.2587 120.037 59.3441C120.323 59.1093 120.614 58.6995 120.464 58.7507C120.315 58.8019 120.212 59.0111 120.136 59.0154C120.261 58.828 120.429 58.673 120.626 58.5629C120.858 58.4368 121.051 58.251 121.186 58.025L121.152 58.0805C121.152 58.1659 121.369 57.9225 121.472 57.8073C121.655 57.4529 121.301 57.9353 121.348 57.7646ZM91.5072 48.2061L91.8359 48.3086C91.7246 48.2803 91.6149 48.2461 91.5072 48.2061ZM106.944 47.395H106.97C106.91 47.395 106.842 47.395 106.816 47.3651C106.79 47.3353 106.782 47.3651 106.739 47.3651C106.739 47.3011 106.85 47.3395 106.872 47.2926C106.792 47.288 106.712 47.288 106.632 47.2926C106.654 47.2926 106.603 47.2926 106.632 47.331C106.662 47.3694 106.568 47.331 106.568 47.3011C106.612 47.2968 106.654 47.2837 106.692 47.2627C106.611 47.2328 106.692 47.2413 106.62 47.2157C106.547 47.1901 106.62 47.2456 106.581 47.2371C106.58 47.2414 106.581 47.2459 106.582 47.25C106.584 47.254 106.587 47.2575 106.591 47.2598C106.595 47.2622 106.599 47.2633 106.603 47.263C106.608 47.2628 106.612 47.2612 106.615 47.2584C106.615 47.2926 106.539 47.2584 106.547 47.3011C106.556 47.3438 106.466 47.2627 106.462 47.2285C106.457 47.1944 106.462 47.2669 106.462 47.2755H106.325C106.325 47.2413 106.201 47.2413 106.146 47.1944C106.193 47.1944 106.223 47.1944 106.27 47.22C106.317 47.2456 106.244 47.22 106.27 47.22C106.295 47.22 106.321 47.22 106.342 47.22C106.393 47.22 106.295 47.2456 106.364 47.2669C106.432 47.2883 106.415 47.2285 106.445 47.2243C106.424 47.2125 106.403 47.2025 106.381 47.1944C106.363 47.2063 106.342 47.2127 106.321 47.2127C106.3 47.2127 106.279 47.2063 106.261 47.1944C106.295 47.1944 106.342 47.1944 106.317 47.1944H106.206C106.206 47.1944 106.295 47.22 106.265 47.1944C106.235 47.1688 106.206 47.156 106.167 47.1944C106.129 47.2328 106.167 47.2499 106.137 47.2499C106.107 47.2499 106.078 47.2285 106.06 47.2499C106.043 47.2712 106.06 47.2157 106.013 47.2072C105.967 47.1986 106.013 47.2072 106.013 47.2328C106.013 47.2584 105.881 47.2115 105.86 47.156C105.86 47.156 105.834 47.156 105.813 47.156C105.791 47.156 105.757 47.0791 105.834 47.0962C105.842 47.1017 105.851 47.1047 105.86 47.1047C105.869 47.1047 105.878 47.1017 105.885 47.0962C105.855 47.0721 105.833 47.0393 105.821 47.0023C105.847 47.0023 105.843 47.0322 105.856 47.0492C105.868 47.0663 105.856 47.0108 105.856 47.0023C105.856 46.9937 105.774 46.9468 105.791 46.934C105.74 46.934 105.715 46.9638 105.723 46.9937C105.662 46.999 105.601 46.999 105.54 46.9937C105.514 46.9596 105.433 46.934 105.446 46.9041C105.469 46.9158 105.493 46.9245 105.518 46.9297C105.497 46.8913 105.433 46.887 105.403 46.887C105.373 46.887 105.403 46.8486 105.369 46.8358C105.335 46.823 105.322 46.8358 105.271 46.8358C105.219 46.8358 105.241 46.7419 105.16 46.6949V46.7248C105.105 46.6623 105.065 46.5877 105.044 46.5071H105.015C105.015 46.4558 104.976 46.4259 104.968 46.3662C104.968 46.3662 104.993 46.3662 105.006 46.3961C104.996 46.3683 104.989 46.3397 104.985 46.3107C104.985 46.3107 105.023 46.332 105.019 46.2723C105.019 46.3064 105.083 46.379 105.07 46.3064C105.07 46.3064 105.04 46.2594 105.04 46.2125C105.04 46.2723 105.061 46.1826 105.079 46.157C105.096 46.1314 105.079 46.157 105.053 46.1826C105.051 46.1513 105.051 46.12 105.053 46.0887V46.0631C105.053 46.0631 105.01 45.9862 104.98 46.0118L105.002 46.0332C104.986 46.0447 104.972 46.0575 104.959 46.0716C104.959 45.9692 105.027 45.9179 105.066 45.8027C105.091 45.777 105.104 45.8325 105.113 45.7514C105.113 45.7514 105.113 45.713 105.074 45.7514C105.096 45.7173 105.151 45.7002 105.143 45.6447C105.134 45.5892 105.19 45.6447 105.181 45.6703L105.215 45.6276C105.237 45.5465 105.19 45.5465 105.215 45.4611C105.215 45.4611 105.215 45.427 105.177 45.4611V45.5124C105.151 45.5124 105.177 45.4611 105.138 45.5124C105.155 45.4906 105.168 45.466 105.177 45.4398C105.177 45.4398 105.211 45.4398 105.215 45.4398C105.219 45.4398 105.215 45.4142 105.215 45.3843C105.215 45.3544 105.215 45.4313 105.194 45.4483C105.172 45.4654 105.258 45.4056 105.283 45.3928C105.309 45.38 105.241 45.3928 105.249 45.3288C105.258 45.2648 105.313 45.2648 105.343 45.2562C105.373 45.2477 105.343 45.2093 105.322 45.2263C105.301 45.2434 105.365 45.1922 105.365 45.2007C105.365 45.2093 105.458 45.1239 105.454 45.0897C105.45 45.0556 105.501 45.0897 105.527 45.0897C105.552 45.0897 105.561 45.03 105.595 45.0129C105.629 44.9958 105.685 44.9915 105.698 44.9702C105.71 44.9488 105.672 44.9958 105.672 45.0043C105.672 45.0129 105.723 45.0043 105.74 44.9787H105.779V44.9531C105.834 44.9531 105.779 45.0342 105.847 45.0257C105.915 45.0172 105.847 44.9659 105.902 44.9318H105.958C105.958 44.8891 106.06 44.9318 106.035 44.8934C106.107 44.8934 106.069 44.9232 106.112 44.9275C106.154 44.9318 106.171 44.9275 106.214 44.9275C106.295 44.9574 106.355 44.8805 106.402 44.9659H106.368C106.368 44.9659 106.457 45.0129 106.462 44.9659C106.462 45.0001 106.423 44.9659 106.462 45.0086C106.462 45.0086 106.419 45.0086 106.402 45.0086C106.385 45.0086 106.445 45.0428 106.445 45.0428H106.415C106.434 45.0493 106.455 45.0493 106.475 45.0428C106.475 45.0428 106.475 45.0172 106.475 45.0086C106.475 45.0001 106.475 45.0086 106.509 45.0086V44.9787C106.551 44.9787 106.509 45.0214 106.581 45.0342C106.581 45.0342 106.581 45.0342 106.56 45.0342C106.539 45.0342 106.688 45.0769 106.697 45.1068C106.637 45.1068 106.726 45.1452 106.697 45.158C106.765 45.158 106.761 45.2434 106.812 45.2221C106.863 45.2007 106.812 45.2989 106.872 45.3203L106.923 45.3587L106.965 45.3886H107.012L107.038 45.4184C107.038 45.3971 107.072 45.4184 107.098 45.4184C107.123 45.4184 107.076 45.4184 107.068 45.4398L107.166 45.5124C107.196 45.5124 107.256 45.5124 107.251 45.4825C107.247 45.4526 107.205 45.5124 107.187 45.4825L107.243 45.4611C107.243 45.4611 107.243 45.4142 107.2 45.4184C107.239 45.3971 107.251 45.4697 107.29 45.4611C107.328 45.4526 107.29 45.5038 107.29 45.5252L107.358 45.5679C107.358 45.5679 107.337 45.5679 107.324 45.5679C107.311 45.5679 107.324 45.6234 107.35 45.649C107.375 45.6746 107.401 45.649 107.388 45.6234C107.375 45.5977 107.435 45.6575 107.482 45.6703C107.529 45.6831 107.516 45.6703 107.516 45.6362C107.516 45.602 107.546 45.6831 107.567 45.6661C107.561 45.6906 107.547 45.7127 107.529 45.7301C107.559 45.7728 107.559 45.7002 107.589 45.7301V45.6959C107.614 45.6959 107.644 45.6959 107.687 45.6959C107.73 45.6959 107.687 45.6703 107.687 45.6959C107.687 45.7215 107.687 45.7429 107.725 45.7728C107.764 45.8027 107.806 45.7728 107.828 45.8027C107.849 45.8325 107.789 45.7728 107.781 45.8027L107.879 45.871C107.879 45.871 107.858 45.8453 107.841 45.871C107.824 45.8966 107.879 45.871 107.875 45.9051C107.871 45.9393 107.828 45.9051 107.841 45.9051C107.869 45.9418 107.907 45.9688 107.952 45.982L107.905 46.0204C107.93 46.0204 107.96 46.0716 107.982 46.046L107.943 46.0161C107.943 46.0161 107.969 45.9862 107.99 46.0161C108.011 46.046 107.926 45.9435 107.909 45.9435C107.892 45.9435 107.952 45.9435 107.96 45.9734C107.969 46.0033 107.922 45.9094 107.96 45.9179C107.999 45.9265 107.999 46.0033 108.063 46.0033C108.058 46.0119 108.056 46.0214 108.056 46.0311C108.056 46.0407 108.058 46.0502 108.063 46.0588C108.112 46.0856 108.16 46.117 108.204 46.1527C108.165 46.1527 108.148 46.1783 108.118 46.1869L108.43 46.3704C108.43 46.3704 108.43 46.3363 108.43 46.332C108.43 46.3278 108.353 46.2893 108.353 46.268C108.417 46.3064 108.404 46.268 108.46 46.268C108.515 46.268 108.46 46.2381 108.425 46.2253C108.391 46.2125 108.404 46.2552 108.374 46.2509C108.344 46.2466 108.268 46.2253 108.229 46.1655C108.191 46.1058 108.272 46.1655 108.285 46.1655C108.334 46.1893 108.388 46.2024 108.443 46.2039C108.443 46.2552 108.443 46.268 108.511 46.2936C108.564 46.315 108.609 46.3505 108.643 46.3961C108.737 46.4345 108.622 46.3534 108.707 46.3961C108.682 46.3961 108.707 46.4558 108.771 46.4857L108.694 46.4601C108.682 46.4525 108.668 46.4485 108.654 46.4485C108.64 46.4485 108.626 46.4525 108.613 46.4601C108.647 46.4668 108.678 46.4831 108.703 46.5071C108.703 46.5071 108.677 46.5071 108.665 46.5071C108.692 46.5309 108.727 46.5432 108.763 46.5412H108.814C108.835 46.5412 108.848 46.5071 108.908 46.5412C108.996 46.5865 109.088 46.6264 109.181 46.6607H109.121C109.135 46.6764 109.153 46.6882 109.173 46.6949C109.244 46.6825 109.317 46.693 109.382 46.7248C109.416 46.7511 109.454 46.7739 109.493 46.7931L109.582 46.8358L109.638 46.8657C109.577 46.86 109.517 46.8486 109.459 46.8315C109.406 46.8156 109.351 46.8042 109.296 46.7973H109.266H109.207C109.237 46.7973 109.207 46.7973 109.237 46.7973C109.266 46.7973 109.237 46.7973 109.284 46.7973C109.284 46.7973 109.241 46.776 109.254 46.7675C109.339 46.7675 109.254 46.7675 109.335 46.8016H109.399C109.433 46.8016 109.514 46.8272 109.557 46.8443H109.501H109.305C109.258 46.8443 109.369 46.8699 109.416 46.8742C109.296 46.8742 109.279 46.9126 109.232 46.9126C109.301 46.9126 109.275 46.9126 109.232 46.887C109.066 46.887 109.147 46.951 108.929 46.9425C109.002 46.9425 109.104 46.9425 109.091 46.9041C109.079 46.8657 108.908 46.9041 109.01 46.8785H108.861C108.861 46.8785 108.823 46.9083 108.904 46.8785C108.848 46.8785 108.758 46.9126 108.788 46.934C108.818 46.9553 108.699 46.934 108.639 46.934C108.579 46.934 108.618 46.9809 108.673 46.9553L108.605 47.0023L108.528 47.0279C108.528 47.0279 108.63 46.9895 108.592 46.9766C108.554 46.9638 108.532 47.0108 108.528 46.998C108.524 46.9852 108.455 47.0578 108.477 47.062C108.498 47.0663 108.515 47.0407 108.528 47.062C108.464 47.1261 108.438 47.062 108.379 47.109C108.379 47.109 108.357 47.109 108.344 47.109C108.332 47.109 108.366 47.109 108.344 47.1346C108.324 47.1391 108.304 47.1463 108.285 47.156C108.31 47.156 108.31 47.156 108.327 47.156C108.263 47.1944 108.233 47.156 108.178 47.156C108.128 47.1973 108.067 47.2239 108.003 47.2328C108.05 47.2072 108.071 47.2328 108.122 47.1901C108.101 47.1901 108.161 47.1389 108.097 47.1474C108.033 47.156 107.922 47.2114 107.883 47.2456C107.845 47.2798 107.947 47.1901 107.964 47.2456C107.982 47.3011 107.871 47.284 107.858 47.2456C107.845 47.2072 107.789 47.2456 107.789 47.284C107.789 47.3224 107.789 47.284 107.811 47.284C107.832 47.284 107.764 47.284 107.764 47.284C107.76 47.2701 107.76 47.2552 107.764 47.2413C107.734 47.2413 107.734 47.2712 107.695 47.2798C107.657 47.2883 107.64 47.2798 107.64 47.2584C107.64 47.2371 107.64 47.3054 107.61 47.3182C107.58 47.331 107.64 47.284 107.61 47.2883C107.58 47.2926 107.708 47.2541 107.695 47.2243C107.683 47.1944 107.619 47.2499 107.631 47.2243L107.61 47.2456C107.559 47.22 107.52 47.2456 107.456 47.2456C107.392 47.2456 107.418 47.2968 107.456 47.2926C107.409 47.2926 107.456 47.3182 107.384 47.3224C107.311 47.3267 107.384 47.3224 107.384 47.3224C107.384 47.3224 107.384 47.3523 107.345 47.3481C107.307 47.3438 107.345 47.3481 107.324 47.3481L107.298 47.3779C107.269 47.3566 107.298 47.3395 107.333 47.331C107.29 47.331 107.26 47.3523 107.234 47.331C107.209 47.3096 107.26 47.331 107.256 47.331C107.179 47.331 107.192 47.3609 107.128 47.3694C107.153 47.395 107.179 47.3694 107.217 47.3694V47.4078C107.217 47.4078 107.179 47.3822 107.175 47.4078H107.2C107.175 47.4078 107.14 47.3822 107.102 47.4078L107.064 47.3737C107.064 47.3438 107.115 47.3737 107.14 47.3481C107.166 47.3224 107.213 47.3224 107.14 47.3011C107.111 47.2945 107.08 47.2945 107.051 47.3011H107.076C107.004 47.3011 106.953 47.3224 106.889 47.3011C106.825 47.2798 106.91 47.331 106.919 47.3395C106.927 47.3481 106.995 47.3395 106.995 47.3395C106.995 47.3395 106.872 47.3395 106.842 47.3395H106.816C106.855 47.3641 106.899 47.3801 106.944 47.3865V47.395Z" fill="#C10230"/>
<path d="M138.595 99.7082L134.813 90.534C136.567 89.0184 137.63 86.6918 137.63 83.8657V83.1101C137.63 78.1238 134.262 74.6189 129.831 74.6189H122.334C121.822 74.6189 121.613 74.8238 121.613 75.3404V99.674C121.613 100.191 121.822 100.395 122.334 100.395H127.081C127.594 100.395 127.803 100.191 127.803 99.674V93.0057C127.803 92.4934 127.939 92.3526 128.456 92.3526H129.412L132.332 99.9173C132.402 100.08 132.523 100.215 132.678 100.302C132.832 100.388 133.011 100.421 133.186 100.395H138.27C138.629 100.395 138.766 100.122 138.595 99.7082ZM131.444 83.5199C131.444 85.5135 130.381 86.5082 129.109 86.5082H128.456C127.939 86.5082 127.803 86.3673 127.803 85.8551V80.7706C127.803 80.2541 127.939 80.1174 128.456 80.1174H129.109C130.39 80.1174 131.444 81.1164 131.444 83.1058V83.5199Z" fill="#C10230"/>
<path d="M42.0288 100.75C47.6 100.75 50.1742 96.9674 50.1742 92.8093C50.1742 92.4678 50.14 92.1903 49.7473 92.1903H44.7952C44.7171 92.1791 44.6375 92.1851 44.562 92.2078C44.4864 92.2305 44.4167 92.2695 44.3578 92.3219C44.2989 92.3743 44.2521 92.439 44.2207 92.5114C44.1893 92.5838 44.1741 92.6621 44.1762 92.741C44.0737 93.7741 43.5956 95.042 42.0416 95.042C40.0138 95.042 39.7748 92.9459 39.7748 90.773V84.2413C39.7748 82.0769 40.0138 79.9723 42.0416 79.9723C43.5913 79.9723 44.0694 81.253 44.1762 82.2733C44.1741 82.3521 44.1893 82.4305 44.2207 82.5029C44.2521 82.5753 44.2989 82.6399 44.3578 82.6924C44.4167 82.7448 44.4864 82.7838 44.562 82.8065C44.6375 82.8292 44.7171 82.8352 44.7952 82.824H49.7473C50.1742 82.824 50.1742 82.5508 50.1742 82.205C50.1742 78.0469 47.6128 74.2645 42.0288 74.2645C36.1162 74.2645 33.5761 78.3543 33.5761 84.2328V90.7644C33.5761 96.6515 36.1162 100.75 42.0288 100.75Z" fill="#C10230"/>
<path d="M110.069 74.2816C104.156 74.2816 101.612 78.3714 101.612 84.2499V87.0888C101.787 87.3022 101.962 87.5157 102.137 87.7462C102.534 88.3567 102.167 88.092 102.107 88.1347C102.277 88.3616 102.458 88.5796 102.649 88.7879L103.076 89.266C103.233 89.4425 103.376 89.6309 103.503 89.8295C103.709 90.1227 103.891 90.4326 104.045 90.7559C104.332 91.579 104.69 92.3759 105.113 93.138C105.512 93.8375 105.772 94.6071 105.881 95.4049C106.194 96.0047 106.4 96.655 106.487 97.326L106.24 96.7667C106.466 97.7614 106.615 98.6024 106.743 99.3666C106.795 99.6825 106.842 99.9813 106.88 100.276C107.9 100.607 108.967 100.768 110.039 100.754C115.952 100.754 118.496 96.6643 118.496 90.7858V84.2541C118.526 78.3628 115.982 74.2816 110.069 74.2816ZM112.336 90.8071C112.336 92.9715 112.097 95.0335 110.069 95.0335C108.041 95.0335 107.802 92.9715 107.802 90.8071V84.2413C107.802 82.0769 108.041 79.9723 110.069 79.9723C112.097 79.9723 112.336 82.0684 112.336 84.2413V90.8071Z" fill="#C10230"/>
<path d="M142.091 67.165H134.808V69.5514H142.091V67.165Z" fill="#002F87"/>
<path d="M127.978 67.165H120.695V69.5514H127.978V67.165Z" fill="#002F87"/>
<path d="M113.864 67.165H106.581V69.5514H113.864V67.165Z" fill="#002F87"/>
<path d="M100.929 26.0028H98.5427V33.2858H100.929V26.0028Z" fill="#002F87"/>
<path d="M62.832 26.0028H60.4456V33.2858H62.832V26.0028Z" fill="#002F87"/>
<path d="M62.832 54.2299H60.4456V61.5129H62.832V54.2299Z" fill="#002F87"/>
<path d="M26.5663 67.165H19.2833V69.5514H26.5663V67.165Z" fill="#002F87"/>
<path d="M40.6799 67.165H33.3969V69.5514H40.6799V67.165Z" fill="#002F87"/>
<path d="M26.5663 105.262H19.2833V107.649H26.5663V105.262Z" fill="#002F87"/>
<path d="M40.6799 105.262H33.3969V107.649H40.6799V105.262Z" fill="#002F87"/>
<path d="M54.7933 105.262H47.5103V107.649H54.7933V105.262Z" fill="#002F87"/>
<path d="M62.832 141.528H60.4456V148.811H62.832V141.528Z" fill="#002F87"/>
<path d="M62.832 127.414H60.4456V134.697H62.832V127.414Z" fill="#002F87"/>
<path d="M100.929 141.528H98.5427V148.811H100.929V141.528Z" fill="#002F87"/>
<path d="M100.929 127.414H98.5427V134.697H100.929V127.414Z" fill="#002F87"/>
<path d="M142.091 105.262H134.808V107.649H142.091V105.262Z" fill="#002F87"/>
<path d="M127.978 105.262H120.695V107.649H127.978V105.262Z" fill="#002F87"/>
<path d="M80.3479 20.9611C86.1361 20.9611 90.8284 16.2688 90.8284 10.4805C90.8284 4.6923 86.1361 0 80.3479 0C74.5597 0 69.8674 4.6923 69.8674 10.4805C69.8674 16.2688 74.5597 20.9611 80.3479 20.9611Z" fill="#002F87"/>
<path d="M99.7551 41.6361C99.7238 41.6351 99.6929 41.6425 99.6654 41.6575H100.092C100.229 41.6575 100.319 41.6319 100.272 41.5977C100.219 41.5917 100.166 41.5917 100.114 41.5977C100.267 41.5977 100.43 41.5977 100.588 41.5678C100.745 41.5379 100.818 41.5251 100.921 41.4995V40.1292H98.5341V41.5379C98.9389 41.5936 99.3466 41.6264 99.7551 41.6361Z" fill="#002F87"/>
<path d="M84.3523 48.0568C83.9474 48.1362 83.5326 48.1521 83.1228 48.1037C83.1228 48.2062 83.3918 48.3086 82.9777 48.3513C83.2893 48.2233 82.2647 48.0226 81.3682 47.8817C80.6415 48.1848 79.8455 48.2823 79.0672 48.1635C79.4941 48.1635 80.1259 48.1635 80.1259 48.061L79.4728 48.0397H78.8196H77.5175C77.8249 47.9757 78.239 48.1037 78.3714 47.9458C78.1878 47.7451 77.5175 48.0269 77.2998 47.886C77.5346 47.7835 78.3628 47.7451 77.9103 47.6555C77.4237 47.6008 76.9326 47.6008 76.446 47.6555H76.2496V47.8945H76.2923H76.2496L76.6509 61.1756L78.1109 103.572L78.3799 111.358C78.858 111.226 79.3148 111.085 79.7076 110.931C80.5016 110.705 81.4152 110.423 82.3458 110.142L82.4995 105.774L84.0833 59.9077L84.4419 48.0226L84.3523 48.0568Z" fill="#002F87"/>
<path d="M75.3958 19.2534L75.8569 34.5793C76.0359 34.5923 76.2157 34.5923 76.3948 34.5793C76.2693 34.5838 76.1454 34.6083 76.0276 34.6519C76.7195 34.7091 77.4148 34.7091 78.1067 34.6519C78.3915 34.6291 78.678 34.6392 78.9605 34.6818C79.2786 34.7416 79.5845 34.8542 79.8655 35.0148C79.6734 35.0831 79.1056 34.9251 79.1654 35.0575C79.8911 35.0575 81.1975 35.4289 81.0609 35.1087C81.6713 35.4246 80.4589 35.224 81.761 35.5356C81.3745 35.5837 80.9846 35.5994 80.5955 35.5826C80.7584 35.6889 80.9415 35.7601 81.1334 35.7917C81.3853 35.8558 81.6329 35.9027 81.6329 35.9027C81.4152 35.9027 81.0865 35.9027 81.0779 35.9881C81.4939 36.0431 81.9136 36.0645 82.333 36.0522C82.6319 35.9924 82.1281 35.7832 81.8805 35.7064C82.2092 35.7064 82.2818 35.9155 82.6532 35.8985V35.6295C83.5711 35.8216 83.1143 36.0564 84.3608 36.176C84.1474 36.176 84.1687 36.2315 84.0108 36.2528C84.2504 36.3624 84.5008 36.4468 84.7579 36.5047L85.2744 19.2534H75.3958Z" fill="#002F87"/>
<path d="M80.9413 124.23L81.2956 124.14C81.317 124.029 80.2455 124.225 79.8314 124.195C79.6393 124.289 80.301 124.341 80.6211 124.285C80.0574 124.524 79.4531 124.653 78.8409 124.665L78.9135 126.825L79.8314 155.855H80.8602L81.7781 126.825L81.872 124.11L80.9413 124.23Z" fill="#002F87"/>
<path d="M100.532 55.263C100.331 55.0069 100.114 54.7631 99.8831 54.533L99.6185 54.2299H98.5427V61.5129H100.929V55.5362C100.81 55.4508 100.686 55.3612 100.532 55.263Z" fill="#002F87"/>
<path d="M98.7689 116.784L98.5427 116.976V117.25C98.9568 116.848 99.277 116.503 98.7689 116.784Z" fill="#002F87"/>
<path d="M100.681 116.409C100.741 116.323 100.831 116.208 100.929 116.08V115.119C100.805 115.243 100.664 115.38 100.502 115.546L100.822 115.158C100.585 115.385 100.33 115.592 100.058 115.777C99.9084 115.886 99.7658 116.004 99.6312 116.131C99.5183 116.229 99.4279 116.35 99.3666 116.485C99.1915 116.87 100.182 116.144 98.9397 117.288V117.036C98.7916 117.126 98.6491 117.224 98.5128 117.331V117.728C98.7177 117.557 98.9397 117.382 99.1318 117.228C99.4628 116.953 99.8154 116.704 100.186 116.485C100.08 116.584 99.9685 116.673 99.8575 116.759C99.9045 116.814 99.6782 117.147 100.02 116.878L99.4221 117.476L98.7988 118.039L98.6878 117.971L98.5128 118.112V120.601H100.899V116.17L100.681 116.409Z" fill="#002F87"/>
<path d="M62.8362 115.427V113.292H60.4498V116.302C61.325 116.003 62.166 115.691 62.8362 115.427Z" fill="#002F87"/>
<path d="M38.2507 136.302L37.8238 136.729L37.3585 137.263C37.3585 137.263 37.6403 136.836 37.5165 136.836L36.9999 137.532L36.5132 138.249L36.6413 138.095C36.5462 138.246 36.4743 138.41 36.4279 138.582C37.2283 137.524 38.1044 136.525 39.0491 135.594L38.9466 135.683C38.7246 135.837 38.5026 136.046 38.2507 136.302Z" fill="#002F87"/>
<path d="M40.5774 134.147C40.788 133.964 41.0014 133.785 41.2177 133.609L41.1622 133.562C41.5891 133.353 41.7599 133.028 42.0161 132.781C41.5337 133.135 41.3544 133.049 40.8378 133.562C40.3212 134.074 40.428 134.142 40.5774 134.147Z" fill="#002F87"/>
<path d="M107.32 45.5809C107.325 45.5829 107.33 45.5839 107.335 45.5839C107.34 45.5839 107.346 45.5829 107.35 45.5809L107.282 45.5551C107.277 45.5528 107.272 45.5516 107.267 45.5516C107.261 45.5516 107.256 45.5528 107.252 45.5551L107.38 45.6453C107.364 45.6205 107.344 45.5987 107.32 45.5809Z" fill="#002F87"/>
<path d="M107.491 45.6792C107.491 45.705 107.521 45.6792 107.534 45.6792C107.547 45.6792 107.534 45.6406 107.499 45.6363C107.465 45.632 107.461 45.6363 107.456 45.6577H107.482L107.491 45.6792Z" fill="#002F87"/>
<path d="M106.927 105.262C106.88 105.518 106.829 105.779 106.765 106.056C106.692 106.172 106.645 106.172 106.581 106.3V107.649H113.864V105.262H106.927Z" fill="#002F87"/>
<path d="M2.01501 176.513V171.39C2.01501 168.269 3.4238 166.211 6.42495 166.211C9.22545 166.211 10.6172 168.086 10.6556 170.301C10.6556 170.502 10.6556 170.664 10.3952 170.664H8.19661C7.97889 170.664 7.87643 170.583 7.85508 170.361C7.73555 169.639 7.35134 168.892 6.42495 168.892C5.29792 168.892 4.9137 169.981 4.9137 171.39V176.513C4.9137 177.926 5.29792 179.01 6.42495 179.01C7.35134 179.01 7.73555 178.267 7.85508 177.542C7.87643 177.32 7.97889 177.238 8.19661 177.238H10.3952C10.6342 177.238 10.6769 177.401 10.6556 177.601C10.6172 179.817 9.22545 181.691 6.42495 181.691C3.4238 181.691 2.01501 179.638 2.01501 176.513Z" fill="#002F87"/>
<path d="M12.44 177.401V174.681C12.44 171.539 14.5361 170.391 16.3505 170.391C18.1648 170.391 20.2566 171.539 20.2566 174.681V177.401C20.2566 180.543 18.1605 181.691 16.3505 181.691C14.5404 181.691 12.44 180.543 12.44 177.401ZM16.3505 172.828C15.804 172.828 15.1807 173.191 15.1807 174.237V177.845C15.1807 178.891 15.804 179.253 16.3505 179.253C16.8969 179.253 17.5159 178.891 17.5159 177.845V174.237C17.5245 173.191 16.8798 172.828 16.359 172.828H16.3505Z" fill="#002F87"/>
<path d="M26.2291 179.616V181.085C26.2291 181.388 26.1053 181.512 25.8022 181.512C23.023 181.512 22.0155 180.526 22.0155 177.67V166.826C22.0155 166.523 22.1393 166.399 22.4424 166.399H24.3336C24.6367 166.399 24.7605 166.519 24.7605 166.826V177.964C24.7605 178.852 25.2643 179.151 25.8064 179.194C26.101 179.232 26.2291 179.3 26.2291 179.616Z" fill="#002F87"/>
<path d="M31.9069 179.616V181.085C31.9069 181.388 31.7874 181.512 31.48 181.512C28.7009 181.512 27.6934 180.526 27.6934 177.67V166.826C27.6934 166.523 27.8129 166.399 28.1203 166.399H30.0157C30.3146 166.399 30.4426 166.519 30.4426 166.826V177.964C30.4426 178.852 30.9464 179.151 31.4885 179.194C31.7874 179.232 31.9069 179.3 31.9069 179.616Z" fill="#002F87"/>
<path d="M40.8719 174.66V175.006C40.8712 175.348 40.8512 175.69 40.8122 176.03C40.7695 176.333 40.6884 176.457 40.3853 176.457H36.1546C35.9924 176.457 35.954 176.5 35.954 176.658V177.866C35.954 178.895 36.5986 179.258 37.1408 179.258C37.3829 179.26 37.6191 179.183 37.8123 179.037C38.0055 178.891 38.1447 178.685 38.208 178.451C38.2197 178.371 38.262 178.3 38.3258 178.251C38.3896 178.202 38.4699 178.181 38.5496 178.19H40.4237C40.667 178.19 40.7054 178.37 40.6841 178.553C40.4023 181.008 38.6307 181.695 37.1408 181.695C35.288 181.695 33.273 180.607 33.273 176.961V175.108C33.273 171.484 35.288 170.412 37.1408 170.412C38.8356 170.391 40.8719 171.296 40.8719 174.66ZM37.2262 172.688C37.0466 172.687 36.8689 172.724 36.7046 172.796C36.5402 172.868 36.3928 172.974 36.2721 173.107C36.1513 173.24 36.0598 173.396 36.0036 173.567C35.9473 173.737 35.9275 173.918 35.9454 174.096V174.4C35.9454 174.562 35.9839 174.6 36.1461 174.6H38.2806C38.4428 174.6 38.4813 174.562 38.4813 174.4V174.096C38.499 173.92 38.4799 173.742 38.4252 173.573C38.3704 173.404 38.2812 173.249 38.1632 173.116C38.0452 172.984 37.901 172.877 37.7397 172.804C37.5784 172.73 37.4035 172.69 37.2262 172.688Z" fill="#002F87"/>
<path d="M49.854 178.549C49.5723 181.004 47.822 181.691 46.3107 181.691C44.3555 181.691 42.524 180.602 42.524 177.401V174.681C42.524 171.479 44.3555 170.391 46.3107 170.391C47.822 170.391 49.5723 171.074 49.854 173.533C49.8754 173.716 49.854 173.896 49.5936 173.896H47.8006C47.721 173.906 47.6406 173.884 47.5768 173.835C47.513 173.786 47.4707 173.715 47.4591 173.635C47.402 173.405 47.2698 173.201 47.0834 173.055C46.897 172.909 46.6671 172.829 46.4302 172.828C45.8881 172.828 45.2648 173.191 45.2648 174.22V177.862C45.2648 178.891 45.8881 179.253 46.4302 179.253C46.6649 179.25 46.8918 179.169 47.0756 179.023C47.2594 178.877 47.3897 178.674 47.4463 178.447C47.4579 178.367 47.5002 178.295 47.564 178.247C47.6278 178.198 47.7081 178.176 47.7878 178.186H49.5808C49.837 178.186 49.8754 178.365 49.854 178.549Z" fill="#002F87"/>
<path d="M52.3728 177.943V173.11C52.3728 172.85 52.313 172.769 52.0526 172.769H51.6471C51.3482 172.769 51.2202 172.649 51.2202 172.342V170.993C51.2202 170.69 51.344 170.566 51.6471 170.566H52.1935C52.4539 170.566 52.535 170.502 52.535 170.22V168.692C52.535 168.389 52.6546 168.265 52.9619 168.265H54.6354C54.9385 168.265 55.0623 168.384 55.0623 168.692V170.22C55.0623 170.502 55.1221 170.566 55.3825 170.566H56.3516C56.6547 170.566 56.7785 170.685 56.7785 170.993V172.342C56.7785 172.645 56.6589 172.769 56.3516 172.769H55.4636C55.2032 172.769 55.1221 172.85 55.1221 173.11V177.943C55.1221 178.75 55.4849 179.224 56.3516 179.224C56.6547 179.224 56.7785 179.343 56.7785 179.65V181.098C56.7785 181.401 56.6589 181.525 56.3516 181.525C53.5809 181.508 52.3728 180.581 52.3728 177.943Z" fill="#002F87"/>
<path d="M57.9525 167.006C57.9525 166.683 58.048 166.367 58.2269 166.099C58.4058 165.83 58.6602 165.621 58.9579 165.497C59.2557 165.372 59.5836 165.339 59.9003 165.401C60.217 165.463 60.5083 165.617 60.7377 165.844C60.967 166.07 61.124 166.36 61.189 166.676C61.254 166.992 61.2241 167.32 61.103 167.62C60.9818 167.919 60.7749 168.175 60.5083 168.357C60.2417 168.538 59.9272 168.637 59.6046 168.641C59.3881 168.644 59.1732 168.604 58.9723 168.523C58.7714 168.443 58.5887 168.323 58.4348 168.17C58.281 168.018 58.159 167.837 58.0762 167.637C57.9934 167.437 57.9513 167.222 57.9525 167.006ZM60.975 170.997V181.085C60.975 181.388 60.8554 181.512 60.5481 181.512H58.6569C58.3538 181.512 58.23 181.392 58.23 181.085V170.997C58.23 170.694 58.3538 170.57 58.6569 170.57H60.5481C60.8554 170.574 60.975 170.694 60.975 170.997Z" fill="#002F87"/>
<path d="M63.5748 181.085V173.11C63.5748 172.85 63.5151 172.769 63.2504 172.769H62.8491C62.546 172.769 62.4222 172.649 62.4222 172.342V170.993C62.4222 170.69 62.5417 170.566 62.8491 170.566H63.276C63.5364 170.566 63.6175 170.502 63.6175 170.284V169.537C63.6175 167.343 64.9495 166.395 67.545 166.395C67.8481 166.395 67.972 166.515 67.972 166.822V168.29C67.972 168.594 67.8524 168.717 67.545 168.717C66.7211 168.717 66.2643 169.02 66.2643 169.546V170.293C66.2643 170.493 66.3454 170.574 66.5461 170.574H67.5536C67.8567 170.574 67.9805 170.694 67.9805 171.001V172.35C67.9805 172.653 67.861 172.777 67.5536 172.777H66.6571C66.3924 172.777 66.3113 172.858 66.3113 173.119V181.093C66.3113 181.397 66.1918 181.52 65.8844 181.52H63.9932C63.6944 181.508 63.5748 181.388 63.5748 181.085Z" fill="#002F87"/>
<path d="M81.6842 166.826V181.085C81.6842 181.388 81.5604 181.512 81.2573 181.512H79.8314C79.5283 181.512 79.4472 181.371 79.4045 181.085L79.2423 180.419C78.788 181.033 78.1322 181.469 77.3895 181.648C75.6178 182.011 73.8846 180.722 73.8846 178.344V173.751C73.8846 171.373 75.6178 170.083 77.3895 170.446C77.9935 170.582 78.5417 170.9 78.9605 171.356V166.826C78.9605 166.523 79.08 166.399 79.3874 166.399H81.2786C81.5604 166.404 81.6842 166.523 81.6842 166.826ZM78.9434 177.845V174.237C78.9434 173.251 78.3372 172.828 77.795 172.828C77.2529 172.828 76.6082 173.191 76.6082 174.237V177.845C76.6082 178.891 77.2529 179.275 77.795 179.253C78.3372 179.232 78.9434 178.831 78.9434 177.845Z" fill="#002F87"/>
<path d="M91.0291 174.66V175.006C91.0283 175.348 91.0084 175.69 90.9693 176.03C90.9266 176.333 90.8498 176.457 90.5424 176.457H86.3118C86.1496 176.457 86.1111 176.5 86.1111 176.658V177.866C86.1111 178.895 86.7558 179.258 87.2979 179.258C87.5401 179.26 87.7763 179.183 87.9695 179.037C88.1626 178.891 88.3018 178.685 88.3652 178.451C88.3769 178.371 88.4191 178.3 88.4829 178.251C88.5468 178.202 88.6271 178.181 88.7067 178.19H90.5808C90.8242 178.19 90.8626 178.37 90.8455 178.553C90.5595 181.008 88.7878 181.695 87.2979 181.695C85.4452 181.695 83.4302 180.607 83.4302 176.961V175.108C83.4302 171.484 85.4452 170.412 87.2979 170.412C88.9928 170.391 91.0291 171.296 91.0291 174.66ZM87.3833 172.688C87.2038 172.687 87.0261 172.724 86.8617 172.796C86.6974 172.868 86.55 172.974 86.4292 173.107C86.3085 173.24 86.217 173.396 86.1607 173.567C86.1045 173.737 86.0847 173.918 86.1026 174.096V174.4C86.1026 174.562 86.141 174.6 86.3033 174.6H88.4378C88.6 174.6 88.6384 174.562 88.6384 174.4V174.096C88.6562 173.92 88.6371 173.742 88.5823 173.573C88.5276 173.404 88.4384 173.249 88.3204 173.116C88.2024 172.984 88.0582 172.877 87.8969 172.804C87.7356 172.73 87.5607 172.69 87.3833 172.688Z" fill="#002F87"/>
<path d="M101.663 181.691C99.2257 181.691 97.3302 180.06 97.3132 177.482C97.3132 177.281 97.3132 177.119 97.5736 177.119H99.627C99.849 177.119 99.9685 177.2 99.9899 177.422C100.071 178.186 100.532 179.232 101.697 179.232C101.881 179.243 102.065 179.215 102.238 179.152C102.411 179.089 102.569 178.992 102.703 178.865C102.837 178.739 102.944 178.587 103.017 178.418C103.09 178.249 103.127 178.067 103.128 177.883C103.409 175.266 97.548 174.041 97.548 169.968C97.548 167.834 99.0806 166.22 101.54 166.22C104.156 166.22 105.484 167.975 105.527 170.169C105.527 170.369 105.505 170.532 105.262 170.532H103.209C102.987 170.532 102.889 170.451 102.867 170.229C102.748 169.546 102.44 168.7 101.621 168.7C101.457 168.694 101.294 168.724 101.144 168.788C100.993 168.852 100.859 168.949 100.75 169.072C100.642 169.194 100.562 169.34 100.517 169.497C100.472 169.654 100.463 169.82 100.489 169.981C100.771 172.013 106.069 173.665 106.069 177.695C106.035 180.462 103.597 181.691 101.663 181.691Z" fill="#002F87"/>
<path d="M115.363 174.66V175.006C115.362 175.348 115.342 175.69 115.303 176.03C115.26 176.333 115.179 176.457 114.876 176.457H110.645C110.483 176.457 110.445 176.5 110.445 176.658V177.866C110.445 178.895 111.089 179.258 111.632 179.258C111.874 179.26 112.11 179.183 112.303 179.037C112.496 178.891 112.635 178.685 112.699 178.451C112.71 178.371 112.753 178.3 112.817 178.251C112.88 178.202 112.961 178.181 113.04 178.19H114.914C115.158 178.19 115.196 178.37 115.175 178.553C114.893 181.008 113.121 181.695 111.632 181.695C109.779 181.695 107.764 180.607 107.764 176.961V175.108C107.764 171.484 109.779 170.412 111.632 170.412C113.326 170.391 115.363 171.296 115.363 174.66ZM111.717 172.688C111.537 172.687 111.36 172.724 111.195 172.796C111.031 172.868 110.884 172.974 110.763 173.107C110.642 173.24 110.551 173.396 110.494 173.567C110.438 173.737 110.418 173.918 110.436 174.096V174.4C110.436 174.562 110.475 174.6 110.637 174.6H112.771C112.934 174.6 112.972 174.562 112.972 174.4V174.096C112.99 173.92 112.971 173.742 112.916 173.573C112.861 173.404 112.772 173.249 112.654 173.116C112.536 172.984 112.392 172.877 112.23 172.804C112.069 172.73 111.894 172.69 111.717 172.688Z" fill="#002F87"/>
<path d="M124.345 178.549C124.063 181.004 122.313 181.691 120.802 181.691C118.846 181.691 117.015 180.602 117.015 177.401V174.681C117.015 171.479 118.846 170.391 120.802 170.391C122.313 170.391 124.063 171.074 124.345 173.533C124.366 173.716 124.345 173.896 124.084 173.896H122.291C122.212 173.906 122.131 173.884 122.068 173.835C122.004 173.786 121.962 173.715 121.95 173.635C121.893 173.405 121.761 173.201 121.574 173.055C121.388 172.909 121.158 172.829 120.921 172.828C120.379 172.828 119.756 173.191 119.756 174.22V177.862C119.756 178.891 120.379 179.253 120.921 179.253C121.158 179.253 121.388 179.173 121.574 179.027C121.761 178.881 121.893 178.676 121.95 178.447C121.962 178.367 122.004 178.295 122.068 178.247C122.131 178.198 122.212 178.176 122.291 178.186H124.084C124.328 178.186 124.366 178.365 124.345 178.549Z" fill="#002F87"/>
<path d="M125.997 177.401V174.681C125.997 171.539 128.089 170.391 129.903 170.391C131.717 170.391 133.809 171.539 133.809 174.681V177.401C133.809 180.543 131.713 181.691 129.903 181.691C128.093 181.691 125.997 180.543 125.997 177.401ZM129.903 172.828C129.357 172.828 128.733 173.191 128.733 174.237V177.845C128.733 178.891 129.357 179.253 129.903 179.253C130.45 179.253 131.069 178.891 131.069 177.845V174.237C131.073 173.191 130.428 172.828 129.907 172.828H129.903Z" fill="#002F87"/>
<path d="M143.381 170.997V181.085C143.381 181.388 143.261 181.512 142.954 181.512H141.545C141.242 181.512 141.144 181.371 141.084 181.085L140.922 180.419C140.467 181.033 139.811 181.469 139.069 181.648C137.297 182.011 135.564 180.722 135.564 178.344V170.997C135.564 170.694 135.683 170.57 135.991 170.57H137.882C138.185 170.57 138.309 170.69 138.309 170.997V177.828C138.309 178.874 138.954 179.258 139.5 179.236C140.046 179.215 140.648 178.809 140.648 177.828V170.997C140.648 170.694 140.768 170.57 141.075 170.57H142.966C143.261 170.574 143.381 170.694 143.381 170.997Z" fill="#002F87"/>
<path d="M150.634 170.856V172.666C150.634 172.969 150.514 173.093 150.207 173.093C148.926 173.093 147.97 173.738 147.97 175.309V181.089C147.97 181.392 147.85 181.516 147.543 181.516H145.652C145.349 181.516 145.225 181.397 145.225 181.089V170.997C145.225 170.694 145.344 170.57 145.652 170.57H147.06C147.364 170.57 147.462 170.711 147.526 170.997L147.667 171.625C147.966 171.239 148.351 170.929 148.791 170.72C149.232 170.51 149.715 170.406 150.203 170.416C150.514 170.434 150.634 170.553 150.634 170.856Z" fill="#002F87"/>
<path d="M151.641 178.549C151.641 178.365 151.663 178.186 151.906 178.186H153.797C153.837 178.18 153.877 178.181 153.916 178.191C153.955 178.2 153.992 178.218 154.024 178.242C154.056 178.267 154.083 178.298 154.103 178.333C154.122 178.368 154.134 178.407 154.139 178.447C154.301 179.031 154.621 179.394 155.167 179.394C155.28 179.406 155.394 179.393 155.501 179.358C155.609 179.322 155.707 179.265 155.791 179.189C155.875 179.113 155.942 179.02 155.987 178.916C156.033 178.813 156.056 178.701 156.055 178.587C156.132 176.957 151.983 176.935 151.765 173.695C151.624 171.659 153.195 170.391 155.086 170.391C156.636 170.391 158.391 171.296 158.429 173.533C158.429 173.716 158.429 173.896 158.169 173.896H156.414C156.374 173.902 156.334 173.9 156.295 173.89C156.256 173.88 156.22 173.862 156.188 173.838C156.156 173.814 156.13 173.783 156.11 173.748C156.09 173.714 156.077 173.675 156.072 173.635C155.991 173.208 155.769 172.709 155.219 172.688C155.114 172.674 155.008 172.682 154.906 172.712C154.805 172.742 154.711 172.793 154.631 172.861C154.55 172.929 154.485 173.014 154.439 173.109C154.393 173.204 154.368 173.308 154.365 173.413C154.305 174.903 158.916 175.245 158.839 178.57C158.796 180.564 157.131 181.691 155.231 181.691C153.332 181.691 151.906 180.581 151.641 178.549Z" fill="#002F87"/>
<path d="M9.22543 204.94C8.11975 204.94 7.89776 204.757 7.41108 204.334C6.55748 204.931 5.53163 205.231 4.49105 205.188C3.94888 205.188 0 205.128 0 201.346C0 199.271 1.22949 198.648 3.16337 197.158L2.61693 196.304C1.91254 195.215 1.83569 194.652 1.83569 193.986C1.83569 192.155 3.42378 190.925 5.4772 190.925C7.93618 190.925 9.18701 192.257 9.18701 193.969C9.19395 194.46 9.07491 194.945 8.84122 195.378C8.35881 196.325 7.4922 196.949 6.64692 197.551L8.11975 200.01C8.29234 199.297 8.3656 198.565 8.33747 197.832H10.7324C10.6513 200.633 10.1091 201.675 9.58403 202.528C9.70357 202.75 9.88714 203.135 10.9715 203.135H11.5008V204.928L9.22543 204.94ZM4.39286 199.258C3.82934 199.604 2.92004 200.146 2.92004 201.073C2.92004 201.696 3.58601 203.028 4.67462 203.028C5.24347 202.983 5.78467 202.764 6.22429 202.4L4.39286 199.258ZM6.92868 193.862C6.90782 193.561 6.76941 193.281 6.54335 193.081C6.31728 192.881 6.02173 192.778 5.72054 192.795C5.58903 192.795 5.45886 192.821 5.33804 192.873C5.21721 192.925 5.10827 193.001 5.01792 193.097C4.92756 193.192 4.8577 193.305 4.81261 193.429C4.76752 193.552 4.74817 193.684 4.75573 193.815C4.75573 194.396 5.18264 195.062 5.51989 195.587C6.10475 195.211 6.92868 194.669 6.92868 193.862Z" fill="#002F87"/>
<path d="M17.2427 200.688V195.566C17.2427 192.445 18.6515 190.391 21.6527 190.391C24.6538 190.391 26.0669 192.445 26.0669 195.566V200.688C26.0669 203.809 24.6367 205.863 21.6527 205.863C18.6686 205.863 17.2427 203.809 17.2427 200.688ZM23.1468 200.688V195.566C23.1468 194.157 22.784 193.068 21.6527 193.068C20.5214 193.068 20.1457 194.157 20.1457 195.566V200.688C20.1457 202.097 20.5256 203.186 21.6527 203.186C22.7797 203.186 23.1468 202.097 23.1468 200.688Z" fill="#002F87"/>
<path d="M33.3584 195.028V196.842C33.3584 197.141 33.2389 197.269 32.9315 197.269C31.6508 197.269 30.6945 197.913 30.6945 199.484V205.265C30.6945 205.564 30.575 205.692 30.2676 205.692H28.3636C28.0605 205.692 27.9367 205.568 27.9367 205.265V195.168C27.9367 194.865 28.0562 194.742 28.3636 194.742H29.7724C30.0755 194.742 30.1737 194.882 30.2377 195.168L30.3786 195.792C30.6777 195.406 31.0628 195.096 31.5031 194.887C31.9435 194.677 32.4268 194.573 32.9144 194.584C33.2175 194.605 33.3584 194.724 33.3584 195.028Z" fill="#002F87"/>
<path d="M34.3232 191.181C34.3224 190.858 34.4172 190.543 34.5956 190.273C34.774 190.004 35.0281 189.794 35.3257 189.669C35.6234 189.544 35.9515 189.51 36.2684 189.572C36.5854 189.633 36.8771 189.787 37.1069 190.013C37.3367 190.24 37.4941 190.53 37.5595 190.846C37.6248 191.162 37.5951 191.491 37.4741 191.79C37.3531 192.089 37.1462 192.346 36.8795 192.528C36.6128 192.71 36.2982 192.809 35.9754 192.812C35.7593 192.815 35.5447 192.776 35.3441 192.695C35.1435 192.615 34.961 192.495 34.8071 192.343C34.6533 192.191 34.5313 192.01 34.4482 191.811C34.3651 191.611 34.3227 191.397 34.3232 191.181ZM37.3457 195.169V205.261C37.3457 205.559 37.2262 205.688 36.9188 205.688H35.0276C34.7245 205.688 34.6007 205.564 34.6007 205.261V195.169C34.6007 194.865 34.7203 194.742 35.0276 194.742H36.9188C37.2262 194.746 37.3457 194.865 37.3457 195.169Z" fill="#002F87"/>
<path d="M46.6736 198.836V199.177C46.6728 199.519 46.6529 199.862 46.6138 200.202C46.5711 200.505 46.49 200.629 46.1869 200.629H41.9605C41.7983 200.629 41.7599 200.667 41.7599 200.829V202.037C41.7599 203.062 42.4003 203.425 42.9467 203.425C43.1883 203.428 43.4241 203.351 43.6172 203.205C43.8103 203.06 43.9498 202.855 44.014 202.622C44.0246 202.542 44.0664 202.469 44.1304 202.42C44.1943 202.37 44.2752 202.348 44.3555 202.358H46.2296C46.4729 202.358 46.5113 202.541 46.49 202.72C46.2082 205.179 44.4366 205.862 42.9467 205.862C41.0939 205.862 39.0789 204.774 39.0789 201.128V199.275C39.0789 195.651 41.0939 194.579 42.9467 194.579C44.6372 194.562 46.6736 195.472 46.6736 198.836ZM43.0278 196.859C42.8479 196.858 42.6698 196.895 42.5051 196.967C42.3404 197.04 42.1928 197.146 42.072 197.28C41.9512 197.413 41.8598 197.57 41.8038 197.741C41.7478 197.912 41.7285 198.093 41.7471 198.272V198.571C41.7471 198.733 41.7855 198.772 41.9477 198.772H44.0823C44.2445 198.772 44.2829 198.733 44.2829 198.571V198.272C44.3013 198.095 44.2827 197.917 44.2282 197.747C44.1738 197.578 44.0847 197.422 43.9666 197.289C43.8485 197.156 43.7041 197.049 43.5425 196.975C43.3808 196.901 43.2056 196.862 43.0278 196.859Z" fill="#002F87"/>
<path d="M56.2406 197.926V205.261C56.2406 205.559 56.1211 205.687 55.8137 205.687H53.9182C53.6194 205.687 53.4913 205.564 53.4913 205.261V198.43C53.4913 197.38 52.8467 197 52.3045 197.017C51.7623 197.034 51.1561 197.444 51.1561 198.43V205.261C51.1561 205.559 51.0366 205.687 50.7292 205.687H48.838C48.5349 205.687 48.4111 205.564 48.4111 205.261V195.168C48.4111 194.865 48.5349 194.742 48.838 194.742H50.2468C50.5499 194.742 50.6481 194.882 50.7079 195.168L50.8701 195.83C51.3235 195.216 51.9799 194.782 52.7229 194.605C54.5073 194.263 56.2406 195.553 56.2406 197.926Z" fill="#002F87"/>
<path d="M58.8617 202.119V197.282C58.8617 197.021 58.7977 196.94 58.5373 196.94H58.1189C57.8158 196.94 57.692 196.821 57.692 196.513V195.164C57.692 194.861 57.8116 194.737 58.1189 194.737H58.6611C58.9258 194.737 59.0026 194.678 59.0026 194.396V192.863C59.0026 192.56 59.1264 192.436 59.4295 192.436H61.1073C61.4104 192.436 61.5342 192.556 61.5342 192.863V194.396C61.5342 194.678 61.5939 194.737 61.8586 194.737H62.8149C63.118 194.737 63.2418 194.857 63.2418 195.164V196.513C63.2418 196.816 63.1223 196.94 62.8149 196.94H61.9611C61.7007 196.94 61.6195 197.021 61.6195 197.282V202.119C61.6195 202.921 61.9824 203.399 62.849 203.399C63.1521 203.399 63.2759 203.519 63.2759 203.826V205.278C63.2759 205.576 63.1564 205.704 62.849 205.704C60.0699 205.683 58.8617 204.735 58.8617 202.119Z" fill="#002F87"/>
<path d="M64.5823 202.498C64.5823 199.48 67.1992 198.934 69.5344 198.733V198.05C69.5521 197.898 69.5371 197.745 69.4904 197.599C69.4437 197.454 69.3663 197.32 69.2636 197.208C69.1608 197.095 69.035 197.005 68.8946 196.945C68.7543 196.885 68.6027 196.856 68.45 196.859C68.1867 196.852 67.9307 196.946 67.7351 197.123C67.5396 197.299 67.4195 197.544 67.3999 197.807C67.3952 197.847 67.3825 197.885 67.3626 197.92C67.3428 197.955 67.3161 197.985 67.2843 198.009C67.2524 198.034 67.216 198.051 67.1772 198.061C67.1384 198.071 67.0979 198.073 67.0583 198.067H65.308C65.0647 198.067 65.0433 197.888 65.0433 197.704C65.086 195.429 66.8363 194.562 68.6293 194.562C70.4223 194.562 72.2751 195.63 72.2751 198.511V203.164C72.2492 203.882 72.3166 204.599 72.4758 205.299C72.5355 205.602 72.3776 205.704 72.0745 205.704H70.2815C69.9784 205.704 69.8972 205.602 69.8161 205C69.3655 205.444 68.7911 205.742 68.1683 205.854C66.3924 206.166 64.5823 204.957 64.5823 202.498ZM69.5344 202.016V200.308C68.1683 200.488 67.2803 200.872 67.3187 202.183C67.3614 203.036 67.8823 203.463 68.45 203.429C69.0178 203.395 69.5344 203.002 69.5344 202.016Z" fill="#002F87"/>
<path d="M74.9945 202.119V197.282C74.9945 197.021 74.9347 196.94 74.6743 196.94H74.2688C73.9699 196.94 73.8419 196.821 73.8419 196.513V195.164C73.8419 194.861 73.9657 194.737 74.2688 194.737H74.8152C75.0756 194.737 75.1567 194.678 75.1567 194.396V192.863C75.1567 192.56 75.2763 192.436 75.5836 192.436H77.2571C77.5559 192.436 77.684 192.556 77.684 192.863V194.396C77.684 194.678 77.7438 194.737 78.0042 194.737H78.9733C79.2721 194.737 79.4002 194.857 79.4002 195.164V196.513C79.4002 196.816 79.2764 196.94 78.9733 196.94H78.0853C77.8249 196.94 77.7438 197.021 77.7438 197.282V202.119C77.7438 202.921 78.1066 203.399 78.9733 203.399C79.2721 203.399 79.4002 203.519 79.4002 203.826V205.278C79.4002 205.576 79.2764 205.704 78.9733 205.704C76.2026 205.683 74.9945 204.735 74.9945 202.119Z" fill="#002F87"/>
<path d="M80.5742 191.181C80.5743 190.86 80.6694 190.545 80.8476 190.277C81.0259 190.01 81.2794 189.801 81.5761 189.677C81.8728 189.553 82.1996 189.519 82.5154 189.58C82.8311 189.642 83.1217 189.795 83.3506 190.021C83.5795 190.247 83.7365 190.535 83.8018 190.85C83.8671 191.165 83.8378 191.492 83.7177 191.791C83.5975 192.089 83.3918 192.345 83.1265 192.527C82.8611 192.709 82.5479 192.808 82.2263 192.812C82.0102 192.815 81.7956 192.776 81.595 192.695C81.3945 192.615 81.2119 192.495 81.0581 192.343C80.9043 192.191 80.7823 192.01 80.6992 191.811C80.6161 191.611 80.5736 191.397 80.5742 191.181ZM83.5967 195.168V205.261C83.5967 205.559 83.4772 205.687 83.1698 205.687H81.2743C80.9755 205.687 80.8474 205.564 80.8474 205.261V195.168C80.8474 194.865 80.9712 194.742 81.2743 194.742H83.1698C83.4772 194.746 83.5967 194.865 83.5967 195.168Z" fill="#002F87"/>
<path d="M85.33 201.572V198.853C85.33 195.711 87.4218 194.562 89.2361 194.562C91.0505 194.562 93.1253 195.711 93.1253 198.853V201.572C93.1253 204.714 91.0334 205.862 89.2191 205.862C87.4047 205.862 85.33 204.714 85.33 201.572ZM89.2361 197C88.694 197 88.0664 197.363 88.0664 198.413V202.016C88.0664 203.062 88.694 203.425 89.2361 203.425C89.7783 203.425 90.4059 203.062 90.4059 202.016V198.413C90.4059 197.363 89.7612 197 89.2361 197Z" fill="#002F87"/>
<path d="M102.714 197.926V205.261C102.714 205.559 102.59 205.687 102.287 205.687H100.383C100.08 205.687 99.9557 205.564 99.9557 205.261V198.43C99.9557 197.38 99.3111 197 98.7689 197.017C98.2268 197.034 97.6206 197.444 97.6206 198.43V205.261C97.6206 205.559 97.4967 205.687 97.1936 205.687H95.2982C94.9951 205.687 94.8713 205.564 94.8713 205.261V195.168C94.8713 194.865 94.9908 194.742 95.2982 194.742H96.707C97.0101 194.742 97.1125 194.882 97.1723 195.168L97.3345 195.83C97.7872 195.215 98.4439 194.781 99.1873 194.605C100.98 194.263 102.714 195.553 102.714 197.926Z" fill="#002F87"/>
<path d="M116.814 190.998V205.261C116.814 205.559 116.69 205.687 116.387 205.687H114.957C114.658 205.687 114.577 205.547 114.53 205.261L114.368 204.595C113.916 205.212 113.259 205.648 112.515 205.824C110.744 206.187 109.01 204.898 109.01 202.52V197.926C109.01 195.553 110.744 194.263 112.515 194.626C113.118 194.763 113.666 195.078 114.086 195.531V190.998C114.086 190.699 114.206 190.571 114.513 190.571H116.404C116.69 190.575 116.814 190.699 116.814 190.998ZM114.073 202.016V198.413C114.073 197.423 113.467 197 112.925 197C112.383 197 111.738 197.363 111.738 198.413V202.016C111.738 203.062 112.383 203.446 112.925 203.425C113.467 203.403 114.073 203.002 114.073 202.016Z" fill="#002F87"/>
<path d="M126.159 198.836V199.177C126.158 199.519 126.138 199.862 126.099 200.202C126.057 200.505 125.976 200.629 125.673 200.629H121.442C121.28 200.629 121.241 200.667 121.241 200.829V202.037C121.241 203.062 121.886 203.425 122.428 203.425C122.67 203.428 122.905 203.351 123.098 203.205C123.292 203.06 123.431 202.855 123.495 202.622C123.506 202.542 123.548 202.469 123.612 202.42C123.676 202.37 123.757 202.348 123.837 202.358H125.711C125.954 202.358 125.993 202.541 125.971 202.72C125.69 205.179 123.918 205.862 122.428 205.862C120.575 205.862 118.56 204.774 118.56 201.128V199.275C118.56 195.651 120.575 194.579 122.428 194.579C124.123 194.562 126.159 195.472 126.159 198.836ZM122.513 196.859C122.333 196.858 122.155 196.895 121.991 196.967C121.826 197.04 121.678 197.146 121.558 197.28C121.437 197.413 121.345 197.57 121.289 197.741C121.233 197.912 121.214 198.093 121.233 198.272V198.571C121.233 198.733 121.271 198.772 121.433 198.772H123.568C123.73 198.772 123.769 198.733 123.769 198.571V198.272C123.787 198.095 123.768 197.917 123.714 197.747C123.659 197.578 123.57 197.422 123.452 197.289C123.334 197.156 123.19 197.049 123.028 196.975C122.866 196.901 122.691 196.862 122.513 196.859Z" fill="#002F87"/>
<path d="M141.306 205.683H139.052C138.951 205.702 138.847 205.684 138.758 205.632C138.669 205.58 138.602 205.498 138.569 205.401L136.67 200.483H135.884C135.585 200.483 135.504 200.565 135.504 200.868V205.261C135.504 205.559 135.38 205.687 135.077 205.687H133.02C132.721 205.687 132.593 205.564 132.593 205.261V190.998C132.593 190.699 132.716 190.571 133.02 190.571H136.828C139.184 190.571 140.956 192.385 140.956 195.143V195.911C140.956 197.58 140.311 198.9 139.248 199.694L141.502 205.273C141.609 205.521 141.528 205.683 141.306 205.683ZM135.867 197.768H136.512C137.318 197.768 138.044 197.141 138.044 195.792V195.13C138.044 193.777 137.318 193.153 136.512 193.153H135.867C135.568 193.153 135.487 193.235 135.487 193.538V197.38C135.487 197.687 135.568 197.768 135.867 197.768Z" fill="#002F87"/>
<path d="M150.655 195.168V205.261C150.655 205.559 150.531 205.687 150.228 205.687H148.815C148.516 205.687 148.414 205.547 148.354 205.261L148.196 204.573C147.744 205.19 147.087 205.626 146.343 205.803C144.572 206.166 142.838 204.876 142.838 202.498V195.168C142.838 194.865 142.958 194.742 143.265 194.742H145.161C145.46 194.742 145.588 194.861 145.588 195.168V201.999C145.588 203.045 146.232 203.429 146.774 203.408C147.317 203.386 147.923 202.981 147.923 201.999V195.168C147.923 194.865 148.042 194.742 148.35 194.742H150.245C150.531 194.746 150.655 194.865 150.655 195.168Z" fill="#002F87"/>
<path d="M160 198.836V199.177C159.999 199.519 159.979 199.862 159.94 200.202C159.898 200.505 159.821 200.629 159.513 200.629H155.283C155.121 200.629 155.082 200.667 155.082 200.829V202.037C155.082 203.062 155.727 203.425 156.269 203.425C156.51 203.428 156.746 203.351 156.939 203.205C157.132 203.06 157.272 202.855 157.336 202.622C157.347 202.542 157.389 202.469 157.453 202.42C157.516 202.37 157.597 202.348 157.678 202.358H159.552C159.795 202.358 159.834 202.541 159.816 202.72C159.535 205.179 157.759 205.862 156.269 205.862C154.416 205.862 152.401 204.774 152.401 201.128V199.275C152.401 195.651 154.416 194.579 156.269 194.579C157.968 194.562 160 195.472 160 198.836ZM156.354 196.859C156.174 196.858 155.996 196.895 155.832 196.967C155.667 197.04 155.519 197.146 155.398 197.28C155.278 197.413 155.186 197.57 155.13 197.741C155.074 197.912 155.055 198.093 155.074 198.272V198.571C155.074 198.733 155.112 198.772 155.274 198.772H157.409C157.571 198.772 157.609 198.733 157.609 198.571V198.272C157.628 198.095 157.609 197.917 157.555 197.747C157.5 197.578 157.411 197.422 157.293 197.289C157.175 197.156 157.031 197.049 156.869 196.975C156.707 196.901 156.532 196.862 156.354 196.859Z" fill="#002F87"/>
</g>
<defs>
<clipPath id="clip0_2_156">
<rect width="160" height="205.88" fill="white"/>
</clipPath>
</defs>
</svg>
