<svg width="472" height="472" viewBox="0 0 472 472" fill="none" xmlns="http://www.w3.org/2000/svg">
<g clip-path="url(#clip0_436_551)">
<path d="M415.46 405.608C405.81 415.763 396.68 422.314 389.466 427.488C304.67 488.313 204.327 470.583 183.008 466.255C151.519 459.862 90.6512 447.503 46.6434 395.766C-19.9346 317.49 -9.56751 194.18 42.0758 112.769C51.5129 97.8775 101.42 15.2343 202.836 1.98136C264.214 -6.03972 335.759 10.1362 387.57 53.5317C496.327 144.625 488.585 328.645 415.46 405.608Z" fill="url(#paint0_linear_436_551)"/>
<path d="M339.143 268.656C339.143 268.656 337.77 210.632 364.494 195.103C391.218 179.574 442.05 169.865 443.958 86.5491C445.075 37.7725 446.281 16.447 447.091 7.14798C447.166 6.30309 447.045 5.45227 446.736 4.66231C446.427 3.87234 445.939 3.16472 445.31 2.59498C444.682 2.02525 443.929 1.60889 443.113 1.3786C442.296 1.14831 441.437 1.11035 440.604 1.26769C415.285 6.03471 333.045 25.6603 315.797 81.7821C295.354 148.313 339.143 268.656 339.143 268.656Z" fill="#91B3FA"/>
<path d="M421.022 24.4475C393.226 49.226 361.097 93.0795 343.969 136.933C341.77 144.162 335.339 159.531 332.547 186.838C330.052 209.613 331.293 233.68 334.316 249.611C334.408 250.094 334.688 250.522 335.095 250.799C335.502 251.076 336.003 251.181 336.487 251.089C338.22 250.76 337.99 248.897 337.972 248.955C334.518 221.738 335.953 187.861 343.868 157.293C353.978 119.759 376.534 83.3671 399.863 52.5058L402.265 49.4662C420.34 26.2624 424.144 26.0908 422.455 24.4732C422.263 24.2902 422.009 24.186 421.744 24.1812C421.479 24.1764 421.221 24.2715 421.022 24.4475Z" fill="#BDD0FB"/>
<path d="M305.737 375.083C302.12 376.857 339.976 329.264 351.835 254.518C357.423 219.297 357.497 175.165 377.572 158.159C394.276 144.005 451.115 152.941 469.713 156.337C470.234 156.432 470.717 156.672 471.106 157.031C471.496 157.39 471.775 157.852 471.911 158.364C472.047 158.875 472.034 159.415 471.875 159.92C471.715 160.425 471.415 160.874 471.01 161.214C462.088 168.703 443.013 186.365 438.042 204.167C431.482 227.63 409.169 242.554 389.195 246.592C369.221 250.63 358.108 254.549 348.375 286.486C338.643 318.423 316.013 370.045 305.737 375.083Z" fill="#BDD0FB"/>
<path d="M443.545 166.25C419.816 167.244 394.346 178.064 381.421 198.362L380.201 200.299C377.384 204.841 361.414 237.126 352.545 263.889C352.492 264.05 352.505 264.224 352.581 264.375C352.657 264.526 352.79 264.641 352.95 264.694C353.106 264.743 353.275 264.73 353.423 264.66C353.571 264.589 353.686 264.465 353.746 264.313C359.923 249.194 368.801 230.024 375.868 215.691C383.449 200.048 388.753 189.456 406.043 179.31C425.288 168.383 443.672 167.257 443.62 167.268C443.742 167.242 443.85 167.173 443.925 167.074C444 166.975 444.037 166.852 444.028 166.728C444.019 166.603 443.966 166.487 443.878 166.399C443.789 166.311 443.672 166.258 443.548 166.25H443.545Z" fill="url(#paint1_linear_436_551)"/>
<path d="M90.9858 112.624C90.9856 109.061 91.6875 105.532 93.0515 102.24C94.4155 98.9476 96.4148 95.9561 98.9353 93.4363C101.456 90.9165 104.448 88.9177 107.741 87.5541C111.035 86.1905 114.564 85.4888 118.129 85.489H348.954C355.085 85.4894 360.982 87.8442 365.427 92.067C369.872 96.2898 372.524 102.058 372.836 108.18L389.875 442.738C389.995 445.098 389.64 447.459 388.829 449.68C388.018 451.901 386.769 453.936 385.156 455.664C383.543 457.393 381.598 458.779 379.438 459.741C377.278 460.703 374.947 461.221 372.583 461.264L108.028 466.067C105.804 466.107 103.595 465.704 101.529 464.881C99.4635 464.058 97.5823 462.832 95.9958 461.275C94.4092 459.717 93.1491 457.859 92.2889 455.809C91.4287 453.759 90.9857 451.558 90.9858 449.335V112.624Z" fill="url(#paint2_linear_436_551)"/>
<path d="M146.694 460.383H146.686L117.084 460.001C107.185 459.872 99.1328 451.717 99.1328 441.818V397.139C99.1328 396.972 99.1993 396.811 99.3177 396.693C99.4362 396.575 99.5968 396.508 99.7642 396.508C99.9317 396.508 100.092 396.575 100.211 396.693C100.329 396.811 100.396 396.972 100.396 397.139V441.821C100.396 451.03 107.889 458.618 117.099 458.738L146.704 459.121C146.872 459.121 147.033 459.187 147.151 459.306C147.269 459.424 147.336 459.585 147.336 459.752C147.336 459.92 147.269 460.08 147.151 460.199C147.033 460.317 146.872 460.383 146.704 460.383H146.694Z" fill="#91B3FA"/>
<path d="M99.7642 383.931C99.5968 383.931 99.4362 383.865 99.3177 383.746C99.1993 383.628 99.1328 383.467 99.1328 383.3V376.064C99.1328 375.897 99.1993 375.736 99.3177 375.618C99.4362 375.5 99.5968 375.433 99.7642 375.433C99.9317 375.433 100.092 375.5 100.211 375.618C100.329 375.736 100.396 375.897 100.396 376.064V383.3C100.396 383.467 100.329 383.628 100.211 383.746C100.092 383.865 99.9317 383.931 99.7642 383.931Z" fill="url(#paint3_linear_436_551)"/>
<path d="M109.896 90.6385C109.889 89.5097 110.124 88.3924 110.586 87.3622C111.048 86.3321 111.725 85.4132 112.573 84.6678C113.421 83.9224 114.42 83.3678 115.501 83.0415C116.582 82.7153 117.72 82.6251 118.839 82.777C150.359 87.05 258.752 100.274 348.37 93.39C349.34 93.3137 350.315 93.4322 351.238 93.7384C352.161 94.0445 353.013 94.5322 353.745 95.1727C354.477 95.8132 355.073 96.5935 355.498 97.4678C355.924 98.3421 356.17 99.2927 356.222 100.263L374.087 436.317C374.206 438.53 373.443 440.7 371.966 442.353C370.489 444.006 368.418 445.007 366.205 445.137C328.515 447.367 173.288 455.987 117.923 450.189C116.296 450.017 114.789 449.251 113.691 448.038C112.594 446.825 111.982 445.25 111.974 443.614L109.896 90.6385Z" fill="url(#paint4_linear_436_551)"/>
<path d="M113.609 99.0593C113.602 97.9731 113.828 96.8981 114.273 95.907C114.717 94.9158 115.369 94.0317 116.185 93.3144C117.001 92.5971 117.962 92.0635 119.002 91.7495C120.042 91.4355 121.137 91.3485 122.214 91.4945C152.548 95.6114 256.861 108.326 343.104 101.706C344.037 101.634 344.975 101.748 345.862 102.043C346.75 102.339 347.57 102.808 348.273 103.425C348.976 104.041 349.549 104.792 349.958 105.633C350.367 106.474 350.604 107.388 350.654 108.322L367.847 431.721C367.963 433.852 367.23 435.941 365.808 437.532C364.386 439.123 362.391 440.086 360.261 440.209C323.99 442.355 174.607 450.65 121.325 445.072C119.759 444.907 118.309 444.169 117.253 443.001C116.197 441.833 115.61 440.317 115.603 438.742L113.609 99.0593Z" fill="url(#paint5_linear_436_551)"/>
<path opacity="0.78" d="M141.691 123.992L144.911 193.322C144.962 194.434 145.432 195.485 146.225 196.264C147.019 197.044 148.078 197.495 149.191 197.527C162.034 197.89 202.057 198.865 224.655 197.688C225.887 197.623 227.05 197.098 227.914 196.217C228.778 195.336 229.279 194.163 229.319 192.93C229.749 179.927 230.691 142.083 227.73 126.262C227.495 125.021 226.844 123.897 225.885 123.076C224.926 122.254 223.716 121.784 222.454 121.742L146.533 119.091C145.886 119.069 145.241 119.181 144.64 119.42C144.038 119.66 143.493 120.021 143.038 120.481C142.583 120.942 142.228 121.491 141.996 122.096C141.764 122.7 141.66 123.346 141.691 123.992Z" fill="white"/>
<g opacity="0.6">
<path d="M331.749 130.025C333.168 130.025 334.299 128.979 334.261 127.699C334.223 126.419 333.032 125.352 331.613 125.327L248.11 123.85C246.691 123.824 245.916 124.9 246.395 126.238L246.875 127.61C247.347 128.948 248.893 130.044 250.307 130.044L331.749 130.025Z" fill="white"/>
</g>
<g opacity="0.6">
<path d="M248.11 136.768C246.691 136.743 245.916 137.818 246.395 139.156L246.875 140.52C247.347 141.858 248.893 142.954 250.307 142.954H331.744C333.163 142.954 334.294 141.908 334.256 140.628C334.218 139.348 333.027 138.281 331.608 138.255L248.11 136.768Z" fill="white"/>
</g>
<g opacity="0.6">
<path d="M248.11 149.881C246.691 149.857 245.916 150.93 246.395 152.268L246.875 153.641C247.347 154.979 248.893 156.073 250.307 156.073H331.744C333.163 156.073 334.294 155.027 334.256 153.747C334.218 152.467 333.027 151.4 331.608 151.376L248.11 149.881Z" fill="white"/>
</g>
<g opacity="0.6">
<path d="M339.834 219.305C341.253 219.305 342.346 218.259 342.262 216.979C342.178 215.699 340.946 214.644 339.527 214.634L144.247 213.09C142.828 213.078 142.391 213.977 143.274 215.087L145.023 217.283C145.906 218.393 147.792 219.3 149.211 219.3L339.834 219.305Z" fill="white"/>
</g>
<g opacity="0.6">
<path d="M144.247 226.021C142.828 226.009 142.391 226.908 143.274 228.018L145.023 230.213C145.906 231.323 147.792 232.231 149.211 232.231H339.841C341.26 232.231 342.353 231.184 342.269 229.906C342.185 228.628 340.953 227.57 339.534 227.56L144.247 226.021Z" fill="white"/>
</g>
<path d="M143.492 247.602C148.182 247.243 156.962 247.077 161.797 247.008C162.791 246.993 163.761 247.317 164.546 247.926C165.332 248.535 165.887 249.393 166.121 250.359C167.054 254.225 168.341 260.939 168.18 268.053C168.158 269.076 167.734 270.05 166.999 270.763C166.264 271.475 165.278 271.87 164.254 271.861L146.409 271.669C145.35 271.656 144.333 271.252 143.554 270.535C142.776 269.817 142.29 268.837 142.19 267.783L140.622 251.007C140.583 250.594 140.626 250.178 140.75 249.782C140.874 249.386 141.075 249.019 141.342 248.702C141.61 248.385 141.938 248.125 142.307 247.936C142.676 247.747 143.079 247.633 143.492 247.602Z" fill="url(#paint6_linear_436_551)"/>
<g opacity="0.6">
<path d="M176.356 254.486C174.937 254.427 173.953 255.527 174.161 256.93L174.629 260.05C174.755 260.751 175.118 261.387 175.658 261.852C176.197 262.317 176.881 262.581 177.593 262.601H221.172C221.508 262.601 221.842 262.534 222.152 262.404C222.463 262.275 222.745 262.085 222.982 261.845C223.219 261.606 223.406 261.322 223.533 261.011C223.659 260.699 223.723 260.365 223.72 260.028L223.708 259.049C223.69 258.355 223.411 257.693 222.927 257.195C222.443 256.697 221.789 256.4 221.096 256.362L176.356 254.486Z" fill="white"/>
</g>
<path d="M240.672 247.602C245.362 247.243 254.143 247.077 258.977 247.008C259.971 246.993 260.941 247.316 261.727 247.925C262.513 248.534 263.069 249.392 263.302 250.358C264.234 254.225 265.521 260.939 265.361 268.053C265.34 269.076 264.915 270.05 264.181 270.762C263.446 271.475 262.459 271.87 261.436 271.861L243.591 271.669C242.532 271.656 241.515 271.252 240.736 270.535C239.957 269.817 239.471 268.837 239.372 267.783L237.803 251.007C237.764 250.594 237.808 250.178 237.932 249.783C238.056 249.387 238.257 249.02 238.524 248.703C238.791 248.386 239.118 248.126 239.487 247.937C239.856 247.748 240.259 247.634 240.672 247.602Z" fill="url(#paint7_linear_436_551)"/>
<g opacity="0.6">
<path d="M273.536 254.486C272.118 254.427 271.133 255.527 271.341 256.93L271.81 260.05C271.935 260.751 272.299 261.388 272.839 261.852C273.379 262.317 274.062 262.581 274.775 262.601H318.345C318.682 262.601 319.015 262.534 319.326 262.404C319.636 262.275 319.918 262.085 320.155 261.845C320.392 261.606 320.579 261.322 320.706 261.011C320.832 260.699 320.896 260.365 320.893 260.028L320.881 259.049C320.863 258.355 320.585 257.693 320.101 257.195C319.618 256.697 318.964 256.4 318.271 256.362L273.536 254.486Z" fill="white"/>
</g>
<g opacity="0.6">
<path d="M138.024 304.993C138.637 306.799 140.742 308.053 143.139 308.036L338.535 306.743C340.745 306.727 342.514 305.307 342.466 303.585C342.418 301.911 340.668 300.571 338.52 300.562L143.118 299.868C139.67 299.856 137.146 302.398 138.024 304.993Z" fill="white"/>
</g>
<g opacity="0.6">
<path d="M138.024 340.266C138.637 342.073 140.742 343.325 143.139 343.309L338.535 342.011C340.745 341.997 342.514 340.577 342.466 338.855C342.418 337.18 340.668 335.839 338.52 335.832L143.117 335.146C139.67 335.125 137.146 337.667 138.024 340.266Z" fill="white"/>
</g>
<g opacity="0.6">
<path d="M138.024 375.534C138.637 377.341 140.742 378.595 143.139 378.579L338.535 377.281C340.745 377.265 342.514 375.845 342.466 374.123C342.418 372.448 340.668 371.109 338.52 371.102L143.117 370.416C139.67 370.395 137.146 372.936 138.024 375.534Z" fill="white"/>
</g>
<g opacity="0.6">
<path d="M138.024 410.804C138.637 412.61 140.742 413.864 143.139 413.847L338.535 412.547C340.745 412.531 342.514 411.111 342.466 409.389C342.418 407.715 340.668 406.375 338.52 406.366L143.118 405.685C139.67 405.663 137.146 408.205 138.024 410.804Z" fill="white"/>
</g>
<path d="M247.856 39.8721C239.519 34.0741 232.27 34.1891 227.165 35.6935C224.908 36.3661 222.954 37.8001 221.636 39.7511C220.318 41.7022 219.717 44.0498 219.936 46.3939L222.136 70.4091L248.326 72.7318C248.326 72.7318 264.208 51.245 247.856 39.8721ZM236.34 59.2558C235.048 59.2558 233.785 58.8729 232.711 58.1555C231.637 57.4381 230.8 56.4185 230.306 55.2255C229.812 54.0326 229.683 52.7199 229.935 51.4534C230.187 50.187 230.809 49.0237 231.722 48.1106C232.635 47.1976 233.799 46.5758 235.066 46.3238C236.332 46.0719 237.645 46.2012 238.839 46.6954C240.032 47.1895 241.052 48.0263 241.769 49.0999C242.487 50.1736 242.87 51.4358 242.87 52.7271C242.868 54.4571 242.179 56.1155 240.954 57.338C239.73 58.5606 238.07 59.2472 236.34 59.2472V59.2558Z" fill="url(#paint8_linear_436_551)"/>
<path d="M224.752 60.3073C224.595 60.3071 224.443 60.248 224.327 60.1417C224.211 60.0354 224.139 59.8895 224.124 59.7327L223.781 55.9074C223.767 55.7405 223.819 55.5745 223.926 55.4459C224.033 55.3173 224.187 55.2365 224.354 55.2212C224.437 55.2132 224.521 55.2217 224.6 55.2461C224.679 55.2706 224.753 55.3105 224.817 55.3636C224.881 55.4168 224.933 55.482 224.972 55.5556C225.01 55.6292 225.034 55.7097 225.041 55.7925L225.384 59.6177C225.392 59.7003 225.383 59.7837 225.359 59.8629C225.334 59.9422 225.294 60.0158 225.241 60.0796C225.188 60.1433 225.123 60.196 225.049 60.2345C224.976 60.273 224.895 60.2966 224.813 60.3039L224.752 60.3073ZM224.066 52.8111C223.908 52.8113 223.756 52.7525 223.64 52.6461C223.523 52.5398 223.451 52.3936 223.436 52.2365L223.17 49.3341C222.966 47.1013 223.54 44.8664 224.796 43.0086C226.051 41.1508 227.911 39.7845 230.06 39.1413C233.169 38.2191 236.458 38.0841 239.632 38.7485C239.789 38.7893 239.925 38.8887 240.011 39.0264C240.096 39.1641 240.126 39.3294 240.093 39.4883C240.061 39.6472 239.968 39.7875 239.835 39.8804C239.702 39.9732 239.539 40.0113 239.378 39.987C236.407 39.3657 233.328 39.4918 230.418 40.3541C228.55 40.9137 226.933 42.1023 225.841 43.7181C224.75 45.334 224.251 47.2776 224.43 49.2192L224.696 52.1233C224.703 52.2058 224.695 52.2891 224.67 52.3682C224.645 52.4474 224.605 52.521 224.552 52.5847C224.499 52.6484 224.434 52.701 224.361 52.7396C224.287 52.7782 224.207 52.8019 224.124 52.8094L224.066 52.8111Z" fill="#91B3FA"/>
<path d="M186.392 85.9299V73.8554C186.393 72.8667 186.592 71.8884 186.979 70.9785C187.366 70.0686 187.932 69.2458 188.643 68.5588C189.354 67.8719 190.196 67.3348 191.119 66.9797C192.042 66.6245 193.027 66.4584 194.015 66.4913L277.28 69.3439C279.063 69.4052 280.759 70.1291 282.037 71.3742C283.315 72.6193 284.082 74.2961 284.189 76.0768L284.886 87.6795L186.392 85.9299Z" fill="url(#paint9_linear_436_551)"/>
<path d="M217.441 71.0421H213.86C213.698 71.0337 213.546 70.9634 213.434 70.8458C213.323 70.7282 213.26 70.5722 213.26 70.41C213.26 70.2478 213.323 70.0919 213.434 69.9742C213.546 69.8566 213.698 69.7863 213.86 69.7779H217.441C217.527 69.7734 217.613 69.7865 217.694 69.8162C217.774 69.846 217.848 69.8918 217.91 69.9509C217.973 70.0101 218.022 70.0813 218.056 70.1602C218.09 70.2391 218.108 70.3241 218.108 70.41C218.108 70.4959 218.09 70.5809 218.056 70.6598C218.022 70.7388 217.973 70.81 217.91 70.8691C217.848 70.9282 217.774 70.9741 217.694 71.0038C217.613 71.0336 217.527 71.0466 217.441 71.0421Z" fill="#91B3FA"/>
<path d="M190.899 82.1389C190.732 82.1389 190.571 82.0724 190.453 81.954C190.334 81.8356 190.268 81.675 190.268 81.5076V76.6222C190.272 74.8084 190.995 73.0701 192.278 71.7876C193.561 70.505 195.299 69.7824 197.114 69.7779H210.279C210.441 69.7863 210.594 69.8566 210.706 69.9742C210.817 70.0918 210.88 70.2478 210.88 70.41C210.88 70.5722 210.817 70.7282 210.706 70.8458C210.594 70.9634 210.441 71.0337 210.279 71.0421H197.114C195.634 71.0435 194.215 71.6318 193.168 72.6779C192.121 73.724 191.532 75.1425 191.53 76.6222V81.5076C191.53 81.675 191.464 81.8356 191.345 81.954C191.227 82.0724 191.066 82.1389 190.899 82.1389Z" fill="#91B3FA"/>
<path d="M152.463 88.9798C152.559 86.9666 153.427 85.0678 154.887 83.6772C156.346 82.2866 158.285 81.5109 160.301 81.511H305.917C308.453 81.5109 310.907 82.4056 312.847 84.0374C314.787 85.6693 316.089 87.9335 316.523 90.431L316.646 91.1429C316.876 92.4701 316.813 93.8314 316.461 95.1317C316.109 96.4319 315.478 97.6396 314.61 98.67C313.742 99.7005 312.66 100.529 311.438 101.097C310.217 101.666 308.886 101.96 307.539 101.96H158.144C157.33 101.961 156.525 101.797 155.776 101.477C155.028 101.157 154.352 100.688 153.791 100.1C153.229 99.5109 152.793 98.8142 152.509 98.0518C152.225 97.2894 152.099 96.4772 152.138 95.6646L152.463 88.9798Z" fill="url(#paint10_linear_436_551)"/>
<path d="M215.669 418.772H6.32959V467.547H215.669V418.772Z" fill="url(#paint11_linear_436_551)"/>
<path d="M1.97168 445.695H219.358V463.535C219.358 463.77 219.265 463.995 219.098 464.162C218.932 464.328 218.706 464.422 218.471 464.422H3.29974C2.94797 464.422 2.61061 464.282 2.36187 464.033C2.11313 463.785 1.9734 463.447 1.9734 463.096V445.695H1.97168Z" fill="url(#paint12_linear_436_551)"/>
<path d="M1.97168 424.429H219.358V441.844C219.358 442.193 219.22 442.527 218.973 442.774C218.726 443.021 218.391 443.159 218.042 443.159H3.61374C3.17824 443.159 2.76057 442.987 2.45263 442.679C2.14468 442.371 1.97168 441.953 1.97168 441.518V424.429Z" fill="url(#paint13_linear_436_551)"/>
<path d="M3.32721 417.407H217.979C218.343 417.407 218.692 417.551 218.949 417.809C219.207 418.066 219.351 418.415 219.351 418.779V424.429H1.9717V418.769C1.97079 418.59 2.00519 418.413 2.0729 418.248C2.14062 418.083 2.24032 417.932 2.36628 417.806C2.49224 417.679 2.64198 417.579 2.80689 417.51C2.97179 417.442 3.14862 417.407 3.32721 417.407Z" fill="url(#paint14_linear_436_551)"/>
<path d="M415.963 461.605C419.942 453.424 417.457 444.017 410.414 440.593C403.37 437.169 394.434 441.025 390.456 449.206C386.477 457.387 388.961 466.795 396.005 470.219C403.049 473.642 411.984 469.786 415.963 461.605Z" fill="url(#paint15_linear_436_551)"/>
<path d="M388.056 438.872L380.843 453.704C380.584 454.236 380.806 454.878 381.338 455.137L390.367 459.525C390.9 459.784 391.542 459.562 391.801 459.03L399.014 444.199C399.273 443.666 399.051 443.024 398.518 442.766L389.49 438.377C388.957 438.118 388.315 438.34 388.056 438.872Z" fill="url(#paint16_linear_436_551)"/>
<path d="M389.775 437.077C388.48 443.717 385.532 449.649 381.049 454.917C378.626 457.766 374.74 459.042 370.874 458.265C333.921 450.848 256.474 402.994 181.262 361.189C176.277 358.418 172.832 355.276 175.181 350.447L180.368 339.783C182.701 334.979 188.288 337.685 193.53 339.839C273.09 372.515 357.471 401.001 386.44 427.356C389.219 429.884 390.458 433.569 389.775 437.077Z" fill="url(#paint17_linear_436_551)"/>
<path d="M192.43 328.883L174.82 365.088C174.701 365.332 174.489 365.52 174.232 365.609C173.975 365.698 173.692 365.681 173.447 365.563L164.158 361.046C163.913 360.927 163.726 360.715 163.637 360.458C163.548 360.201 163.564 359.919 163.682 359.674L181.292 323.48C181.411 323.235 181.623 323.047 181.88 322.958C182.137 322.868 182.419 322.885 182.665 323.003L191.954 327.519C192.197 327.639 192.382 327.849 192.471 328.104C192.56 328.359 192.545 328.639 192.43 328.883Z" fill="url(#paint18_linear_436_551)"/>
<path d="M114.155 292.742L96.5451 328.947C96.4256 329.191 96.2141 329.378 95.9569 329.467C95.6996 329.556 95.4176 329.54 95.1724 329.422L85.8829 324.905C85.6382 324.786 85.4509 324.574 85.3618 324.317C85.2728 324.06 85.2892 323.778 85.4076 323.533L103.017 287.339C103.137 287.094 103.348 286.907 103.605 286.818C103.863 286.729 104.145 286.745 104.39 286.863L113.679 291.378C113.922 291.498 114.108 291.708 114.197 291.963C114.285 292.218 114.27 292.498 114.155 292.742Z" fill="url(#paint19_linear_436_551)"/>
<path d="M122.631 255.823L66.9927 370.222L144.518 407.907L200.157 293.507L122.631 255.823Z" fill="url(#paint20_linear_436_551)"/>
<path d="M69.9274 364.185L62.9302 378.572L140.456 416.256L147.453 401.869L69.9274 364.185Z" fill="url(#paint21_linear_436_551)"/>
<path d="M143.616 409.78L140.138 416.93C139.622 417.988 138.747 418.829 137.67 419.303C136.592 419.777 135.381 419.854 134.252 419.52C110.087 412.346 86.6979 401.165 64.1947 385.422C63.241 384.754 62.5566 383.768 62.2645 382.641C61.9724 381.513 62.0916 380.319 62.6007 379.272L66.0924 372.092L143.616 409.78Z" fill="url(#paint22_linear_436_551)"/>
<path d="M151.438 398.996L148.538 404.956C148.477 405.083 148.391 405.197 148.286 405.29C148.181 405.384 148.058 405.455 147.925 405.501C147.792 405.548 147.651 405.567 147.51 405.558C147.37 405.55 147.232 405.514 147.106 405.452L65.9464 365.999C65.691 365.874 65.4955 365.653 65.4028 365.385C65.3102 365.116 65.3279 364.822 65.4522 364.566L68.3503 358.605C68.4118 358.479 68.4977 358.365 68.6032 358.272C68.7086 358.178 68.8314 358.106 68.9647 358.06C69.0979 358.014 69.2389 357.995 69.3796 358.003C69.5203 358.012 69.658 358.048 69.7847 358.11L150.944 397.563C151.199 397.688 151.395 397.909 151.487 398.177C151.58 398.446 151.562 398.74 151.438 398.996Z" fill="url(#paint23_linear_436_551)"/>
<path d="M150.975 399.951L149.002 404.004C148.946 404.119 148.868 404.222 148.773 404.307C148.677 404.391 148.566 404.457 148.446 404.498C148.325 404.54 148.197 404.558 148.07 404.55C147.942 404.542 147.818 404.51 147.703 404.454L66.3567 364.908C66.2419 364.852 66.1393 364.774 66.0547 364.678C65.9701 364.583 65.9052 364.472 65.8636 364.351C65.822 364.231 65.8046 364.103 65.8123 363.976C65.8201 363.848 65.8529 363.724 65.9088 363.609L67.8803 359.556C67.936 359.441 68.0138 359.338 68.1092 359.253C68.2047 359.169 68.3159 359.103 68.4366 359.062C68.5572 359.02 68.6849 359.002 68.8123 359.01C68.9397 359.018 69.0644 359.05 69.1792 359.106L150.525 398.652C150.757 398.766 150.934 398.966 151.018 399.209C151.102 399.452 151.087 399.719 150.975 399.951Z" fill="url(#paint24_linear_436_551)"/>
<path d="M200.611 292.614L207.608 278.227L130.083 240.542L123.086 254.929L200.611 292.614Z" fill="url(#paint25_linear_436_551)"/>
<path d="M204.446 284.711L207.924 277.559C208.437 276.5 208.559 275.294 208.267 274.154C207.975 273.013 207.288 272.014 206.328 271.332C185.76 256.752 162.521 245.272 136.239 237.299C135.125 236.962 133.926 237.032 132.859 237.498C131.792 237.964 130.926 238.795 130.416 239.842L126.922 247.022L204.446 284.711Z" fill="url(#paint26_linear_436_551)"/>
<path d="M200.796 297.523L203.696 291.562C203.758 291.435 203.794 291.298 203.802 291.157C203.811 291.017 203.791 290.876 203.745 290.743C203.699 290.61 203.627 290.487 203.534 290.382C203.44 290.277 203.327 290.191 203.2 290.129L122.041 250.676C121.785 250.552 121.491 250.534 121.222 250.627C120.953 250.72 120.732 250.916 120.608 251.172L117.707 257.134C117.582 257.39 117.565 257.685 117.657 257.953C117.75 258.222 117.945 258.443 118.201 258.568L199.36 298.022C199.487 298.084 199.625 298.12 199.766 298.129C199.907 298.137 200.049 298.118 200.182 298.071C200.316 298.025 200.439 297.953 200.544 297.858C200.649 297.764 200.735 297.65 200.796 297.523Z" fill="url(#paint27_linear_436_551)"/>
<path d="M201.268 296.571L203.241 292.515C203.353 292.284 203.368 292.017 203.284 291.773C203.2 291.53 203.023 291.33 202.791 291.217L121.437 251.671C121.205 251.559 120.938 251.543 120.694 251.628C120.451 251.712 120.251 251.889 120.138 252.12L118.166 256.174C118.11 256.288 118.078 256.413 118.07 256.54C118.062 256.668 118.08 256.795 118.122 256.916C118.164 257.037 118.229 257.148 118.313 257.243C118.398 257.339 118.501 257.416 118.616 257.472L199.962 297.018C200.077 297.076 200.202 297.109 200.33 297.118C200.459 297.126 200.587 297.109 200.709 297.067C200.83 297.026 200.942 296.96 201.038 296.875C201.134 296.79 201.212 296.686 201.268 296.571Z" fill="url(#paint28_linear_436_551)"/>
</g>
<defs>
<linearGradient id="paint0_linear_436_551" x1="531.033" y1="611.309" x2="111.066" y2="89.5954" gradientUnits="userSpaceOnUse">
<stop stop-color="#DAE3FE"/>
<stop offset="1" stop-color="#E9EFFD"/>
</linearGradient>
<linearGradient id="paint1_linear_436_551" x1="352.518" y1="215.488" x2="444.082" y2="215.488" gradientUnits="userSpaceOnUse">
<stop stop-color="#DAE3FE"/>
<stop offset="1" stop-color="#E9EFFD"/>
</linearGradient>
<linearGradient id="paint2_linear_436_551" x1="240.343" y1="443.599" x2="219.126" y2="-184.633" gradientUnits="userSpaceOnUse">
<stop stop-color="#09005D"/>
<stop offset="1" stop-color="#1A0F91"/>
</linearGradient>
<linearGradient id="paint3_linear_436_551" x1="60.3566" y1="354.653" x2="300.924" y2="507.526" gradientUnits="userSpaceOnUse">
<stop stop-color="#A737D5"/>
<stop offset="1" stop-color="#EF497A"/>
</linearGradient>
<linearGradient id="paint4_linear_436_551" x1="605.602" y1="-33.8391" x2="435.83" y2="105.208" gradientUnits="userSpaceOnUse">
<stop stop-color="#E1473D"/>
<stop offset="1" stop-color="#E9605A"/>
</linearGradient>
<linearGradient id="paint5_linear_436_551" x1="361.733" y1="176.273" x2="628.363" y2="-20.9044" gradientUnits="userSpaceOnUse">
<stop stop-color="#FEBBBA"/>
<stop offset="1" stop-color="#FF928E"/>
</linearGradient>
<linearGradient id="paint6_linear_436_551" x1="115.874" y1="228.726" x2="338.032" y2="406.359" gradientUnits="userSpaceOnUse">
<stop stop-color="#A737D5"/>
<stop offset="1" stop-color="#EF497A"/>
</linearGradient>
<linearGradient id="paint7_linear_436_551" x1="262.125" y1="252.081" x2="523.06" y2="67.4396" gradientUnits="userSpaceOnUse">
<stop stop-color="#FF928E"/>
<stop offset="1" stop-color="#FE7062"/>
</linearGradient>
<linearGradient id="paint8_linear_436_551" x1="273.609" y1="5.42744" x2="167.475" y2="145.083" gradientUnits="userSpaceOnUse">
<stop stop-color="#09005D"/>
<stop offset="1" stop-color="#1A0F91"/>
</linearGradient>
<linearGradient id="paint9_linear_436_551" x1="285.257" y1="14.277" x2="179.12" y2="153.933" gradientUnits="userSpaceOnUse">
<stop stop-color="#09005D"/>
<stop offset="1" stop-color="#1A0F91"/>
</linearGradient>
<linearGradient id="paint10_linear_436_551" x1="271.877" y1="22.8179" x2="198.598" y2="157.409" gradientUnits="userSpaceOnUse">
<stop stop-color="#FF928E"/>
<stop offset="1" stop-color="#FE7062"/>
</linearGradient>
<linearGradient id="paint11_linear_436_551" x1="156.292" y1="379.291" x2="129.235" y2="417.465" gradientUnits="userSpaceOnUse">
<stop stop-color="#09005D"/>
<stop offset="1" stop-color="#1A0F91"/>
</linearGradient>
<linearGradient id="paint12_linear_436_551" x1="231.602" y1="289.202" x2="45.2138" y2="544.502" gradientUnits="userSpaceOnUse">
<stop stop-color="#4F52FF"/>
<stop offset="1" stop-color="#4042E2"/>
</linearGradient>
<linearGradient id="paint13_linear_436_551" x1="111.801" y1="409.572" x2="116.958" y2="302.386" gradientUnits="userSpaceOnUse">
<stop stop-color="#4F52FF"/>
<stop offset="1" stop-color="#4042E2"/>
</linearGradient>
<linearGradient id="paint14_linear_436_551" x1="277.077" y1="252.944" x2="229.395" y2="301.215" gradientUnits="userSpaceOnUse">
<stop stop-color="#09005D"/>
<stop offset="1" stop-color="#1A0F91"/>
</linearGradient>
<linearGradient id="paint15_linear_436_551" x1="499.516" y1="479.189" x2="543.392" y2="490.019" gradientUnits="userSpaceOnUse">
<stop stop-color="#4F52FF"/>
<stop offset="1" stop-color="#4042E2"/>
</linearGradient>
<linearGradient id="paint16_linear_436_551" x1="296.249" y1="390.342" x2="359.499" y2="429.956" gradientUnits="userSpaceOnUse">
<stop stop-color="#4F52FF"/>
<stop offset="1" stop-color="#4042E2"/>
</linearGradient>
<linearGradient id="paint17_linear_436_551" x1="482.122" y1="482.77" x2="165.748" y2="347.755" gradientUnits="userSpaceOnUse">
<stop stop-color="#4F52FF"/>
<stop offset="1" stop-color="#4042E2"/>
</linearGradient>
<linearGradient id="paint18_linear_436_551" x1="133.384" y1="312.299" x2="181.386" y2="346.68" gradientUnits="userSpaceOnUse">
<stop stop-color="#09005D"/>
<stop offset="1" stop-color="#1A0F91"/>
</linearGradient>
<linearGradient id="paint19_linear_436_551" x1="258.738" y1="373.431" x2="103.874" y2="309.784" gradientUnits="userSpaceOnUse">
<stop stop-color="#4F52FF"/>
<stop offset="1" stop-color="#4042E2"/>
</linearGradient>
<linearGradient id="paint20_linear_436_551" x1="94.9717" y1="312.809" x2="167.618" y2="348.714" gradientUnits="userSpaceOnUse">
<stop stop-color="#4F52FF"/>
<stop offset="1" stop-color="#4042E2"/>
</linearGradient>
<linearGradient id="paint21_linear_436_551" x1="46.0527" y1="432.78" x2="88.7829" y2="402.007" gradientUnits="userSpaceOnUse">
<stop stop-color="#09005D"/>
<stop offset="1" stop-color="#1A0F91"/>
</linearGradient>
<linearGradient id="paint22_linear_436_551" x1="70.6823" y1="482.15" x2="95.7438" y2="414.354" gradientUnits="userSpaceOnUse">
<stop stop-color="#4F52FF"/>
<stop offset="1" stop-color="#4042E2"/>
</linearGradient>
<linearGradient id="paint23_linear_436_551" x1="51.6895" y1="237.361" x2="77.4766" y2="303.017" gradientUnits="userSpaceOnUse">
<stop stop-color="#09005D"/>
<stop offset="1" stop-color="#1A0F91"/>
</linearGradient>
<linearGradient id="paint24_linear_436_551" x1="68.3213" y1="495.84" x2="105.859" y2="389.06" gradientUnits="userSpaceOnUse">
<stop stop-color="#4F52FF"/>
<stop offset="1" stop-color="#4042E2"/>
</linearGradient>
<linearGradient id="paint25_linear_436_551" x1="1993.52" y1="-68.9211" x2="1915.89" y2="-54.6675" gradientUnits="userSpaceOnUse">
<stop stop-color="#09005D"/>
<stop offset="1" stop-color="#1A0F91"/>
</linearGradient>
<linearGradient id="paint26_linear_436_551" x1="234.701" y1="153.106" x2="199.955" y2="209.512" gradientUnits="userSpaceOnUse">
<stop stop-color="#4F52FF"/>
<stop offset="1" stop-color="#4042E2"/>
</linearGradient>
<linearGradient id="paint27_linear_436_551" x1="146.97" y1="170.227" x2="155.514" y2="235.06" gradientUnits="userSpaceOnUse">
<stop stop-color="#09005D"/>
<stop offset="1" stop-color="#1A0F91"/>
</linearGradient>
<linearGradient id="paint28_linear_436_551" x1="241.128" y1="160.511" x2="188.765" y2="234.663" gradientUnits="userSpaceOnUse">
<stop stop-color="#4F52FF"/>
<stop offset="1" stop-color="#4042E2"/>
</linearGradient>
<clipPath id="clip0_436_551">
<rect width="472" height="472" fill="white"/>
</clipPath>
</defs>
</svg>
